/* XPM */
static const char * ani_play_xpm[] = {
"16 16 18 1",
" 	c None",
".	c #D6D2CB",
"+	c #5E5C5B",
"@	c #D2D2D4",
"#	c #91908E",
"$	c #E6E4E2",
"%	c #D4D0C9",
"&	c #EFEDEB",
"*	c #FCFBF9",
"=	c #D3CFC8",
"-	c #C7C5C5",
";	c #D7D3CC",
">	c #DFDDDA",
",	c #DBD8D3",
"'	c #1B1919",
")	c #AFAEAE",
"!	c #D5D1CA",
"~	c #000000",
"!,,$$!,.!%!;;!=!",
"!&-'#*>>,;.;;.=!",
"!=)#''#&$>;,,;=!",
"!,)=&)'')&>,>;.%",
"!,)-**@)''-&;,,;",
"!!)-***$-)'',>>,",
"!;#-*&@@--))''@>",
"!,))&>---)))++'>",
"!>))@@-)))++''$;",
"!;))--))'+'',*,;",
"!>)#))+'''@&>;,%",
"!>-#+'''-*>>>!.%",
"!>#'''-&*,=;;,,%",
"!&#')*$$==>,=%=%",
"!!$*$=>.,,%==;%%",
"!!!!!!!!!!!!!!!!"};
