/* XPM */
static const char * ani_pause_xpm[] = {
"16 16 18 1",
" 	c None",
".	c #D6D2CB",
"+	c #D7D3CC",
"@	c #D2D2D4",
"#	c #D3CFC8",
"$	c #D4D0C9",
"%	c #C7C5C5",
"&	c #AFAEAE",
"*	c #E6E4E2",
"=	c #DBD8D3",
"-	c #EFEDEB",
";	c #5E5C5B",
">	c #DFDDDA",
",	c #FCFBF9",
"'	c #1B1919",
")	c #91908E",
"!	c #D5D1CA",
"~	c #000000",
"!!+$>**-*>->--=.",
"!!=&)))'>)));'-=",
"!!+)!-)'>),=;',>",
"!!>)-,;'-),-'',=",
"!!>)*,)'=),>;',=",
"!!>)*,;'-),%;',=",
"!!>)>*)'=),%;'->",
"!!>)@%)'-)*%'',=",
"!!>)%%)'>&@&;',=",
"!!*)%&;'-)#);',=",
"!!>&&&)'>)%&;',=",
"!!>))))',)));',>",
"!!-;';''>';'''->",
"!!*;';';-';';;-=",
"!!*>,,,,*-,,,-*.",
"!!!!!!!!!!!!!!!!"};
