/* XPM */
static const char * ani_stop_xpm[] = {
"16 16 18 1",
" 	c None",
".	c #D6D2CB",
"+	c #D3CFC8",
"@	c #D4D0C9",
"#	c #D7D3CC",
"$	c #FCFBF9",
"%	c #C7C5C5",
"&	c #AFAEAE",
"*	c #E6E4E2",
"=	c #EFEDEB",
"-	c #D5D1CA",
";	c #5E5C5B",
">	c #DBD8D3",
",	c #1B1919",
"'	c #91908E",
")	c #D2D2D4",
"!	c #DFDDDA",
"~	c #000000",
"-%>.>-###>@.*!.-",
"-!>>>>!>!!!=*+*>",
"-.'''''''''','!>",
"->'!!!!)!)>&,;*!",
"--'==*=*!!)&,;=>",
"-)'===*!!))&,;$>",
"-+'==**!))%&,;=>",
"-)'**!!!))%&,;$#",
"-)'=!!!>))%',;=>",
"->'!!))))+%&,;$>",
"-)'*))))%%&',;=>",
"->'!))%%%%&&,;$>",
"-)'%&&&'&'&&,;$>",
"-!,,,,,,;,;,,;=.",
"-);,;;;;,;,;,&*#",
"-**$$*==$$==$>*#"};
