/* XPM */
static const char * animate_xpm[] = {
"16 15 7 1",
" 	c None",
".	c #C0C0C0",
"+	c #FF0000",
"@	c #008080",
"#	c #000000",
"$	c #00FFFF",
"%	c #FFFF00",
"................",
"................",
".....+.@@@#.....",
"...++@@$$$@@@...",
"..+%@@$..$$@@#..",
".+%%@$...$@$@#..",
".+%%@$...$@$@@..",
".+%%@$...$+@@#..",
".+%%+$$$$$++@@..",
".+%%%++++++%+#..",
"..+%%%%%%%%%%+..",
"...++%%%%%%%%+..",
".....++++++%+...",
"..........++....",
"..........+....."};
