/* XPM */
static const char * attributeicon[] = {
"18 15 4 1",
" 	c None",
".	c #000000",
"+	c #0000FF",
"@	c #FF0000",
"       .          ",
"      . .         ",
"     .   .        ",
"    .     .       ",
"   .       .      ",
"                  ",
"                  ",
"  +++      @@@    ",
" +++++    @@@@@   ",
" +++++    @@@@@   ",
" +++++    @@@@@   ",
"  +++      @@@    ",
"                  ",
"                  ",
"                  "};

