/* XPM */
static const char * circlemkp_xpm[] = {
"16 15 5 1",
" 	c None",
".	c #C0C0C0",
"+	c #000000",
"@	c #FF0000",
"#	c #FFFFFF",
"................",
"................",
".......++.......",
"...@@@+##+......",
"..@@@@+##+@.....",
".@@@.+##+@@@....",
".@@..+##+.@@....",
"@@..+##+...@@...",
"@@..+##+...@@...",
"@@.+##+....@@...",
"@@.+##+....@@...",
"@@+##+.....@@...",
".@+##+....@@....",
".+@@+....@@@....",
".+@@@@@@@@@....."};
