/* XPM */
static const char * clashdetect[] = {
"19 16 8 1",
" 	c None",
".	c #ACA899",
"+	c #FFFF00",
"@	c #000000",
"#	c #008000",
"$	c #00FF00",
"%	c #800000",
"&	c #FF0000",
"                   ",
"      .   ++@      ",
"    .###.++@@      ",
"   .##$$++@@       ",
"   ###$++@@        ",
"  ####++@@%%.      ",
"  .##++++++@@%     ",
"   #@@@@.+@@&&.    ",
"    ###.+@@&&&&    ",
"     ..+@@&&&&&    ",
"     .+@@%%&&&.    ",
"    @+@@.%%%&%     ",
"     @@  .%%.      ",
"                   ",
"                   ",
"                   "};

