/* XPM */
static char *conceptual_xpm[] = {
/* columns rows colors chars-per-pixel */
"62 63 175 2",
"   c black",
".  c #2E2E16161C1C",
"X  c #252525252525",
"o  c #3D3D3D3D3D3D",
"O  c #2CFA3EA54B4B",
"+  c #2E2E48485151",
"@  c #31B24A4A5656",
"#  c #37374D4D5F5F",
"$  c #38384B4B5656",
"%  c #32325C5C5D5D",
"&  c #3ABB48C96161",
"*  c #3A3A54D56464",
"=  c #3D3D5D5D6D6D",
"-  c #353562E366E7",
";  c #373767676A6A",
":  c #39A065FF6D06",
">  c #38386F6F6F6F",
",  c #3A3A6E6E7171",
"<  c #3F3F72727878",
"1  c #5B5B2A2A3434",
"2  c #575730303939",
"3  c #5A5A30303A3A",
"4  c #6C6C33333333",
"5  c #6B6B3A3A4141",
"6  c #767632324141",
"7  c #7A7A42423434",
"8  c #426D42534264",
"9  c #5F5F4A4A4D4D",
"0  c #505049495656",
"q  c #575757575757",
"w  c #424254546666",
"e  c #41415B5B6D6D",
"r  c #44EF5D07751F",
"t  c #4A8A5CDD7AFA",
"y  c #541457576666",
"u  c #4E4E6B6B6D6D",
"i  c #43EE656576CC",
"p  c #474762627A7A",
"a  c #40406BEC7676",
"s  c #46466D6D7C7C",
"d  c #494963E47AFB",
"f  c #4BE56C397F4C",
"g  c #434370706E6E",
"h  c #424272727C26",
"j  c #474778787777",
"k  c #55556F6F6A6A",
"l  c #5D5D63636969",
"z  c #555564647575",
"x  c #50506E6E7373",
"c  c #575775757A7A",
"v  c #5B5B71717777",
"b  c #63634D4D5050",
"n  c #79795EDF6A6A",
"m  c #707066665D5D",
"M  c #66666B6B6464",
"N  c #6A6A6A6A6A6A",
"B  c #691368687AD0",
"V  c #636379797373",
"C  c #78F960E16BEC",
"Z  c #717167677A7A",
"A  c #7D7D63637373",
"S  c #4E4E65BB82D8",
"D  c #4CFA6D48819A",
"F  c #46467F7F8686",
"G  c #494974748484",
"H  c #4D4D74748989",
"J  c #49497B7B8787",
"K  c #5151646485C5",
"L  c #50866DB886F1",
"P  c #53F56E948BBB",
"I  c #59596BEC8101",
"U  c #57576F6F9090",
"Y  c #59266E0792C5",
"T  c #575770708F8F",
"R  c #58587F7F8383",
"E  c #57577070913B",
"W  c #545478789292",
"Q  c #5AC0707B952F",
"!  c #5A5A80807C7C",
"~  c #696980807979",
"^  c #469C86868A34",
"/  c #47478F0F8F0F",
"(  c #4A4A85858D8D",
")  c #48488F8F8F8F",
"_  c #4C4C8B0B9292",
"`  c #49CA93139313",
"'  c #4F4F97179A9A",
"]  c #53D48B8B8C8C",
"[  c #5C5C84848080",
"{  c #50508E8E9797",
"}  c #585889899E9E",
"|  c #565691918E8E",
" . c #50509E9E9F9F",
".. c #54949C1CA2E2",
"X. c #5252A4A4A4A4",
"o. c #56D6AD82ADAD",
"O. c #5DDEA3E3A5E5",
"+. c #58D9AE2EAF2F",
"@. c #5A5AAF2FB1B1",
"#. c #5ADBB3F3B4F4",
"$. c #5D82BA71BADF",
"%. c #6161A8A8A8A8",
"&. c #61B7BCBCBDBD",
"*. c #62ECC428C4C4",
"=. c #665ECCBDCCBE",
"-. c #838339BA3CBD",
";. c #89893BBC39BA",
":. c #91913F3F3E3E",
">. c #8A8A3B3B4141",
",. c #8D8D3C3C4BCC",
"<. c #939340C13DBE",
"1. c #9E9E46463333",
"2. c #9B9B44443EBF",
"3. c #A4A449493636",
"4. c #A6A649493939",
"5. c #AAAA4AF53CE7",
"6. c #B2B24ECF3ABB",
"7. c #B7B755553F3F",
"8. c #868651514343",
"9. c #8E8E51514141",
"0. c #8D8D53535E5E",
"q. c #8C8C5F5F5050",
"w. c #959541414444",
"e. c #9E48454542ED",
"r. c #9D1D44444B4B",
"t. c #94EA4BA15CB2",
"y. c #9C9C5E5E6B6B",
"u. c #8E8E67675959",
"i. c #8A8A6A6A5D5D",
"p. c #959569695A5A",
"a. c #989866665656",
"s. c #8484626271F2",
"d. c #890961E270F1",
"f. c #919160606F6F",
"g. c #A2F846464DA3",
"h. c #A4A448484A4A",
"j. c #A423464656D7",
"k. c #A72747475A5A",
"l. c #A7A748485C5C",
"z. c #AEAE4B4B5454",
"x. c #AA4349165CF6",
"c. c #ADAD5D5D4949",
"v. c #B2324DCE5454",
"b. c #B4B45E5E4949",
"n. c #BA3A525241C2",
"m. c #BDBD5C5C4545",
"M. c #BEBE56565F5F",
"N. c #A1A15D5D6969",
"B. c #AAAA5B056666",
"V. c #B6AF4E4C6462",
"C. c #B3B359596464",
"Z. c #ACAC60604D4D",
"A. c #C24255D640C1",
"S. c #C7C758584040",
"D. c #CB0A5B5B4343",
"F. c #C4AA55505D5B",
"G. c #D52A5E5E45F0",
"H. c #CECE66664D4D",
"J. c #D7D761614747",
"K. c #D6D663634949",
"L. c #DA5A616146C7",
"P. c #DD25631A4900",
"I. c #E3E36565499F",
"U. c #E8E867674B4B",
"Y. c #838383838383",
"T. c #9D9D9D9D9D9D",
"R. c #ADADADADADAD",
"E. c #BFBFBFBFBFBF",
"W. c #CCCACCCACCCA",
"Q. c #D4D4D4D4D4D4",
"!. c #D9D9D9D9D9D9",
"~. c #E315E315E315",
"^. c #EDD6EDD6EDD6",
"/. c #F401F401F401",
"(. c #FFFAFFFAFFFA",
/* pixels */
"(.(.(.(.(.(.(.(.(.(.(.(.(.(.(.(.(.(.(.(.(.(.(.(.(.(.(.(.(.(.(.(.(.(.(.(.(.(.(.(.(.(.(.(.(.(.(.(.(.(.(.(.(.(.(.(.(.(.(.(.(.(.",
"(.(./.!.Q.W.W.W.W.W.W.W.W.W.W.W.W.W.W.W.W.W.W.W.W.W.W.W.W.W.W.W.W.W.W.W.W.W.W.W.W.W.W.W.W.W.W.W.W.W.W.W.W.W.W.W.W.W.!./.(.(.",
"(./.Q./.(.(.(.(.(.(.(.(.(.(.(.(.(.(.(.(.(.(.(.(.(.(.(.(.(.(.(.(.(.(.(.(.(.(.(.(.(.(.(.(.(.(.(.(.(.(.(.(.(.(.(.(.(.(./.Q.^.(.",
"(.!./.(.(.(.(.(.(.(.(.(.(.(.(.(.(.(.(.(.(.(.(.(.(.(.(.(.(.(.(.(.(.(.(.(.(.(.(.(.(.(.(.(.(.(.(.(.(.(.(.(.(.(.(.(.(.(.(.(.Q.(.",
"(.W.(.(.(.(.(.(.(.(.(.=.=.=.=.=.=.=.=.=.=.=.=.=.=.=.=.=.=.=.=.=.=.=.=.=.=.=.=.=.=.=.=.=.=.=.=.=.=.=.=.=.(.(.(.(.(.(.(.(.W.(.",
"(.W.(.(.(.(.(.(.(.(.(.=.=.=.=.=.=.=.=.=.=.=.=.&.=.=.=.=.=.=.=.=.=.=.=.=.=.=.=.=.=.=.=.=.=.=.=.=.=.=.=.=.(.(.(.(.(.(.(.(.W.(.",
"(.W.(.(.(.(.(.(.(.(.(.=.=.=.=.=.=.=.=.=.=.=.=.- $.=.=.=.=.=.=.=.=.=.=.=.=.=.=.=.=.=.=.=.=.=.=.=.=.=.=.=.(.(.(.(.(.(.(.(.W.(.",
"(.W.(.(.(.(.(.(.(.(.(.=.=.=.=.=.=.=.=.=.=.=.*.e - =.=.=.=.=.=.=.=.=.=.=.=.=.=.=.=.=.=.=.=.=.=.=.=.=.=.=.(.(.(.(.(.(.(.(.W.(.",
"(.W.(.(.(.(.(.(.(.(.(.=.=.=.=.=.=.=.=.=.=.=.} L * o.=.=.=.=.=.=.=.=.=.=.=.=.=.=.=.=.=.=.=.=.=.=.=.=.=.=.(.(.(.(.(.(.(.(.W.(.",
"(.W.(.(.(.(.(.(.(.(.(.=.=.=.=.=.=.=.=.=.=.*.K L D , =.=.=.=.=.=.=.=.=.=.=.=.=.=.=.=.=.=.=.=.=.=.=.=.=.=.(.(.(.(.(.(.(.(.W.(.",
"(.W.(.(.(.(.(.(.(.(.(.=.=.=.=.=.=.=.=.=.=...Q H f : #.=.=.=.=.=.=.=.=.=.@.~ X.=.=.=.=.=.=.=.=.=.=.=.=.=.(.(.(.(.(.(.(.(.W.(.",
"(.W.(.(.(.(.(.(.(.(.(.=.=.=.=.=.=.=.=.=.#.W Q L D d ^ =.=.=.=.=.=.=.=.o.i.7.p.V o.=.=.=.=.=.=.=.=.=.=.=.(.(.(.(.(.(.(.(.W.(.",
"(.W.(.(.(.(.(.(.(.(.(.=.=.=.=.=.=.=.=.=.{ Q E L f f i #.=.=.=.=.=.=.o.u.G.U.I.m.a.M | &.=.=.=.=.=.=.=.=.(.(.(.(.(.(.(.(.W.(.",
"(.W.(.(.(.(.(.(.(.(.(.=.=.=.=.=.=.=.=.=.H Y Q L D D D ) =.=.=.=.=.o.u.G.U.U.U.U.P.D.c.M j $.=.=.=.=.=.=.(.(.(.(.(.(.(.(.W.(.",
"(.W.(.(.(.(.(.(.(.(.(.=.=.=.=.=.=.=.=.` L Q Q L D D d a =.=.=.=./ q.P.U.U.U.U.U.U.U.I.K.H.8.g *.=.=.=.=.(.(.(.(.(.(.(.(.W.(.",
"(.W.(.(.(.(.(.(.(.(.(.=.=.=.=.=.=.=.=.s K Q Y L D D L G ' =.=.c 9.P.I.U.U.U.U.U.U.U.U.U.U.U.P.7 > =.=.=.(.(.(.(.(.(.(.(.W.(.",
"(.W.(.(.(.(.(.(.(.(.(.=.=.=.=.=.=.=./ D Q Q E P D D L r h =.[ b.U.U.U.U.U.U.U.U.U.U.U.U.U.U.U.6.. =.=.=.(.(.(.(.(.(.(.(.W.(.",
"(.W.(.(.(.(.(.(.(.(.(.=.=.=.=.=.=.=.^ K Q Y P D D D D K s k b.U.U.U.U.U.U.U.U.U.U.U.U.U.U.I.6.,.1 =.=.=.(.(.(.(.(.(.(.(.W.(.",
"(.W.(.(.(.(.(.(.(.(.(.=.=.=.=.=.=.o.f P Q Y U L D D D L 0 1.U.U.U.U.U.U.U.U.U.U.U.U.U.U.G.;.,.V.1 =.=.=.(.(.(.(.(.(.(.(.W.(.",
"(.W.(.(.(.(.(.(.(.(.(.=.=.=.=.=.*.( S Y Q E P L D D D * 4 D.P.U.U.U.U.U.U.U.U.U.U.U.U.G.:.j.V.V.1 =.=.=.(.(.(.(.(.(.(.(.W.(.",
"(.W.(.(.(.(.(.(.(.(.(.=.=.=.=.=.+.G Y Q Q Y P L D f D y 4 ;.5.n.P.U.U.U.U.U.U.U.U.U.G.2.j.V.V.V.1 =.=.=.(.(.(.(.(.(.(.(.W.(.",
"(.W.(.(.(.(.(.(.(.(.(.=.=.=.=.=.' t Q Q Q Y P P D D f y >.F.g.<.5.3.S.U.U.U.U.U.P.S.2.j.V.V.V.V.1 =.=.=.(.(.(.(.(.(.(.(.W.(.",
"(.W.(.(.(.(.(.(.(.(.(.=.=.=.=.$.J S Q Q Y U P L D D D y >.F.F.F.g.-.2.5.D.U.U.P.n.,.z.V.V.V.V.V.1 =.=.=.(.(.(.(.(.(.(.(.W.(.",
"(.W.(.(.(.(.(.(.(.(.(.=.=.=.=...r Y Q Q Y U P D D D D y >.F.F.F.F.F.v.r.4.4.S.n.r.l.V.V.V.V.V.V.1 =.=.=.(.(.(.(.(.(.(.(.W.(.",
"(.W.(.(.(.(.(.(.(.(.(.=.=.=.*._ t Q Q Q E T L L D D D z 0.F.F.F.F.F.F.F.v.h.<.>.x.V.V.V.V.V.V.V.1 =.=.=.(.(.(.(.(.(.(.(.W.(.",
"(.W.(.(.(.(.(.(.(.(.(.=.=.=.@.p Y Q Q Q E E L L f G f D s.F.F.F.F.F.F.F.F.F.g.6 V.V.V.V.V.V.V.V.1 =.=.=.(.(.(.(.(.(.(.(.W.(.",
"(.W.(.(.(.(.(.(.(.(.(.=.=.*._ t Q Q Q E E T L L D f D D A F.F.F.F.F.F.F.F.F.v.6 V.V.V.V.V.V.V.V.1 =.=.=.(.(.(.(.(.(.(.(.W.(.",
"(.W.(.(.(.(.(.(.(.(.(.=.=.@.= Y Q Q Q Q T T L L D D D f B B.F.F.F.F.F.F.F.F.z.6 V.V.V.V.V.V.V.V.1 =.=.=.(.(.(.(.(.(.(.(.W.(.",
"(.W.(.(.(.(.(.(.(.(.(.=.=.@.w Q Q Q Q Q T L L L L s f D D d.F.F.F.F.F.F.F.F.z.6 V.V.V.V.V.V.V.V.1 =.=.=.(.(.(.(.(.(.(.(.W.(.",
"(.W.(.(.(.(.(.(.(.(.(.=.&.: Q Q Q Q Q Q T T L L D D D f D d.F.F.F.F.F.F.F.F.z.6 V.V.V.V.V.V.V.V.1 =.=.=.(.(.(.(.(.(.(.(.W.(.",
"(.W.(.(.(.(.(.(.(.(.(.=.#.& Q Q Q Q Q Q T L L D D D f D G B B.F.F.F.F.F.F.F.z.6 V.V.V.V.V.V.V.V.1 =.=.=.(.(.(.(.(.(.(.(.W.(.",
"(.W.(.(.(.(.(.(.(.(.(.=.: Q Q Q Q Q Q Y T T L L D D D f f B f.F.F.F.F.F.F.F.v.6 V.V.V.V.V.V.V.V.2 =.=.=.(.(.(.(.(.(.(.(.W.(.",
"(.W.(.(.(.(.(.(.(.(.(.=.- Q Q Q Q Q Q Q P L L L D D D D D D d.F.F.F.F.F.F.F.z.6 V.V.V.V.V.V.V.t.x =.=.=.(.(.(.(.(.(.(.(.W.(.",
"(.W.(.(.(.(.(.(.(.(.(.*.h Q Q Q Q Q T P T P L L D D f D D D I C.F.F.F.F.F.F.z.6 V.V.V.V.V.l.t.c =.=.=.=.(.(.(.(.(.(.(.(.W.(.",
"(.W.(.(.(.(.(.(.(.(.(.=...K Q Q Q Q Q Q P L L D D D D f D D v N.F.F.F.F.F.F.z.6 V.V.V.V.l.n R *.=.=.=.=.(.(.(.(.(.(.(.(.W.(.",
"(.W.(.(.(.(.(.(.(.(.(.=.&.e Q Q Q Q P P P P L L D f f D D D D f.F.F.F.F.F.F.z.6 V.V.V.l.n O.=.=.=.=.=.=.(.(.(.(.(.(.(.(.W.(.",
"(.W.(.(.(.(.(.(.(.(.(.=.*.' r K Q Q P E P P L D D f D f D D f Z C.F.F.F.F.F.z.6 V.V.l.n O.*.=.=.=.=.=.=.(.(.(.(.(.(.(.(.W.(.",
"(.W.(.(.(.(.(.(.(.(.(.=.=.*...H K U E P P L L L D f f D D s i $ 5 r.F.F.F.F.z.6 V.l.n O.*.=.=.=.=.=.=.=.(.(.(.(.(.(.(.(.W.(.",
"(.W.(.(.(.(.(.(.(.(.(.=.=.=.=.o.h # t E P L D D D s f D i @ <  .%.u b r.F.F.z.6 t.l O.=.=.=.=.=.=.=.=.=.(.(.(.(.(.(.(.(.W.(.",
"(.W.(.(.(.(.(.(.(.(.(.=.=.=.=.*.*.$.^ : @ O O O O O + - ^ $.&.=.=.*.&.] 9 r.z.3 v *.=.=.=.=.=.=.=.=.=.=.(.(.(.(.(.(.(.(.W.(.",
"(.W.(.(.(.(.(.(.(.(.(.=.=.=.=.=.=.=.*.*.*.*.*.*.*.*.*.*.=.=.=.=.=.=.=.=.*.] 8 % *.=.=.=.=.=.=.=.=.=.=.=.(.(.(.(.(.(.(.(.W.(.",
"(.W.(.(.(.(.(.(.(.(.(.=.=.=.=.=.=.=.=.=.=.=.=.=.=.=.=.=.=.=.=.=.=.=.=.=.=.=.=.=.=.=.=.=.=.=.=.=.=.=.=.=.(.(.(.(.(.(.(.(.W.(.",
"(.W.(.(.(.(.(.(.(.(.(.=.=.=.=.=.=.=.=.=.=.=.=.=.=.=.=.=.=.=.=.=.=.=.=.=.=.=.=.=.=.=.=.=.=.=.=.=.=.=.=.=.(.(.(.(.(.(.(.(.W.(.",
"(.W.(.(.(.(.(.(.(.(.(.=.=.=.=.=.=.=.=.=.=.=.=.=.=.=.=.=.=.=.=.=.=.=.=.=.=.=.=.=.=.=.=.=.=.=.=.=.=.=.=.=.(.(.(.(.(.(.(.(.W.(.",
"(.W.(.(.(.(.(.(.(.(.(.=.=.=.=.=.=.=.=.=.=.=.=.=.=.=.=.=.=.=.=.=.=.=.=.=.=.=.=.=.=.=.=.=.=.=.=.=.=.=.=.=.(.(.(.(.(.(.(.(.W.(.",
"(.W.(.(.(.(.(.(.(.(.(.(.(.(.(.(.(.(.(.(.(.(.(.(.(.(.(.(.(.(.(.(.(.(.(.(.(.(.(.(.(.(.(.(.(.(.(.(.(.(.(.(.(.(.(.(.(.(.(.(.W.(.",
"(.W.(.(.(.(.(.(.(.(.(.(.(.(.(.(.(.(.(.(.(.(.(.(.(.(.(.(.(.(.(.(.(.(.(.(.(.(.(.(.(.(.(.(.(.(.(.(.(.(.(.(.(.(.(.(.(.(.(.(.W.(.",
"(.W.(.(.(.(.(.(.(.(.(.(.(.(.(.(.(.(.(.(.(.(.(.(.(.(.(.(.(.(.(.(.(.(.(.(.(.(.(.(.(.(.(.(.(.(.(.(.(.(.(.(.(.(.(.(.8 E.(.(.W.(.",
"(.W.(.(.(.(.8       !.(.(.(.(.(.(.(.(.(.(.(.(.(.(.(.(.(.(.(.(.(.(.(.(.(.(.(.(.(.W.N (.(.(.(.(.(.(.(.(.(.(.(.(.(.8 E.(.(.W.(.",
"(.W.(.(.(.8 T.(.(.~.N (.(.(.(.(.(.(.(.(.(.(.(.(.(.(.(.(.(.(.(.(.(.(.(.(.(.(.(.(.W.N (.(.(.(.(.(.(.(.(.(.(.(.(.(.8 E.(.(.W.(.",
"(.W.(.(.W.o /.(.(.(.(.(.8     T.(.R.o X   N (.(.8     N (.R.    N (.R.      o ~.X     T.8 !.(.^.X ^.R.      !.(.8 E.(.(.W.(.",
"(.W.(.(.R.T.(.(.(.(.(.R.T.(.(.8 !.R.  ^.(.8 !.R.N (.(.(.W.T.(.(.Y.E.R.o /.(.o W.W.N (.(.8 Q.(./.X ^.(.(.(.W.o /.8 E.(.(.W.(.",
"(.W.(.(.R.T.(.(.(.(.(.8 Q.(.(.R.T.R.N (.(.Y.E.8 !.(.(.(.Y.        T.R.N (.(.R.T.W.N (.(.8 Q.(.^.X ^.^.X     o /.8 E.(.(.W.(.",
"(.W.(.(.W.o /.(.(.(.(.8 !.(.(.R.T.R.N (.(.Y.E.8 !.(.(.(.Y.E.(.(.(.(.R.N (.(.R.T.W.N (.(.8 !.(./.X !.X W.(.~.8 /.8 E.(.(.W.(.",
"(.W.(.(.(.8 T.(.(.~.N R.N (./.X E.R.N (.(.Y.E.R.N (.(.(.W.o /.(.W.E.R.N (.(.8 E.W.N (.(.Y.W.(.W.  !.X ^.(.R.o /.8 E.(.(.W.(.",
"(.W.(.(.(.(.8       !.(.8     T.(.R.N (.(.Y.E.(.8     N (.R.      E.R.      T.(./.X   T.!.    o X /.R.    q 8 /.o E.(.(.W.(.",
"(.W.(.(.(.(.(.(.(.(.(.(.(.(.(.(.(.(.(.(.(.(.(.(.(.(.(.(.(.(.(.(.(.(.R.N (.(.(.(.(.(.(.(.(.(.(.(.(.(.(.(.(.(.(.(.(.(.(.(.W.(.",
"(.W.(.(.(.(.(.(.(.(.(.(.(.(.(.(.(.(.(.(.(.(.(.(.(.(.(.(.(.(.(.(.(.(.R.N (.(.(.(.(.(.(.(.(.(.(.(.(.(.(.(.(.(.(.(.(.(.(.(.W.(.",
"(.!./.(.(.(.(.(.(.(.(.(.(.(.(.(.(.(.(.(.(.(.(.(.(.(.(.(.(.(.(.(.(.(.(.(.(.(.(.(.(.(.(.(.(.(.(.(.(.(.(.(.(.(.(.(.(.(.(.(.Q.(.",
"(.^.!.(.(.(.(.(.(.(.(.(.(.(.(.(.(.(.(.(.(.(.(.(.(.(.(.(.(.(.(.(.(.(.(.(.(.(.(.(.(.(.(.(.(.(.(.(.(.(.(.(.(.(.(.(.(.(.(.!.^.(.",
"(.(.^.Q.W.W.W.W.W.W.W.W.W.W.W.W.W.W.W.W.W.W.W.W.W.W.W.W.W.W.W.W.W.W.W.W.W.W.W.W.W.W.W.W.W.W.W.W.W.W.W.W.W.W.W.W.W.W.Q.~.(.(.",
"(.(.(.(.(.(.(.(.(.(.(.(.(.(.(.(.(.(.(.(.(.(.(.(.(.(.(.(.(.(.(.(.(.(.(.(.(.(.(.(.(.(.(.(.(.(.(.(.(.(.(.(.(.(.(.(.(.(.(.(.(.(.",
"(.(.(.(.(.(.(.(.(.(.(.(.(.(.(.(.(.(.(.(.(.(.(.(.(.(.(.(.(.(.(.(.(.(.(.(.(.(.(.(.(.(.(.(.(.(.(.(.(.(.(.(.(.(.(.(.(.(.(.(.(.(."
};
