/* XPM */
static const char *curvature_xpm[] = {
/* width height num_colors chars_per_pixel */
"    16    16        3            1",
/* colors */
". c #000000",
"# c #c0c0c0",
"a c #ffffff",
/* pixels */
"################",
"########...#####",
"#######.aa...###",
"######....aaa.##",
"#####.a.aa.a.a.#",
"####.aa.aaa..aa.",
"###..a.aaa.aa.a.",
"##.a.....a.aaa.#",
"#.a.aa.aa...aa.#",
"#.a.a.aaa.aa...#",
".a......a.aaa..#",
"..######..aaa.##",
"#########..aa.##",
"###########...##",
"#############.##",
"################"
};
