/* XPM */
static const char * cutting_xpm[] = {
"16 16 5 1",
" 	c None",
".	c #C0C0C0",
"+	c #808000",
"@	c #000000",
"#	c #FFFF00",
"................",
"..++++++++++++@.",
"..+...+...+...@.",
"..+.#.+.#.+.#.@.",
"..+...+...+...@.",
"..++++++++++++@.",
"..+...+...+...@.",
"..+.#.+.#.+.#.@.",
"..+...+...+...@.",
"..++++++++++++@.",
"..+...+...+...@.",
"..+.#.+.#.+.#.@.",
"..+...+...+...@.",
"..@@@@@@@@@@@@@.",
"................",
"................"};
