/* XPM */
static const char * flat_xpm[] = {
"16 16 6 1",
" 	c None",
".	c #C0C0C0",
"+	c #808000",
"@	c #000000",
"#	c #FFFF00",
"$	c #FFFFFF",
".....++++@@@@...",
"...++#+#+$.$.@@.",
"..++#+#+$.#$.$.@",
"..+@@#+#+$.$.$@@",
"..+..@@@@@@@@@@@",
"..++#.+#$$@.++@@",
"..+..#+$$#@..+@@",
"..++#.+$$$@.++@@",
"..+..#+$$#@..+@@",
"..++#.+#$$@.++@@",
"..+..#+$$#@..+@@",
"..++#.+$$$@.++@@",
"..+..#+$$#@..+@@",
"...++.+#$$@.+@@.",
".....+++@@@@@...",
"................"};
