/* XPM */
static const char * front_xpm[] = {
"16 15 4 1",
" 	c None",
".	c #C0C0C0",
"+	c #000000",
"@	c #FFFF00",
"................",
"................",
"......+++++++...",
".....++....++...",
"....+.+...+.+...",
"...+..+..+..+...",
"..+++++++...+...",
"..+@@@@@+...+...",
"..+@@@@@+++++...",
"..+@@@@@+..+....",
"..+@@@@@+.+.....",
"..+@@@@@++......",
"..+++++++.......",
"................",
"................"};
