/* XPM */
static const char * geomicon[] = {
"16 17 3 1",
" 	c None",
".	c #808080",
"+	c #C0C0C0",
"                ",
"          ..    ",
"  +++    .++.   ",
" +   +   .++.   ",
"+     +  .++.   ",
"+     +   ..    ",
"+     +         ",
" +   +          ",
"  +++  ......   ",
"       ......   ",
"   +   ......   ",
"  + +  ......   ",
"  + +  ......   ",
"  + +           ",
"  + +           ",
"   +            ",
"                "};

