/* XPM */
static char *hidden3D_xpm[] = {
/* columns rows colors chars-per-pixel */
"61 63 182 2",
"   c #37376F6FB9B9",
".  c #38387070B9B9",
"X  c #39397272B9B9",
"o  c #3A3A7575BABA",
"O  c #3B3B7777BABA",
"+  c #3D3D7A7ABBBB",
"@  c #3F3F7D7DBCBC",
"#  c #76767B7B9797",
"$  c #41418383BDBD",
"%  c #43438585BDBD",
"&  c #43438585BEBE",
"*  c #43438686BEBE",
"=  c #44448787BEBE",
"-  c #44448888BFBF",
";  c #46468D8DBFBF",
":  c #47478E8EBFBF",
">  c #47478F8FBFBF",
",  c #50509898BFBF",
"<  c #7E7E80809595",
"1  c #7C7C8B8B9C9C",
"2  c #6565A3A3B8B8",
"3  c #7F7FA9A9A9A9",
"4  c #7E7EABABABAB",
"5  c #7F7FABABABAB",
"6  c #7D7DACACACAC",
"7  c #7D7DADADADAD",
"8  c #7C7CAEAEAEAE",
"9  c #7C7CAFAFAFAF",
"0  c #7D7DAEAEAEAE",
"q  c #7E7EACACACAC",
"w  c #7676B2B2B4B4",
"e  c #7777B4B4B4B4",
"r  c #7676B6B6B6B6",
"t  c #7676B7B7B7B7",
"y  c #7272BBBBBBBB",
"u  c #7373BABABABA",
"i  c #7373BBBBBBBB",
"p  c #7171BDBDBDBD",
"a  c #7070BEBEBEBE",
"s  c #7070BFBFBFBF",
"d  c #7272BCBCBCBC",
"f  c #7272BDBDBDBD",
"g  c #7474B8B8B8B8",
"h  c #7474B9B9B9B9",
"j  c #7979B3B3B3B3",
"k  c #7B7BB0B0B0B0",
"l  c #7B7BB1B1B1B1",
"z  c #7878B4B4B4B4",
"x  c #48488F8FC0C0",
"c  c #48489191C0C0",
"v  c #49499191C0C0",
"b  c #49499292C0C0",
"n  c #4A4A9393C0C0",
"m  c #4A4A9494C1C1",
"M  c #4B4B9696C1C1",
"N  c #4C4C9898C2C2",
"B  c #4D4D9999C2C2",
"V  c #4C4C9A9AC2C2",
"C  c #4D4D9B9BC2C2",
"Z  c #4E4E9D9DC3C3",
"A  c #4F4F9E9EC3C3",
"S  c #4F4F9F9FC3C3",
"D  c #5050A0A0C3C3",
"F  c #5252A5A5C4C4",
"G  c #5353A7A7C5C5",
"H  c #5454A7A7C4C4",
"J  c #5454A8A8C4C4",
"K  c #5454A9A9C5C5",
"L  c #5555ABABC5C5",
"P  c #5656ACACC5C5",
"I  c #5757ADADC5C5",
"U  c #5656ACACC6C6",
"Y  c #5656ADADC6C6",
"T  c #5757AEAEC6C6",
"R  c #5959B1B1C6C6",
"E  c #5858B2B2C6C6",
"W  c #5959B2B2C7C7",
"Q  c #5959B3B3C7C7",
"!  c #5A5AB3B3C7C7",
"~  c #5A5AB4B4C7C7",
"^  c #5B5BB6B6C7C7",
"/  c #5A5AB6B6C8C8",
"(  c #5B5BB6B6C8C8",
")  c #5B5BB8B8C8C8",
"_  c #5C5CB8B8C8C8",
"`  c #5C5CB9B9C8C8",
"'  c #5D5DBABAC8C8",
"]  c #5E5EBBBBC8C8",
"[  c #5E5EBDBDC9C9",
"{  c #5F5FBDBDC9C9",
"}  c #5F5FBEBEC9C9",
"|  c #6060C0C0CACA",
" . c #6060C1C1CACA",
".. c #6161C1C1CACA",
"X. c #6161C2C2CACA",
"o. c #6161C3C3CACA",
"O. c #6262C3C3CACA",
"+. c #6262C4C4CACA",
"@. c #6363C5C5CBCB",
"#. c #6363C6C6CBCB",
"$. c #6464C7C7CBCB",
"%. c #6464C8C8CBCB",
"&. c #6464C9C9CBCB",
"*. c #6565CACACBCB",
"=. c #6666CBCBCBCB",
"-. c #6767CACACACA",
";. c #6565C9C9CCCC",
":. c #6565CACACCCC",
">. c #6565CBCBCCCC",
",. c #6666CBCBCCCC",
"<. c #6666CCCCCCCC",
"1. c #6969C7C7C7C7",
"2. c #6B6BC5C5C5C5",
"3. c #6A6AC6C6C6C6",
"4. c #6A6AC7C7C7C7",
"5. c #6B6BC6C6C6C6",
"6. c #6D6DC3C3C3C3",
"7. c #6E6EC0C0C0C0",
"8. c #6E6EC1C1C1C1",
"9. c #6F6FC0C0C0C0",
"0. c #6C6CC4C4C4C4",
"q. c #6C6CC5C5C5C5",
"w. c #6868C9C9C9C9",
"e. c #6969C8C8C8C8",
"r. c #6969C9C9C9C9",
"t. c #9F9F7F7F7F7F",
"y. c #ABAB6F6F6F6F",
"u. c #AFAF6A6A6A6A",
"i. c #ACAC6F6F6F6F",
"p. c #A5A577777777",
"a. c #A6A676767676",
"s. c #A0A07E7E7E7E",
"d. c #A2A27C7C7C7C",
"f. c #A8A873737373",
"g. c #A8A874747474",
"h. c #B6B661616161",
"j. c #B7B760606060",
"k. c #B1B168686868",
"l. c #D7D735353535",
"z. c #96967B7B8383",
"x. c #838389899797",
"c. c #87879F9F9F9F",
"v. c #8D8D97979797",
"b. c #8F8F95959595",
"n. c #8E8E96969696",
"m. c #8A8A9B9B9B9B",
"M. c #8B8B9A9A9A9A",
"N. c #8B8B9B9B9B9B",
"B. c #89899C9C9C9C",
"V. c #89899D9D9D9D",
"C. c #88889E9E9E9E",
"Z. c #88889F9F9F9F",
"A. c #89899E9E9E9E",
"S. c #8C8C98989898",
"D. c #8C8C99999999",
"F. c #8C8C9A9A9A9A",
"G. c #93938F8F8F8F",
"H. c #96968B8B8B8B",
"J. c #97978A8A8A8A",
"K. c #94948F8F8F8F",
"L. c #95958E8E8E8E",
"P. c #999987878787",
"I. c #9B9B85858585",
"U. c #9A9A86868686",
"Y. c #9D9D83838383",
"T. c #9C9C84848484",
"R. c #989888888888",
"E. c #909093939393",
"W. c #919192929292",
"Q. c #939390909090",
"!. c #929292929292",
"~. c #8282A6A6A6A6",
"^. c #8383A6A6A6A6",
"/. c #8484A3A3A3A3",
"(. c #8585A2A2A2A2",
"). c #8686A1A1A1A1",
"_. c #8787A0A0A0A0",
"`. c #8484A4A4A4A4",
"'. c #8080A9A9A9A9",
"]. c #8181A8A8A8A8",
"[. c #8181A9A9A9A9",
"{. c #E4E4E4E4E4E4",
/* pixels */
"{.{.{.{.{.{.{.{.{.{.{.{.{.{.{.{.{.{.{.{.{.{.{.{.{.{.{.{.{.{.{.{.{.{.{.{.{.{.{.{.{.{.{.{.{.{.{.{.{.{.{.{.{.{.{.{.{.{.{.{.{.",
"{.{.{.{.{.{.{.{.{.{.{.{.{.{.{.{.{.{.{.{.{.{.{.{.{.{.{.{.{.{.{.{.{.{.{.{.{.{.{.{.{.{.{.{.{.{.{.{.{.{.{.{.{.{.{.{.{.{.{.{.{.",
"{.{.{.{.{.{.{.{.{.{.{.{.{.{.{.{.{.{.{.{.{.{.{.{.{.{.{.{.{.{.{.{.{.{.{.{.{.{.{.{.{.{.{.{.{.{.{.{.{.{.{.{.{.{.{.{.{.{.{.{.{.",
"{.{.{.{.{.{.{.{.{.{.{.{.{.{.{.{.{.{.{.{.{.{.{.{.{.{.{.{.{.{.{.{.{.{.{.{.{.{.{.{.{.{.{.{.{.{.{.{.{.{.{.{.{.{.{.{.{.{.{.{.{.",
"{.{.{.{.{.{.{.{.{.{.{.{.{.{.{.{.{.{.{.{.{.{.{.{.{.{.{.{.{.{.{.{.{.{.{.{.{.{.{.{.{.{.{.{.{.{.{.{.{.{.{.{.{.{.{.{.{.{.{.{.{.",
"{.{.{.{.{.{.{.{.{.{.{.<.<.<.<.<.<.<.<.<.<.<.<.<.<.<.<.<.<.<.<.<.<.<.<.<.<.<.<.<.<.<.<.<.<.<.<.<.<.<.<.<.{.{.{.{.{.{.{.{.{.",
"{.{.{.{.{.{.{.{.{.{.{.<.<.<.<.<.<.<.<.<.<.<.<.| <.<.<.<.<.<.<.<.<.<.<.<.<.<.<.<.<.<.<.<.<.<.<.<.<.<.<.<.{.{.{.{.{.{.{.{.{.",
"{.{.{.{.{.{.{.{.{.{.{.<.<.<.<.<.<.<.<.<.<.<.<.. ' <.<.<.<.<.<.<.<.<.<.<.<.<.<.<.<.<.<.<.<.<.<.<.<.<.<.<.{.{.{.{.{.{.{.{.{.",
"{.{.{.{.{.{.{.{.{.{.{.<.<.<.<.<.<.<.<.<.<.<.<.F   <.<.<.<.<.<.<.<.<.<.<.<.<.<.<.<.<.<.<.<.<.<.<.<.<.<.<.{.{.{.{.{.{.{.{.{.",
"{.{.{.{.{.{.{.{.{.{.{.<.<.<.<.<.<.<.<.<.<.<.] <.; I <.<.<.<.<.<.<.<.<.<.<.<.<.<.<.<.<.<.<.<.<.<.<.<.<.<.{.{.{.{.{.{.{.{.{.",
"{.{.{.{.{.{.{.{.{.{.{.<.<.<.<.<.<.<.<.<.<.<.! <.| O <.<.<.<.<.<.<.<.<.<.<.<.<.<.<.<.<.<.<.<.<.<.<.<.<.<.{.{.{.{.{.{.{.{.{.",
"{.{.{.{.{.{.{.{.{.{.{.<.<.<.<.<.<.<.<.<.<.( >.<.$.- ) <.<.<.<.<.<.<.<.<.j S.).<.<.<.<.<.<.<.<.<.<.<.<.<.{.{.{.{.{.{.{.{.{.",
"{.{.{.{.{.{.{.{.{.{.{.<.<.<.<.<.<.<.<.<.~ ( >.<.<.I ; <.<.<.<.<.<.<.<.8 F.`._.G.^.<.<.<.<.<.<.<.<.<.<.<.{.{.{.{.{.{.{.{.{.",
"{.{.{.{.{.{.{.{.{.{.{.<.<.<.<.<.<.<.<.<.F +.<.<.<.| c ~ <.<.<.<.<.<.9 F.f <.4.3 B.U.F.s <.<.<.<.<.<.<.<.{.{.{.{.{.{.{.{.{.",
"{.{.{.{.{.{.{.{.{.{.{.<.<.<.<.<.<.<.<.<.F | <.<.<.>.I x <.<.<.<.<.3 N.s <.<.<.<.6.e /.J.s.u <.<.<.<.<.<.{.{.{.{.{.{.{.{.{.",
"{.{.{.{.{.{.{.{.{.{.{.<.<.<.<.<.<.<.<.c ! >.<.<.<.<.! - <.<.<.<.L.W.s <.<.<.<.<.<.<.4.s y P.a.4.<.<.<.<.{.{.{.{.{.{.{.{.{.",
"{.{.{.{.{.{.{.{.{.{.{.<.<.<.<.<.<.<.<.* ( <.<.<.<.<.>.G m <.<.G.J.f <.<.<.<.<.<.<.<.<.<.<.4.6.a.y.<.<.<.{.{.{.{.{.{.{.{.{.",
"{.{.{.{.{.{.{.{.{.{.{.<.<.<.<.<.<.<.; I <.<.<.<.<.<.<.I x <.W.3 <.<.<.<.<.<.<.<.<.<.<.<.<.<.<.N.l.<.<.<.{.{.{.{.{.{.{.{.{.",
"{.{.{.{.{.{.{.{.{.{.{.<.<.<.<.<.<.>.c I <.<.<.<.<.<.<.] , < /.<.<.<.<.<.<.<.<.<.<.<.<.<.<.2._.B.k.<.<.<.{.{.{.{.{.{.{.{.{.",
"{.{.{.{.{.{.{.{.{.{.{.<.<.<.<.<.<.I Z ] <.<.<.<.<.<.<.2.x.1 <.<.<.<.<.<.<.<.<.<.<.<.<.<.7.U.F.r.k.<.<.<.{.{.{.{.{.{.{.{.{.",
"{.{.{.{.{.{.{.{.{.{.{.<.<.<.<.<.#.N L <.<.<.<.<.<.<.<.Z.y.j 8.<.<.<.<.<.<.<.<.<.<.<.<.y Q.y <.<.k.<.<.<.{.{.{.{.{.{.{.{.{.",
"{.{.{.{.{.{.{.{.{.{.{.<.<.<.<.<.I N ] <.<.<.<.<.<.<.<.5 f.P.B.3 6.<.<.<.<.<.<.<.<.<.u b.t <.<.<.k.<.<.<.{.{.{.{.{.{.{.{.{.",
"{.{.{.{.{.{.{.{.{.{.{.<.<.<.<.<.S V <.<.<.<.<.<.<.<.<.5 G.<.3 G._.E.z <.<.<.<.<.6.9 S.e <.<.<.<.k.<.<.<.{.{.{.{.{.{.{.{.{.",
"{.{.{.{.{.{.{.{.{.{.{.<.<.<.<.' N ( <.<.<.<.<.<.<.<.<.5 G.<.<.<./.Y.b.F.z <.<.q.3 F.z <.<.<.<.<.k.<.<.<.{.{.{.{.{.{.{.{.{.",
"{.{.{.{.{.{.{.{.{.{.{.<.<.<.<.J m <.<.<.<.<.<.<.<.<.<.3 G.<.<.<.<.<.g ).S.S.8 3 `.7.<.<.<.<.<.<.k.<.<.<.{.{.{.{.{.{.{.{.{.",
"{.{.{.{.{.{.{.{.{.{.{.<.<.<.| A H <.<.<.<.<.<.<.<.<.<.8.g <.<.<.<.<.<.<.u /.b.J.8.<.<.<.<.<.<.<.k.<.<.<.{.{.{.{.{.{.{.{.{.",
"{.{.{.{.{.{.{.{.{.{.{.<.<.>.! : | <.<.<.<.<.<.<.<.<.<.<.<.<.<.<.<.<.<.<.<.<.3 Y.<.<.<.<.<.<.<.<.k.<.<.<.{.{.{.{.{.{.{.{.{.",
"{.{.{.{.{.{.{.{.{.{.{.<.<.$.Z F <.<.<.<.<.<.<.<.<.<.<.<.<.<.<.<.<.<.<.<.<.<.t Y.<.<.<.<.<.<.<.<.k.<.<.<.{.{.{.{.{.{.{.{.{.",
"{.{.{.{.{.{.{.{.{.{.{.<.>.' % *.<.<.<.<.<.<.<.<.<.<.<.<.<.<.<.<.<.<.<.<.<.<.t I.<.<.<.<.<.<.<.<.k.<.<.<.{.{.{.{.{.{.{.{.{.",
"{.{.{.{.{.{.{.{.{.{.{.<.>.' $ <.<.<.<.<.<.<.<.<.<.<.<.<.<.<.<.<.<.<.<.<.<.<.r Y.<.<.<.<.<.<.<.<.k.<.<.<.{.{.{.{.{.{.{.{.{.",
"{.{.{.{.{.{.{.{.{.{.{.<.| + <.<.<.<.<.<.<.<.<.<.<.<.<.<.<.<.<.<.<.<.<.<.<.<.t Y.<.<.<.<.<.<.<.<.k.<.<.<.{.{.{.{.{.{.{.{.{.",
"{.{.{.{.{.{.{.{.{.{.{.>.( % <.<.<.<.<.<.<.<.<.<.<.<.<.<.<.<.<.<.<.<.<.<.<.<.t Y.<.<.<.<.<.<.<.<.k.<.<.<.{.{.{.{.{.{.{.{.{.",
"{.{.{.{.{.{.{.{.{.{.{.$.. <.<.<.<.<.<.<.<.<.<.<.<.<.<.<.<.<.<.<.<.<.<.<.<.<.t Y.<.<.<.<.<.<.<.<.k.<.<.<.{.{.{.{.{.{.{.{.{.",
"{.{.{.{.{.{.{.{.{.{.{.*.. <.<.<.<.<.<.<.<.<.<.<.<.<.<.<.<.<.<.<.<.<.<.<.<.<.t Y.<.<.<.<.<.<.<.l I.<.<.<.{.{.{.{.{.{.{.{.{.",
"{.{.{.{.{.{.{.{.{.{.{.*.* <.<.<.<.<.<.<.<.<.<.<.<.<.<.<.<.<.<.<.<.<.<.<.<.<.t T.<.<.<.<.<.s 3 L.<.<.<.<.{.{.{.{.{.{.{.{.{.",
"{.{.{.{.{.{.{.{.{.{.{.>.I J <.<.<.<.<.<.<.<.<.<.<.<.<.<.<.<.<.<.<.<.<.<.<.<.t T.<.<.<.<.f Z.E.4.<.<.<.<.{.{.{.{.{.{.{.{.{.",
"{.{.{.{.{.{.{.{.{.{.{.<.| + <.<.<.<.<.<.<.<.<.<.<.<.<.<.<.<.>.>.<.<.<.<.<.<.t Y.<.<.<.y _.9 r.<.<.<.<.<.{.{.{.{.{.{.{.{.{.",
"{.{.{.{.{.{.{.{.{.{.{.<.$.D m ' <.>.<.<.<.<.<.<.<.<.<.<.<.<.>.>.<.<.<.<.<.<.t Y.<.<.y _.9 4.<.<.<.<.<.<.{.{.{.{.{.{.{.{.{.",
"{.{.{.{.{.{.{.{.{.{.{.<.<.+.H Z ' >.<.<.<.<.<.<.<.<.<.<.<.>.' # z._.4.<.<.<.t Y.<.f _.9 4.<.<.<.<.<.<.<.{.{.{.{.{.{.{.{.{.",
"{.{.{.{.{.{.{.{.{.{.{.<.<.<.*.! x @ T <.<.<.<.<.<.<.<.<.I @ x 2 w z.d.`.<.<.t Y.9 J.0 4.<.<.<.<.<.<.<.<.{.{.{.{.{.{.{.{.{.",
"{.{.{.{.{.{.{.{.{.{.{.<.<.<.<.>.| { c O . O O . O O O . c { | >.<.7.f N.p.^.t k.Q.8.*.<.<.<.<.<.<.<.<.<.{.{.{.{.{.{.{.{.{.",
"{.{.{.{.{.{.{.{.{.{.{.<.<.<.<.<.<.<.>.@.@.@.@.@.O.@.@.$.>.<.<.<.<.<.<.r.6.E.h.j.4.<.<.<.<.<.<.<.<.<.<.<.{.{.{.{.{.{.{.{.{.",
"{.{.{.{.{.{.{.{.{.{.{.<.<.<.<.<.<.<.<.<.<.<.<.<.>.<.<.<.>.<.<.<.<.<.<.<.<.<.<.<.<.<.<.<.<.<.<.<.<.<.<.<.{.{.{.{.{.{.{.{.{.",
"{.{.{.{.{.{.{.{.{.{.{.<.<.<.<.<.<.<.<.<.<.<.<.<.<.<.<.<.<.<.<.<.<.<.<.<.<.<.<.<.<.<.<.<.<.<.<.<.<.<.<.<.{.{.{.{.{.{.{.{.{.",
"{.{.{.{.{.{.{.{.{.{.{.<.<.<.<.<.<.<.<.<.<.<.<.<.<.<.<.<.<.<.<.<.<.<.<.<.<.<.<.<.<.<.<.<.<.<.<.<.<.<.<.<.{.{.{.{.{.{.{.{.{.",
"{.{.{.{.{.{.{.{.{.{.{.<.<.<.<.<.<.<.<.<.<.<.<.<.<.<.<.<.<.<.<.<.<.<.<.<.<.<.<.<.<.<.<.<.<.<.<.<.<.<.<.<.{.{.{.{.{.{.{.{.{.",
"{.{.{.{.{.{.{.{.{.{.{.{.{.{.{.{.{.{.{.{.{.{.{.{.{.{.{.{.{.{.{.{.{.{.{.{.{.{.{.{.{.{.{.{.{.{.{.{.{.{.{.{.{.{.{.{.{.{.{.{.{.",
"{.{.{.{.{.{.{.{.{.{.{.{.{.{.{.{.{.{.{.{.{.{.{.{.{.{.{.{.{.{.{.{.{.{.{.{.{.{.{.{.{.{.{.{.{.{.{.{.{.{.{.{.{.{.{.{.{.{.{.{.{.",
"{.{.{.{.{.{.{.{.{.{.{.{.{.{.{.{.{.{.{.{.{.{.{.{.{.{.{.{.{.{.{.{.{.{.{.{.{.{.{.{.{.{.{.{.{.{.{.{.{.{.{.{.{.{.{.{.{.{.{.{.{.",
"{.{.{.{.{.{.{.{.{.{.{.{.{.{.{.{.{.{.{.{.{.{.{.{.{.{.{.{.{.{.{.{.{.{.{.{.{.{.{.{.{.{.{.{.{.{.{.{.{.{.{.{.{.{.{.{.{.{.{.{.{.",
"{.{.{.{.{.{.{.{.{.{.{.{.{.{.{.{.{.{.{.{.{.{.{.{.{.{.{.{.{.{.{.{.{.{.{.{.{.{.{.{.{.{.{.{.{.{.{.{.{.{.{.{.{.{.{.{.{.{.{.{.{.",
"{.{.{.{.{.{.{.{.{.{.{.{.{.{.{.{.{.{.{.{.{.{.{.{.{.{.{.{.{.{.{.{.{.{.{.{.{.{.{.{.{.{.{.{.{.{.{.{.{.{.{.{.{.{.{.{.{.{.{.{.{.",
"{.{.{.{.{.{.{.{.{.{.{.{.{.{.{.{.{.{.{.{.{.{.{.{.{.{.{.{.{.{.{.{.{.{.{.{.{.{.{.{.{.{.{.{.{.{.{.{.{.{.{.{.{.{.{.{.{.{.{.{.{.",
"{.{.{.{.{.{.{.{.{.{.{.{.{.{.{.{.{.{.{.{.{.{.{.{.{.{.{.{.{.{.{.{.{.{.{.{.{.{.{.{.{.{.{.{.{.{.{.{.{.{.{.{.{.{.{.{.{.{.{.{.{.",
"{.{.{.{.{.{.{.{.{.{.{.{.{.{.{.{.{.{.{.{.{.{.{.{.{.{.{.{.{.{.{.{.{.{.{.{.{.{.{.{.{.{.{.{.{.{.{.{.{.{.{.{.{.{.{.{.{.{.{.{.{.",
"{.{.{.{.{.{.{.{.{.{.{.{.{.{.{.{.{.{.{.{.{.{.{.{.{.{.{.{.{.{.{.{.{.{.{.{.{.{.{.{.{.{.{.{.{.{.{.{.{.{.{.{.{.{.{.{.{.{.{.{.{.",
"{.{.{.{.{.{.{.{.{.{.{.{.{.{.{.{.{.{.{.{.{.{.{.{.{.{.{.{.{.{.{.{.{.{.{.{.{.{.{.{.{.{.{.{.{.{.{.{.{.{.{.{.{.{.{.{.{.{.{.{.{.",
"{.{.{.{.{.{.{.{.{.{.{.{.{.{.{.{.{.{.{.{.{.{.{.{.{.{.{.{.{.{.{.{.{.{.{.{.{.{.{.{.{.{.{.{.{.{.{.{.{.{.{.{.{.{.{.{.{.{.{.{.{.",
"{.{.{.{.{.{.{.{.{.{.{.{.{.{.{.{.{.{.{.{.{.{.{.{.{.{.{.{.{.{.{.{.{.{.{.{.{.{.{.{.{.{.{.{.{.{.{.{.{.{.{.{.{.{.{.{.{.{.{.{.{.",
"{.{.{.{.{.{.{.{.{.{.{.{.{.{.{.{.{.{.{.{.{.{.{.{.{.{.{.{.{.{.{.{.{.{.{.{.{.{.{.{.{.{.{.{.{.{.{.{.{.{.{.{.{.{.{.{.{.{.{.{.{.",
"{.{.{.{.{.{.{.{.{.{.{.{.{.{.{.{.{.{.{.{.{.{.{.{.{.{.{.{.{.{.{.{.{.{.{.{.{.{.{.{.{.{.{.{.{.{.{.{.{.{.{.{.{.{.{.{.{.{.{.{.{.",
"{.{.{.{.{.{.{.{.{.{.{.{.{.{.{.{.{.{.{.{.{.{.{.{.{.{.{.{.{.{.{.{.{.{.{.{.{.{.{.{.{.{.{.{.{.{.{.{.{.{.{.{.{.{.{.{.{.{.{.{.{.",
"{.{.{.{.{.{.{.{.{.{.{.{.{.{.{.{.{.{.{.{.{.{.{.{.{.{.{.{.{.{.{.{.{.{.{.{.{.{.{.{.{.{.{.{.{.{.{.{.{.{.{.{.{.{.{.{.{.{.{.{.{."
};
