/* XPM */
static char const * home_xpm[] = {
"16 16 9 1",
" 	c None",
".	c #FFFFFF",
"+	c #000000",
"@	c #808080",
"#	c #FFFF00",
"$	c #C0C0C0",
"%	c #808000",
"&	c #008080",
"*	c #00FFFF",
"....++++++......",
"...+@####++.....",
"..+$#####+++....",
".++#####%+@++...",
"++#####@+$$@++..",
"+######+.&*.@+..",
"++%##++..&*..++.",
".+++++.......+..",
".+.+++..$@$..+..",
".+..+...@+@..+..",
".+..+...@@@..+..",
".++.+...@@@..+..",
"..+++...@@@.++..",
"...++++++++++...",
"....+++@@@......",
"................"};
