/* XPM */
static char *layerOff_xpm[] = {
/* columns rows colors chars-per-pixel */
"23 24 43 1",
"  c #3F3F3F3F3F3F",
". c #404040404040",
"X c #636369697272",
"o c #64646A6A7272",
"O c #64646A6A7373",
"+ c #757581819393",
"@ c #767681819393",
"# c #5C5C9A9ADADA",
"$ c #5D5D9B9BDADA",
"% c #5E5E9B9BDADA",
"& c #5E5E9C9CDADA",
"* c #6868A0A0DBDB",
"= c #6868A1A1DCDC",
"- c #A6A6ADADB4B4",
"; c #A6A6ADADB5B5",
": c #8282A9A9CFCF",
"> c #8A8AA6A6C3C3",
", c #8A8AA7A7C3C3",
"< c #8B8BA8A8C3C3",
"1 c #8686B5B5E3E3",
"2 c #8B8BB5B5E2E2",
"3 c #9C9CBEBEE0E0",
"4 c #C9C9DDDDEFEF",
"5 c #CCCCDDDDEFEF",
"6 c #D3D3E0E0F8F8",
"7 c #D9D9E6E6FBFB",
"8 c #DADAE7E7FBFB",
"9 c #DBDBE8E8FDFD",
"0 c #E4E4E4E4E4E4",
"q c #EFEFEFEFEFEF",
"w c #E1E1ECECFBFB",
"e c #E2E2EDEDFCFC",
"r c #EDEDEEEEF1F1",
"t c #EEEEEFEFF1F1",
"y c #EFEFEFEFF0F0",
"u c #EFEFF0F0F0F0",
"i c #F5F5F6F6F7F7",
"p c #F6F6F7F7F8F8",
"a c #F9F9F9F9FAFA",
"s c #FAFAFAFAFBFB",
"d c #FEFEFEFEFEFE",
"f c #FEFEFFFFFFFF",
"g c #FFFFFFFFFFFF",
/* pixels */
"00000000000000000000000",
"00000000000000000000000",
"00000000000000000000000",
"00000000000000000000000",
"00000000000000000000000",
"00000000000000000000000",
"00000000000000000000000",
"00000000OXXXXXXXq000000",
"0000000XaasssaOq0000000",
"000000OttttttOq00000000",
"00000OipppppOq3=*<q0000",
"0000XggggggOq<2661<0000",
"000XXXXXXXXq0*8988*0000",
"0000000000000$egdw&0000",
"0000000000000:5gd5*0000",
"0000000000000-&$%*-0000",
"00000000000000+g++q0000",
"00000000000000+g++q0000",
"00000000000000@g++i0000",
"000000000000000. q00000",
"00000000000000000000000",
"00000000000000000000000",
"00000000000000000000000",
"00000000000000000000000"
};
