/* XPM */
static char *layerProp_xpm[] = {
/* columns rows colors chars-per-pixel */
"24 24 30 1",
"  c #636369697272",
". c #64646A6A7272",
"X c #64646A6A7373",
"o c #24246464AAAA",
"O c #25256464AAAA",
"+ c #25256565AAAA",
"@ c #66669F9FDFDF",
"# c #67679F9FDFDF",
"$ c #B1B1B4B4B9B9",
"% c #C2C2EEEEF3F3",
"& c #C3C3EFEFF3F3",
"* c #D3D3F3F3F6F6",
"= c #D4D4F4F4F6F6",
"- c #D9D9F5F5F7F7",
"; c #E4E4E4E4E4E4",
": c #EFEFEFEFEFEF",
"> c #EDEDEEEEF1F1",
", c #EEEEEFEFF1F1",
"< c #EFEFEFEFF0F0",
"1 c #E4E4F8F8FAFA",
"2 c #EFEFF0F0F0F0",
"3 c #EBEBF9F9FBFB",
"4 c #ECECFAFAFBFB",
"5 c #F5F5F6F6F7F7",
"6 c #F6F6F7F7F8F8",
"7 c #F9F9F9F9FAFA",
"8 c #FAFAFAFAFBFB",
"9 c #FEFEFEFEFEFE",
"0 c #FEFEFEFEFFFF",
"q c #FFFFFFFFFFFF",
/* pixels */
";;;;;;;;;;;;;;;;;;;;;;;;",
";;;;;;;;;;;;;;;;;;;;;;;;",
";;;;;;;;;;;;;;;;;;;;;;;;",
";;;;;;;;;;;;;;;;;;;;;;;;",
";;;;;;;;;;;;;;;;;;;;;;;;",
";;;;;;;;;;;;;;;;;;;;;;;;",
";;;;;;;;;;;;;;;;;;;;;;;;",
";;;;;;;;;X       :;;;;;;",
";;;;;;;;X770777X:;;;;;;;",
";;;;;;;X,,,,,,X:;;;;;;;;",
";;;;;;X566666X:;;;;;;;;;",
";;;;;X000000$;;;;;;;;;;;",
";;;;       $++:+++,;;;;;",
";;;;;;;;;;;+0&+%0+,;;;;;",
";;;;;;;;;;;#+0-0+#,;;;;;",
";;;;;;;;;;++*101*++,;;;;",
";;;;;;;;;+0004+4000+;;;;",
";;;;;;;;;;+o*101*++:;;;;",
";;;;;;;;;;;#+0-0+#:;;;;;",
";;;;;;;;;;;+0&+%0+:;;;;;",
";;;;;;;;;;;+o+:+++:;;;;;",
";;;;;;;;;;;;;;;;;;;;;;;;",
";;;;;;;;;;;;;;;;;;;;;;;;",
";;;;;;;;;;;;;;;;;;;;;;;;"
};
