/* XPM */
static char *named_view_xpm[] = {
/* columns rows colors chars-per-pixel */
"24 23 71 1",
"  c #2D2D2D2D2D2D",
". c #2E2E2E2E2E2E",
"X c #2E2E2F2F2F2F",
"o c #2F2F2F2F2F2F",
"O c #333333333333",
"+ c #343434343434",
"@ c #39393F3F4848",
"# c #3A3A40404949",
"$ c #3C3C44444D4D",
"% c #3D3D45454E4E",
"& c #666666666666",
"* c #646467676B6B",
"= c #656569696E6E",
"- c #636369697272",
"; c #64646A6A7272",
": c #64646A6A7373",
"> c #727272727272",
", c #696977778686",
"< c #76767C7C8282",
"1 c #88888C8C9191",
"2 c #8C8C9898A5A5",
"3 c #B2B2B2B2B2B2",
"4 c #C7C7D8D8D9D9",
"5 c #D4D4D4D4D4D4",
"6 c #D5D5D5D5D5D5",
"7 c #D6D6D8D8D9D9",
"8 c #D7D7D9D9DADA",
"9 c #DCDCDFDFE4E4",
"0 c #D2D2E0E0E1E1",
"q c #D3D3E1E1E2E2",
"w c #DDDDE0E0E5E5",
"e c #DDDDE1E1E5E5",
"r c #DEDEE1E1E6E6",
"t c #E4E4E4E4E4E4",
"y c #E2E2E5E5E9E9",
"u c #E3E3E6E6E9E9",
"i c #E3E3E6E6EAEA",
"p c #E4E4E7E7EAEA",
"a c #E4E4E7E7EBEB",
"s c #E5E5E7E7EBEB",
"d c #E0E0EAEAEBEB",
"f c #E6E6E9E9ECEC",
"g c #E7E7EAEAEDED",
"h c #EBEBECECEFEF",
"j c #EFEFEFEFEFEF",
"k c #EBEBEDEDF0F0",
"l c #ECECEDEDF0F0",
"z c #ECECEEEEF0F0",
"x c #ECECEEEEF1F1",
"c c #ECECF3F3F3F3",
"v c #EEEEF0F0F2F2",
"b c #ECECF3F3F4F4",
"n c #F0F0F1F1F3F3",
"m c #F1F1F2F2F4F4",
"M c #F2F2F3F3F5F5",
"N c #F3F3F4F4F6F6",
"B c #F4F4F5F5F6F6",
"V c #F6F6F9F9F9F9",
"C c #F9F9F9F9FAFA",
"Z c #F8F8FBFBFBFB",
"A c #FAFAFBFBFBFB",
"S c #FBFBFBFBFCFC",
"D c #F8F8FDFDFDFD",
"F c #FAFAFCFCFCFC",
"G c #FBFBFDFDFDFD",
"H c #FCFCFCFCFDFD",
"J c #FDFDFDFDFDFD",
"K c #FDFDFEFEFEFE",
"L c #FEFEFEFEFEFE",
"P c #FEFEFFFFFFFF",
"I c #FFFFFFFFFFFF",
/* pixels */
"tttttttttttttttttttttttt",
"tttttttttttttttttttttttt",
"tttttttttttttttttttttttt",
"tttttttttttttttttttttttt",
"tttt*@#@@###@1#jtttttttt",
"tttt@LLLLLLLLL:@jttttttt",
"tttt@wwwwrwrwh:L#jtttttt",
"tttt@yiiiaiiiv:LL#jttttt",
"tttt#ggggADAab:::;@jtttt",
"tttt@hhhLo XAvh333@jtttt",
"tttt@bbLo444oSbNjM#htttt",
"tttt@BLo8qADV6LLLL8ttttt",
"tttt#VLorrA<$$$$%$$=tttt",
"tttt#ALoVbL%$$$$%%$$tttt",
"tttt#LL+XDL%LLLLLLL%tttt",
"tttt8L+*OX6%9,w,,,w%tttt",
"tttt8+&+888%iisisis%tttt",
"ttttt>+jttt$h2h222h%tttt",
"ttttttttttt$NNNNBBB%tttt",
"tttttttttttttttttttttttt",
"tttttttttttttttttttttttt",
"tttttttttttttttttttttttt",
"tttttttttttttttttttttttt"
};
