/* XPM */
static const char * nurbs_xpm[] = {
"16 16 4 1",
" 	c #FFFFFFFFFFFF",
".	c #C0C0C0C0C0C0",
"X	c #000000000000",
"o	c #000000000000",
"................",
"................",
"................",
"...XX...........",
"..X..X..........",
".X...X.....X....",
".X...X....X.X...",
".....X....X..X..",
"......X...X.....",
"......X...X.....",
".......XXX......",
"................",
"................",
"................",
"................",
"................"};
