/* XPM */
static char *open_xpm[] = {
/* columns rows colors chars-per-pixel */
"32 32 99 2",
"   c #040402020404",
".  c #0C0C06060404",
"X  c #0C0C12121414",
"o  c #1C1C12120404",
"O  c #1C1C16160404",
"+  c #14141A1A1414",
"@  c #1C1C1E1E1C1C",
"#  c #242412120404",
"$  c #24241E1E0C0C",
"%  c #34342A2A1414",
"&  c #242432323434",
"*  c #4C4C3A3A1414",
"=  c #545446461C1C",
"-  c #64644E4E2424",
";  c #6C6C5A5A2424",
":  c #74745A5A2424",
">  c #7C7C6A6A2C2C",
",  c #7C7C6A6A3C3C",
"<  c #4C4C56564C4C",
"1  c #4C4C5A5A4C4C",
"2  c #4C4C5A5A5454",
"3  c #5C5C6A6A5C5C",
"4  c #646476766464",
"5  c #7C7C92928484",
"6  c #84846A6A2424",
"7  c #84846E6E2C2C",
"8  c #94947A7A4444",
"9  c #94948E8E6464",
"0  c #ACAC96966464",
"q  c #ACAC9E9E6C6C",
"w  c #B4B49A9A6464",
"e  c #B4B49E9E7474",
"r  c #B4B4B2B27C7C",
"t  c #CCCCAEAE3C3C",
"y  c #CCCCB2B25C5C",
"u  c #D4D4B6B64444",
"i  c #D4D4BEBE5454",
"p  c #CCCCB2B26C6C",
"a  c #D4D4B2B26C6C",
"s  c #DCDCBABA6464",
"d  c #D4D4B6B67474",
"f  c #DCDCBEBE7C7C",
"g  c #DCDCC2C26C6C",
"h  c #DCDCCACA7474",
"j  c #E4E4C6C64C4C",
"k  c #E4E4C2C25454",
"l  c #ECECC2C27C7C",
"z  c #ECECC6C67C7C",
"x  c #ECECD2D26C6C",
"c  c #F4F4CECE7474",
"v  c #C4C4B6B68484",
"b  c #CCCCC2C28484",
"n  c #CCCCC2C28C8C",
"m  c #CCCCC6C68C8C",
"M  c #C4C4CACA9494",
"N  c #D4D4C6C68C8C",
"B  c #DCDCC6C68484",
"V  c #DCDCCACA8484",
"C  c #D4D4C6C69494",
"Z  c #D4D4CACA9494",
"A  c #DCDCCACA9494",
"S  c #DCDCD2D29C9C",
"D  c #E4E4C2C28484",
"F  c #E4E4CACA8484",
"G  c #ECECC6C68484",
"H  c #ECECC6C68C8C",
"J  c #ECECCACA9494",
"K  c #F4F4CECE9C9C",
"L  c #ECECD2D2A4A4",
"P  c #F4F4D2D2A4A4",
"I  c #F4F4D6D6ACAC",
"U  c #F4F4D6D6B4B4",
"Y  c #F4F4DADAB4B4",
"T  c #FCFCEEEEACAC",
"R  c #F4F4EAEABCBC",
"E  c #FCFCF2F2B4B4",
"W  c #F4F4EEEEC4C4",
"Q  c #FCFCEEEECCCC",
"!  c #F4F4E6E6D4D4",
"~  c #F4F4EAEADCDC",
"^  c #FCFCEAEAD4D4",
"/  c #FCFCEEEED4D4",
"(  c #FCFCEEEEDCDC",
")  c #FCFCF2F2CCCC",
"_  c #FCFCF6F6CCCC",
"`  c #FCFCF6F6D4D4",
"'  c #FCFCF6F6DCDC",
"]  c #FCFCEEEEE4E4",
"[  c #FCFCF2F2E4E4",
"{  c #FCFCF6F6E4E4",
"}  c #FCFCF2F2ECEC",
"|  c #FCFCFAFAE4E4",
" . c #FCFCFEFEE4E4",
".. c #FCFCFAFAECEC",
"X. c #FCFCFEFEECEC",
"o. c #FCFCFAFAF4F4",
"O. c #FCFCFEFEF4F4",
"+. c #FCFCFAFAFCFC",
"@. c #FCFCFEFEFCFC",
/* pixels */
"~ ~ ~ ~ ~ ~ ~ ~ ~ ~ ~ ~ ~ ~ ~ ~ ~ ~ ~ ~ ~ ~ ~ ~ ~ ~ ~ ~ ~ ~ ~ ~ ",
"~ ~ ~ ~ ~ ~ ~ ~ ~ ~ ~ ~ ~ ~ ~ ~ ~ ~ ~ ~ ~ ~ ~ ~ ~ ~ ~ ~ ~ ~ ~ ~ ",
"~ ~ ~ ~ ~ ~ ~ ~ ~ ~ ~ ~ ~ ~ ~ ~ ~ ~ ~ ~ ~ ~ ~ ~ ~ ~ ~ ~ ~ ~ ~ ~ ",
"~ ~ ~ ~ ~ ~ ~ ~ ~ ~ ~ ~ ~ ~ ~ ~ ~ ~ ~ ~ ~ ~ ~ ~ ~ ~ ~ ~ ~ ~ ~ ~ ",
"~ ~ ~ ~ ~ ~ ~ ~ ~ ~ ~ ~ ~ ~ ~ ~ ~ ~ ~ ~ ~ ~ ~ ~ ~ ~ ~ ~ ~ ~ ~ ~ ",
"~ ~ ~ ~ ~ ~ ~ ~ ~ ~ ~ ~ ~ ~ ~ ~ ~ ~ ~ ~ ~ ~ ~ ~ ~ ~ ~ ~ ~ ~ ~ ~ ",
"~ ~ ~ ~ ~ M n N n m f % ~ ~ ~ ~ ~ ~ ~ ~ ~ ~ ~ ~ ~ ~ ~ ~ ~ ~ ~ ~ ",
"~ ~ ~ ~ n K [ ] [ ( { J # ~ ~ ~ ~ ~ ~ ~ ~ ~ ~ ~ ~ ~ ~ ~ ~ ~ ~ ~ ",
"~ ~ ~ b P @.@.@.@.@.@.@.H % & ~ ~ ~ ~ ~ ~ ~ ~ ~ ~ ~ ~ ~ ~ ~ ~ ~ ",
"~ ~ n Y @.@.@.@.@.@.@.+.@.Q 9 ~ ~ ~ ~ ~ ~ ~ ~ ~ ~ ~ ~ ~ ~ ~ ~ ~ ",
"~ r I @.@.@.@.@.@.@.@.@.@.o.I N N n N n C v - ~ ~ ~ ~ ~ ~ ~ ~ ~ ",
"~ 0 @.@.@.@.@.@.@.@.@.@.@.@.@.[ [ [ [ [ ( [  .= ~ ~ ~ ~ ~ ~ ~ ~ ",
"~ w @.@.@.@.@.@.@.@.@.@.@.@.@.@.@.@.@.@.@.@.O.* ~ ~ ~ ~ ~ ~ ~ ~ ",
"~ w +.@.@.@.@.@.@.@.@.@.@.@.@.@.@.@.@.@.@.@...q ~ ~ ~ ~ ~ ~ ~ ~ ",
"~ w @.@.@.@.@.@.! L U Y U Y U Y U Y U Y U I L f S n Z , = $ < ~ ",
"~ w @.@.@.+.@.} l ( ( ( ( ( ( ( ( ( ( ( ( ( ] [ ( ] / | x O @ ~ ",
"~ w O.@.@.@.@.L ^ @.@.@.@.@.@.@.@.@.@.@.@.@.@.@.@.@.@._ >   4 ~ ",
"~ w O.+.@.@.R G @.@.@.@.@.@.@.@.@.@.@.@.@.@.@.@.@.+.O.g o X ~ ~ ",
"~ w @.@.@.@.F ^ @.@.@.@.@.@.@.@.@.@.@.@.@.@.@.@.@.@.T 6   4 ~ ~ ",
"~ w @.@.@.W z @.@.@.@.@.@.@.@.@.@.@.@.@.@.@.@.@.@.X.i o X ~ ~ ~ ",
"~ w @.@.X.k ^ @.@.@.@.@.@.@.@.@.@.@.@.@.@.@.@.@.@.E 6   4 ~ ~ ~ ",
"~ w O.@.R D @.@.@.@.@.@.@.@.@.@.@.@.@.@.@.@.@.@.@.V o X ~ ~ ~ ~ ",
"~ w O.@.F ^ @.@.@.@.@.@.@.@.@.@.@.@.@.@.@.@.@.@._ 7   ~ ~ ~ ~ ~ ",
"~ 0 @.~ l @.@.@.@.@.@.@.@.@.@.@.@.@.@.@.@.@.@.@.h o ~ ~ ~ ~ ~ ~ ",
"~ w @.F ^ @.@.@.@.@.@.@.@.@.@.@.@.@.@.@.@.@.@.| >   ~ ~ ~ ~ ~ ~ ",
"~ e ) D @.@.@.@.@.@.@.@.@.@.@.@.@.@.@.@.@.@.@.A o X ~ ~ ~ ~ ~ ~ ",
"~ 8 c ~ @.@.@.@.@.@.@.@.@.@.@.@.@.@.@.@.@.@...7   4 ~ ~ ~ ~ ~ ~ ",
"~ : j Q ` ) ' | o.o.@.@.@.@.@.@.@.@.@.@.o.{ B o X ~ ~ ~ ~ ~ ~ ~ ",
"~ ; u t t t t t y a d d d d d d d d d a p s >   4 ~ ~ ~ ~ ~ ~ ~ ",
"~ . .                                         + ~ ~ ~ ~ ~ ~ ~ ~ ",
"~ 5 2 2 1 < 2 < 2 < 2 < 2 < 2 < 2 < 2 < 2 < 3 ~ ~ ~ ~ ~ ~ ~ ~ ~ ",
"~ ~ ~ ~ ~ ~ ~ ~ ~ ~ ~ ~ ~ ~ ~ ~ ~ ~ ~ ~ ~ ~ ~ ~ ~ ~ ~ ~ ~ ~ ~ ~ "
};
