/* XPM */
static char *parellel_xpm[] = {
/* columns rows colors chars-per-pixel */
"22 24 97 2",
"   c black",
".  c #010101010101",
"X  c #666666666666",
"o  c #676767676767",
"O  c #6A6A6A6A6A6A",
"+  c #6B6B6B6B6B6B",
"@  c #6E6E6E6E6E6E",
"#  c #6F6F6F6F6F6F",
"$  c #757575757575",
"%  c #777777777777",
"&  c #7C7C7C7C7C7C",
"*  c #7E7E7E7E7E7E",
"=  c #7F7F7F7F7F7F",
"-  c #808080808080",
";  c #818181818181",
":  c #828282828282",
">  c #838383838383",
",  c #848484848484",
"<  c #858585858585",
"1  c #868686868686",
"2  c #888888888888",
"3  c #898989898989",
"4  c #8B8B8B8B8B8B",
"5  c #8C8C8C8C8C8C",
"6  c #8D8D8D8D8D8D",
"7  c #8F8F8F8F8F8F",
"8  c #919191919191",
"9  c #929292929292",
"0  c #949494949494",
"q  c #959595959595",
"w  c #979797979797",
"e  c #989898989898",
"r  c #999999999999",
"t  c #9A9A9A9A9A9A",
"y  c #9B9B9B9B9B9B",
"u  c #9C9C9C9C9C9C",
"i  c #9D9D9D9D9D9D",
"p  c #9E9E9E9E9E9E",
"a  c #9F9F9F9F9F9F",
"s  c #A0A0A0A0A0A0",
"d  c #A1A1A1A1A1A1",
"f  c #A2A2A2A2A2A2",
"g  c #A4A4A4A4A4A4",
"h  c #A5A5A5A5A5A5",
"j  c #A6A6A6A6A6A6",
"k  c #A7A7A7A7A7A7",
"l  c #A8A8A8A8A8A8",
"z  c #A9A9A9A9A9A9",
"x  c #AAAAAAAAAAAA",
"c  c #ABABABABABAB",
"v  c #ADADADADABAB",
"b  c #ACACACACACAC",
"n  c #ADADADADADAD",
"m  c #AEAEAEAEACAC",
"M  c #AEAEAEAEAEAE",
"N  c #AFAFAFAFAFAF",
"B  c #B0B0B0B0B0B0",
"V  c #B1B1B1B1B1B1",
"C  c #B2B2B2B2B2B2",
"Z  c #B3B3B3B3B3B3",
"A  c #B4B4B4B4B4B4",
"S  c #B5B5B5B5B5B5",
"D  c #B6B6B6B6B6B6",
"F  c #B7B7B7B7B7B7",
"G  c #B8B8B8B8B8B8",
"H  c #B9B9B9B9B9B9",
"J  c #BABABABABABA",
"K  c #BCBCBCBCBCBC",
"L  c #BDBDBDBDBDBD",
"P  c #BEBEBEBEBEBE",
"I  c #BFBFBFBFBFBF",
"U  c #C0C0C0C0C0C0",
"Y  c #C2C2C2C2C2C2",
"T  c #C4C4C4C4C4C4",
"R  c #C5C5C5C5C5C5",
"E  c #C6C6C6C6C6C6",
"W  c #C7C7C7C7C7C7",
"Q  c #C8C8C8C8C8C8",
"!  c #C9C9C9C9C9C9",
"~  c #CBCBCBCBCBCB",
"^  c #CCCCCCCCCCCC",
"/  c #CDCDCDCDCDCD",
"(  c #CECECECECECE",
")  c #CFCFCFCFCFCF",
"_  c #D1D1D1D1D1D1",
"`  c LightGray",
"'  c #D4D4D4D4D4D4",
"]  c #D5D5D5D5D5D5",
"[  c #D7D7D7D7D7D7",
"{  c #D8D8D8D8D8D8",
"}  c #DADADADADADA",
"|  c #DDDDDDDDDDDD",
" . c #E0E0E0E0E0E0",
".. c #E2E2E2E2E2E2",
"X. c #E4E4E4E4E4E4",
"o. c #E6E6E6E6E6E6",
"O. c #EFEFEFEFEFEF",
/* pixels */
"X.X.X.X.X.X.X.X.X.X.X.X.X.X.X.X.X.X.X.X.X.X.",
"X.X.X.X.X.X.X.X.X.X.X.X.X.X.X.X.X.X.X.X.X.X.",
"X.X.X.X.X.X.X.X.X.X.X.X.X.X.X.X.X.X.X.X.X.X.",
"X.X.X.X.X.X.X.X.X.X.X.X.X.X.X.X.X.X.X.X.X.X.",
"X.X.X.X.X.X.X.X.X.X.X.X.X.X.X.X.X.X.X.X.X.X.",
"X.X.X.X.X.X.! 4 2 2 > > : : : * = l X.X.X.X.",
"X.X.X.X.X.! y y y q 9 9 4 2 > : ` O O.X.X.X.",
"X.X.X.X.] J J F F C N z z h f | + X O.X.X.X.",
"X.X.X...! { { ] ) / / ! T Y X.> X X O.X.X.X.",
"X.X.X.                      a : X X O.X.X.X.",
"X.X.X.  $ $ : 2 9 y a z C   a : X X O.X.X.X.",
"X.X.X.  $ * > 4 q f h C J   a : X X O.X.X.X.",
"X.X.X.  * > 4 q a h N F P   f : X X O.X.X.X.",
"X.X.X.  : 2 q a f z F P T   f > o X O.X.X.X.",
"X.X.X.  2 9 y f z C P Y /   a > o @ O.X.X.X.",
"X.X.X.  4 y a z C J Y / ]   f > # m X.X.X.X.",
"X.X.X.  q a h C G I ! ) |   g 0 m X.X.X.X.X.",
"X.X.X.  y h c F I ! ) { ..  c m X.X.X.X.X.X.",
"X.X.X.                      c X.X.X.X.X.X.X.",
"X.X.X.N m c c N m m m m N c X.X.X.X.X.X.X.X.",
"X.X.X.X.X.X.X.X.X.X.X.X.X.X.X.X.X.X.X.X.X.X.",
"X.X.X.X.X.X.X.X.X.X.X.X.X.X.X.X.X.X.X.X.X.X.",
"X.X.X.X.X.X.X.X.X.X.X.X.X.X.X.X.X.X.X.X.X.X.",
"X.X.X.X.X.X.X.X.X.X.X.X.X.X.X.X.X.X.X.X.X.X."
};
