/* XPM */
static char *perspetive_xpm[] = {
/* columns rows colors chars-per-pixel */
"22 23 95 2",
"   c black",
".  c #010101010101",
"X  c #131313131313",
"o  c #181818181818",
"O  c #222222222222",
"+  c #232323232323",
"@  c #2B2B2B2B2B2B",
"#  c #313131313131",
"$  c #3C3C3C3C3C3C",
"%  c #3D3D3D3D3D3D",
"&  c #404040404040",
"*  c #464646464646",
"=  c #505050505050",
"-  c #585858585858",
";  c #595959595959",
":  c #5B5B5B5B5B5B",
">  c #5F5F5F5F5F5F",
",  c #646464646464",
"<  c #676767676767",
"1  c #686868686868",
"2  c DimGray",
"3  c #6A6A6A6A6A6A",
"4  c #6B6B6B6B6B6B",
"5  c #6D6D6D6D6D6D",
"6  c #6F6F6F6F6F6F",
"7  c #707070707070",
"8  c #717171717171",
"9  c #737373737373",
"0  c #747474747474",
"q  c #757575757575",
"w  c #767676767676",
"e  c #787878787878",
"r  c #797979797979",
"t  c #7A7A7A7A7A7A",
"y  c #7B7B7B7B7B7B",
"u  c #7C7C7C7C7C7C",
"i  c #7D7D7D7D7D7D",
"p  c #7F7F7F7F7F7F",
"a  c #808080808080",
"s  c #818181818181",
"d  c #828282828282",
"f  c #838383838383",
"g  c #848484848484",
"h  c #858585858585",
"j  c #868686868686",
"k  c #888888888888",
"l  c #898989898989",
"z  c #8A8A8A8A8A8A",
"x  c #8B8B8B8B8B8B",
"c  c #8C8C8C8C8C8C",
"v  c #8E8E8E8E8E8E",
"b  c #8F8F8F8F8F8F",
"n  c #909090909090",
"m  c #929292929292",
"M  c #939393939393",
"N  c #949494949494",
"B  c #959595959595",
"V  c #979797979797",
"C  c #999999999999",
"Z  c #9A9A9A9A9A9A",
"A  c #9B9B9B9B9B9B",
"S  c #9C9C9C9C9C9C",
"D  c #9E9E9E9E9E9E",
"F  c #A2A2A2A2A2A2",
"G  c #A3A3A3A3A3A3",
"H  c #A4A4A4A4A4A4",
"J  c #A6A6A6A6A6A6",
"K  c #AAAAAAAAAAAA",
"L  c #ABABABABABAB",
"P  c #ACACACACACAC",
"I  c #ADADADADADAD",
"U  c #AFAFAFAFAFAF",
"Y  c #B1B1B1B1B1B1",
"T  c #B2B2B2B2B2B2",
"R  c #B3B3B3B3B3B3",
"E  c #B4B4B4B4B4B4",
"W  c #B5B5B5B5B5B5",
"Q  c #B6B6B6B6B6B6",
"!  c #BABABABABABA",
"~  c #BCBCBCBCBCBC",
"^  c #C3C3C3C3C3C3",
"/  c #C4C4C4C4C4C4",
"(  c #C7C7C7C7C7C7",
")  c #C9C9C9C9C9C9",
"_  c #CBCBCBCBCBCB",
"`  c #CCCCCCCCCCCC",
"'  c #D9D9D9D9D9D9",
"]  c gainsboro",
"[  c #DFDFDFDFDFDF",
"{  c #E0E0E0E0E0E0",
"}  c #E4E4E4E4E4E4",
"|  c #E5E5E5E5E5E5",
" . c #E8E8E8E8E8E8",
".. c #ECECECECECEC",
"X. c #EFEFEFEFEFEF",
/* pixels */
"} } } } } } } } } } } } } } } } } } } } } } ",
"} } } } } } } } } } } } } } } } } } } } } } ",
"} } } } } } } } } } } } } } } } } } } } } } ",
"} } } } } } } } } } } } } } } } } } } } } } ",
"} } } } } } } } } } } } } } } } } } } } } } ",
"} } } } } } } } / F F F W } } } } } } } } } ",
"} } } } } / K W I I I I I Y W K Y } } } } } ",
"} } }   ; z ) ) ) ) ) ) ) ) ) / J D } } } } ",
"} } }   % @   # i ! } } } ` Y V h z } } } } ",
"} } }   8 i s < & O   ) J Z m z e h } } } } ",
"} } }   i h z m Z F   D V b z s 8 i X.} } } ",
"} } }   s z V Z F K   V b z s e 1 q X.} } } ",
"} } }   z V Z F K W   b h i e 8 : 8 X.} } } ",
"} } }   6 D J K W !   h i q 6 1 < i X.} } } ",
"} } } i O % V W ! /   i 8 6 1 1 s J } } } } ",
"} } } ] Z ; X * I `   8 6 < q h J { } } } } ",
"} } } } } / h : o 1   1 1 i i ! } } } } } } ",
"} } } } } } | K s =   6 i V { } } } } } } } ",
"} } } } } } } X.` m z i ! ..} } } } } } } } ",
"} } } } } } } } } ' h W } } } } } } } } } } ",
"} } } } } } } } } } } } } } } } } } } } } } ",
"} } } } } } } } } } } } } } } } } } } } } } ",
"} } } } } } } } } } } } } } } } } } } } } } "
};
