/* XPM */
static char *plot_xpm[] = {
/* columns rows colors chars-per-pixel */
"36 36 78 1",
"  c #28282D2D3333",
". c #29292E2E3434",
"X c #39393F3F4848",
"o c #3A3A40404949",
"O c #3B3B41414A4A",
"+ c #3C3C42424B4B",
"@ c #3E3E45454F4F",
"# c #3F3F46465050",
"$ c #424248485252",
"% c #434349495353",
"& c #484850505B5B",
"* c #4B4B52525E5E",
"= c #515156565F5F",
"- c #515157575F5F",
"; c #525258586060",
": c #575760606C6C",
"> c #595962626F6F",
", c #5D5D62626868",
"< c #5B5B64647171",
"1 c #5C5C65657171",
"2 c #636367676F6F",
"3 c #69696C6C7171",
"4 c #6A6A6D6D7272",
"5 c #6B6B6E6E7373",
"6 c #717175757B7B",
"7 c #8C8C8F8F9595",
"8 c #9C9CA0A0A5A5",
"9 c #9898A8A8B3B3",
"0 c #A9A9ADADB3B3",
"q c #AAAAADADB1B1",
"w c #B3B3B3B3B3B3",
"e c #B0B0B3B3B7B7",
"r c #B4B4B4B4B4B4",
"t c #B8B8B8B8B8B8",
"y c #B9B9BDBDC3C3",
"u c #C7C7C7C7C7C7",
"i c #CFCFCFCFCFCF",
"p c #C7C7CBCBD1D1",
"a c #C8C8CCCCD2D2",
"s c #CACACECED3D3",
"d c #CBCBCFCFD4D4",
"f c #CDCDCECED2D2",
"g c #D0D0D0D0D0D0",
"h c #D0D0D3D3D8D8",
"j c #D1D1D4D4D9D9",
"k c #D5D5D8D8DDDD",
"l c #D6D6D9D9DEDE",
"z c #D9D9DBDBDEDE",
"x c #DDDDDDDDDDDD",
"c c #DEDEDEDEDEDE",
"v c #DBDBDEDEE2E2",
"b c #DCDCDFDFE3E3",
"n c #DEDEE0E0E3E3",
"m c #E2E2E2E2E2E2",
"M c #E3E3E3E3E3E3",
"N c #E0E0E3E3E5E5",
"B c #E0E0E2E2E6E6",
"V c #E1E1E3E3E6E6",
"C c #E1E1E3E3E7E7",
"Z c #E2E2E4E4E7E7",
"A c #E7E7E9E9EBEB",
"S c #EAEAEAEAEAEA",
"D c #EBEBEBEBEBEB",
"F c #E8E8EAEAECEC",
"G c #E8E8EAEAEDED",
"H c #EBEBEBEBECEC",
"J c #ECECECECEDED",
"K c #EDEDEEEEF0F0",
"L c #EEEEEFEFF1F1",
"P c #F0F0F0F0F0F0",
"I c #F0F0F1F1F3F3",
"U c #F2F2F2F2F4F4",
"Y c #F3F3F3F3F5F5",
"T c #F7F7F7F7F8F8",
"R c #F8F8F8F8F9F9",
"E c #FDFDFDFDFDFD",
"W c #FEFEFEFEFEFE",
"Q c #FFFFFFFFFFFF",
/* pixels */
"PPPPPPPPPPPPPPPPPPPPPPPPPPPPPPPPPPPP",
"PPPPPPPPPPPPPPPPPPPPPPPPPPPPPPPPPPPP",
"PPPPPPPPPPPPPPPPPPPPPPPPPPPPPPPPPPPP",
"PPPPPPPPPD5................5DPPPPPPP",
"PPPPPPPPPM.WWWWWWWWWWWWWWWW.MPPPPPPP",
"PPPPPPPPPc.WWWWWWWWWWWWWWWW.cDPPPPPP",
"PPPPPPPPPc.WWWWWWWWWWWWWWWW.cPPPPPPP",
"PPPPPPPDoo.WWWWWWWWWWWWWWWW.ooDPPPPP",
"PPPPPPPMoX WWWWWWWWWWWWWWWW.oXMPPPPP",
"PPPPPPPcoX TRRRRRRRRRRRRRRR.XXcPPPPP",
"PPPD5...   ++dLYYPYLYPYLz+o      3DP",
"PPPM.YYYYYYY67FFGFGGGFFF82YYYYYYY MP",
"PPPc.KKLKLLLe-VZZCCCZZCZ,qLLLLLLP.cP",
"PPPc.AFFFFFFV-oo+oo+ooo+;bFFFFFFF.xP",
"PPPc.VZZZZZZZVVVVVCCVVVZZZZZZZZZV.xP",
"PPPc.vbbbbbbbbbbbbbbbbbbbbbbbbbbb xP",
"PPPc.llzllllllllllllllllllllllllz.cP",
"PPPc.hhjjjjhjjjhjjjjhhhjjjjjjjjjj.xP",
"PPPc.dddddddddddddddddddddddddddd cP",
"PPPc.py000yppdpdaaapdppddppppppdp cP",
"PPPc.pppdaaadpppaapaaappaaaadaaap.cP",
"PPPc.HDKHHKHDFDKKDJJKDKDJJJJGJJJH cP",
"PPPc.11111<111111111111111111111< xP",
"PPPc.<<<<<<<<<<<1<<<<<<<<<<<<<<<< xP",
"PPPc <<<1>#            .. .@;111< cP",
"PPPc.<<<1*$W99999999999999W%*1<1< xP",
"PPPc3      W99999999999999W.  .. 3cP",
"PPPVuttroX W99999999999999W.XXettuMP",
"PPPDMccgoX W99999999999999W.XXiccMDP",
"PPPPPPPMur.W99999999999999W.euMPPPPP",
"PPPPPPPHMg.WWWWWWWWWWWWWWWW.iMDPPPPP",
"PPPPPPPPPc5............... 3cPPPPPPP",
"PPPPPPPPPMuttttttttttttttttuMPPPPPPP",
"PPPPPPPPPDMccccccccccccccccMDPPPPPPP",
"PPPPPPPPPPPPPPPPPPPPPPPPPPPPPPPPPPPP",
"PPPPPPPPPPPPPPPPPPPPPPPPPPPPPPPPPPPP"
};
