/* XPM */
static char *plot_preview_xpm[] = {
/* columns rows colors chars-per-pixel */
"21 25 60 1",
"  c #2D2D2D2D2D2D",
". c #2E2E2E2E2E2E",
"X c #333333333333",
"o c #343434343434",
"O c #39393F3F4848",
"+ c #3A3A40404949",
"@ c #666666666666",
"# c #717171717171",
"$ c #757579797F7F",
"% c #6F6F7A7A8C8C",
"& c #76767A7A8080",
"* c #70707B7B8C8C",
"= c #B2B2B2B2B2B2",
"- c #C7C7D8D8D9D9",
"; c #C8C8D9D9DADA",
": c #D6D6D8D8D9D9",
"> c #D7D7D9D9DADA",
", c #DBDBDEDEE2E2",
"< c #DCDCDFDFE3E3",
"1 c #D2D2E0E0E1E1",
"2 c #D3D3E1E1E2E2",
"3 c #DFDFE2E2E5E5",
"4 c #DEDEE9E9E9E9",
"5 c #DFDFE9E9EAEA",
"6 c #E0E0E3E3E6E6",
"7 c #E4E4E4E4E4E4",
"8 c #E2E2E5E5E8E8",
"9 c #E3E3E6E6E9E9",
"0 c #E0E0EAEAEBEB",
"q c #E6E6E8E8EBEB",
"w c #E7E7E9E9ECEC",
"e c #E9E9EBEBEEEE",
"r c #EAEAECECEFEF",
"t c #EFEFEFEFEFEF",
"y c #E8E8EFEFF0F0",
"u c #EDEDEEEEF0F0",
"i c #EEEEEFEFF1F1",
"p c #EFEFEFEFF0F0",
"a c #EBEBF2F2F2F2",
"s c #ECECF3F3F3F3",
"d c #F0F0F1F1F3F3",
"f c #F1F1F2F2F4F4",
"g c #F4F4F5F5F6F6",
"h c #F5F5F6F6F7F7",
"j c #F7F7F8F8F9F9",
"k c #F7F7F9F9FAFA",
"l c #F6F6FBFBFBFB",
"z c #F7F7FCFCFCFC",
"x c #F8F8F9F9FAFA",
"c c #F9F9FBFBFBFB",
"v c #FAFAFAFAFBFB",
"b c #FAFAFBFBFBFB",
"n c #FBFBFBFBFBFB",
"m c #FBFBFBFBFCFC",
"M c #FCFCFCFCFCFC",
"N c #FCFCFCFCFDFD",
"B c #FDFDFDFDFDFD",
"V c #FEFEFEFEFEFE",
"C c #FEFEFEFEFFFF",
"Z c #FFFFFFFFFFFF",
/* pixels */
"777777777777777777777",
"777777777777777777777",
"777777777777777777777",
"777777777777777777777",
"7777&O+OOOOOX%p777777",
"7777+VVVVVVVV*Op77777",
"7777+,<<3<<<3%V+p7777",
"7777+36666666%VVOt777",
"7777+88888899%%%%%p77",
"7777+wwwwwmmmw===Ot77",
"7777+wrrrm   nrrrOt77",
"7777+uuuV --- naa+t77",
"7777+afV ,5l22.Vf+t77",
"7777+ghV 5my00 nh+t77",
"7777+kzm aaass Vx+t77",
"7777&++:> zzm X>>$t77",
"7777777777   o@op7777",
"77777777777777o@Xp777",
"777777777777777o#p777",
"777777777777777777777",
"777777777777777777777",
"777777777777777777777",
"777777777777777777777",
"777777777777777777777",
"777777777777777777777"
};
