/* XPM */
static char *publish_xpm[] = {
/* columns rows colors chars-per-pixel */
"24 25 31 1",
"  c #3A3A3A3A3A3A",
". c #3B3B3B3B3B3B",
"X c #3C3C3C3C3C3C",
"o c #3D3D3D3D3D3D",
"O c #3E3E3E3E3E3E",
"+ c #666666666666",
"@ c #676767676767",
"# c #777777777777",
"$ c #787878787878",
"% c #000046468C8C",
"& c #010147478C8C",
"* c #13137676D2D2",
"= c #9797A7A7B2B2",
"- c #9898A8A8B3B3",
"; c #D6D6D6D6D6D6",
": c #D7D7D7D7D7D7",
"> c #D8D8D8D8D8D8",
", c #DADADADADADA",
"< c #DBDBDBDBDBDB",
"1 c gainsboro",
"2 c #DEDEDEDEDEDE",
"3 c #DFDFDFDFDFDF",
"4 c #E4E4E4E4E4E4",
"5 c #EEEEEEEEEEEE",
"6 c #EFEFEFEFEFEF",
"7 c #EAEAEEEEF0F0",
"8 c #EFEFEFEFF0F0",
"9 c #FCFCFCFCFCFC",
"0 c #FDFDFDFDFDFD",
"q c #FEFEFEFEFEFE",
"w c #FFFFFFFFFFFF",
/* pixels */
"444444444444444444444444",
"444444444444444444444444",
"444444444444444444444444",
"444444444444444444444444",
"44446o...ooo.o6444444444",
"44444oqqqqqqqo6444444444",
"4444@.qqqqqqqo@644444444",
"444$..oqqqqqo..#64444444",
"444o333ooo.o333o64444444",
"444o<<3<<<<<3<<o64444444",
"444o::<:<:<::<:o84444444",
"444.qqqqqqqqqqqo84444444",
"444.oooXXXoo.o:<44444444",
"444.XXq=----qo:%84444444",
"444#XXq----7q::%&8444444",
"44466oqqqqqq%%%%*&644444",
"44446$ooooo<%*****&44444",
"444444444444%%%%*%644444",
"444444444444444%%6444444",
"444444444444444444444444",
"444444444444444444444444",
"444444444444444444444444",
"444444444444444444444444",
"444444444444444444444444",
"444444444444444444444444"
};
