/* XPM */
static char *realtime_pan_xpm[] = {
/* columns rows colors chars-per-pixel */
"33 29 12 1",
"  c #404060604040",
". c #606060608080",
"X c #606080808080",
"o c #808080808080",
"O c #8080A0A08080",
"+ c #A0A0A0A0A4A4",
"@ c #A0A0A0A0C0C0",
"# c #A0A0C0C0C0C0",
"$ c #C0C0C0C0C0C0",
"% c #C0C0DCDCC0C0",
"& c #FFFFFBFBF0F0",
"* c #FFFFFFFFFFFF",
/* pixels */
"&&&&&&&&&&&&&&&&&&&&&&&&&&&&&&&&&",
"&&&&&&&&&&&&&&&&&&&&&&&&&&&&&&&&&",
"&&&&&&&&&&&&&&&&&&&&&&&&&&&&&&&&&",
"&&&&&&&&&&&&&&&&&&&&&&&&&&&&&&&&&",
"&&&&&%o XooXooooX+&&&&&&&&&&&&&&&",
"&&&&+. &&&&$$$%$$oo%&&&&&&&&&&&&&",
"&&&& &&$+$%&*$#%*$+.+&&&&&&&&&&&&",
"&&&% %&&&&$#%**$$**#oo$&&&&&&&&&&",
"&&&%.@&&&&&&+%&*$$%&$*o$&&&&&&&&&",
"&&&&+.+%&&&&&+$&&&&$&&*+$&&&&&&&&",
"&&&&%+.o+%&&&*++&**&&***.&&&&&&&&",
"&&&&&%$+X.+&&&*%+$**&***$O&&&&&&&",
"&&&&&&&%$+X$&&***$&**&***o%&&&&&&",
"&&&&&&&&&%+ $$&***&&*&***%O&&&&&&",
"&&&&&&&&&&%o $$&&&*&&*&*&&+%&&&&&",
"&&&&+.... +$o $%&&**&**&*&&o&&&&&",
"&&&&X***&%+o$+@$%&&**&*&&&&$$&&&&",
"&&&&.%&&&**@o+ %%&&&**&&&&&&X&&&&",
"&&&&o.$%&&&*$ +%%&&&&&&&&&&&$+&&&",
"&&&&$o. @%&&*****&&&&&&&&&&&%.&&&",
"&&&&&%$o o$%&&&&&&&&&&&&&&&%$.&&&",
"&&&&&&%$$oo$$$%%&%%%%&&&&%$$o+&&&",
"&&&&&&&&%$. @$$##$$$$$%%%$$o+%&&&",
"&&&&&&&&&%$X +@@@@+++@@$$oX$%&&&&",
"&&&&&&&&&&%$+..Xo++++++o.o$%&&&&&",
"&&&&&&&&&&&&%$o...     .O$%&&&&&&",
"&&&&&&&&&&&&&%$$$$$$$$$$%&&&&&&&&",
"&&&&&&&&&&&&&&&&%%%%%%%&&&&&&&&&&",
"&&&&&&&&&&&&&&&&&&&&&&&&&&&&&&&&&"
};
