/* XPM */
static char *realtime_zoom_xpm[] = {
/* columns rows colors chars-per-pixel */
"39 32 237 2",
"   c #2A2A2D2D3131",
".  c #2B2B2E2E3232",
"X  c #2C2C2F2F3333",
"o  c #333333333333",
"O  c #37373A3A3D3D",
"+  c #38383C3C3F3F",
"@  c #38383C3C4040",
"#  c #3A3A3D3D4040",
"$  c #3A3A3D3D4141",
"%  c #3B3B3D3D4141",
"&  c #3A3A3E3E4242",
"*  c #3B3B3F3F4242",
"=  c #3B3B3F3F4343",
"-  c #3E3E3F3F4141",
";  c #3F3F40404242",
":  c #3D3D40404444",
">  c #414141414141",
",  c #414144444747",
"<  c #444444444444",
"1  c #454545454545",
"2  c #464646464646",
"3  c #404045454949",
"4  c #414144444848",
"5  c #414145454949",
"6  c #414146464A4A",
"7  c #424246464949",
"8  c #454547474B4B",
"9  c #474748484A4A",
"0  c #49494D4D5050",
"q  c #48484E4E5151",
"w  c #49494E4E5151",
"e  c #4A4A4F4F5353",
"r  c #4C4C4F4F5252",
"t  c #4B4B50505353",
"y  c #4E4E51515454",
"u  c #4E4E52525555",
"i  c #505051515353",
"p  c #545455555555",
"a  c #595959595959",
"s  c #59595F5F6262",
"d  c #5D5D5F5F6262",
"f  c #5B5B60606363",
"g  c #5C5C60606363",
"h  c #5D5D61616363",
"j  c #5E5E61616464",
"k  c #5F5F61616464",
"l  c #616167676A6A",
"z  c #63636B6B6D6D",
"x  c #656568686B6B",
"c  c #67676A6A6C6C",
"v  c #6B6B6B6B6B6B",
"b  c #6C6C6C6C6C6C",
"n  c #65656D6D7070",
"m  c #69696F6F7373",
"M  c #6C6C6E6E7171",
"N  c #686871717373",
"B  c #6F6F72727474",
"V  c #6F6F73737676",
"C  c #6E6E74747676",
"Z  c #6E6E75757777",
"A  c #6E6E77777A7A",
"S  c #707071717272",
"D  c #707072727373",
"F  c #717172727474",
"G  c #717173737777",
"H  c #717174747474",
"J  c #717176767777",
"K  c #757577777777",
"L  c #727276767878",
"P  c #727276767979",
"I  c #737377777878",
"U  c #747476767979",
"Y  c #767677777979",
"T  c #767678787979",
"R  c #777778787A7A",
"E  c #787879797A7A",
"W  c #79797A7A7B7B",
"Q  c #7A7A7D7D7E7E",
"!  c #7A7A7E7E7F7F",
"~  c #7C7C7C7C7C7C",
"^  c #7A7A7F7F8080",
"/  c #7B7B80808181",
"(  c #91919B9B9D9D",
")  c #91919B9B9E9E",
"_  c #999999999999",
"`  c #9A9A9A9A9A9A",
"'  c #9B9B9B9B9B9B",
"]  c #9B9B9C9C9C9C",
"[  c #9C9C9C9C9C9C",
"{  c #9D9D9E9E9E9E",
"}  c #9F9F9F9F9F9F",
"|  c #94949E9EA0A0",
" . c #9C9C9F9FA1A1",
".. c #9A9AA5A5A6A6",
"X. c #9E9EA1A1A3A3",
"o. c #A2A2A5A5A7A7",
"O. c #A6A6A6A6A7A7",
"+. c #A8A8A8A8A8A8",
"@. c #A8A8ABABACAC",
"#. c #ADADADADADAD",
"$. c #A4A4B1B1B2B2",
"%. c #A7A7B5B5B7B7",
"&. c #ABABB3B3B5B5",
"*. c #B1B1B6B6B7B7",
"=. c #B4B4B4B4B4B4",
"-. c #B5B5B5B5B5B5",
";. c #B6B6B6B6B6B6",
":. c #B2B2BABABCBC",
">. c #B8B8B8B8B8B8",
",. c #B8B8B9B9B9B9",
"<. c #B9B9B9B9B9B9",
"1. c #B8B8BABABBBB",
"2. c #B9B9BABABABA",
"3. c #BABABABABABA",
"4. c #BABABBBBBDBD",
"5. c #BDBDBDBDBDBD",
"6. c #BABABFBFC1C1",
"7. c #C1C1C1C1C1C1",
"8. c #C2C2C2C2C2C2",
"9. c #C6C6C6C6C6C6",
"0. c #C8C8C8C8C8C8",
"q. c #CACACACACACA",
"w. c #CBCBCBCBCBCB",
"e. c #CDCDCDCDCDCD",
"r. c #CDCDCDCDCECE",
"t. c #CFCFCFCFCFCF",
"y. c #C2C2D0D0D1D1",
"u. c #C2C2D1D1D3D3",
"i. c #C6C6D1D1D2D2",
"p. c #C4C4D3D3D4D4",
"a. c #C7C7D7D7D9D9",
"s. c #C8C8D4D4D5D5",
"d. c #CFCFD8D8D9D9",
"f. c #D0D0D0D0D0D0",
"g. c #D1D1D1D1D1D1",
"h. c #D2D2D2D2D2D2",
"j. c #D4D4D4D4D4D4",
"k. c #D5D5D5D5D5D5",
"l. c #D6D6D6D6D6D6",
"z. c #D7D7D7D7D7D7",
"x. c #D4D4DADADBDB",
"c. c #D9D9D9D9D9D9",
"v. c #D8D8DCDCDDDD",
"b. c #DDDDDDDDDDDD",
"n. c #DEDEDEDEDEDE",
"m. c #DEDEDFDFDFDF",
"M. c #DFDFDFDFDFDF",
"N. c #D5D5DEDEE0E0",
"B. c #CFCFE0E0E1E1",
"V. c #D2D2E1E1E2E2",
"C. c #D2D2E3E3E4E4",
"Z. c #D7D7E4E4E5E5",
"A. c #D6D6E6E6E7E7",
"S. c #D7D7E6E6E7E7",
"D. c #D8D8E7E7E8E8",
"F. c #DADAE7E7E8E8",
"G. c #D9D9E8E8E9E9",
"H. c #DADAE8E8E9E9",
"J. c #DADAE9E9EAEA",
"K. c #DCDCEAEAEBEB",
"L. c #DEDEEBEBECEC",
"P. c #DFDFEBEBECEC",
"I. c #DFDFECECECEC",
"U. c #DFDFECECEDED",
"Y. c #E0E0E0E0E0E0",
"T. c #E1E1E1E1E1E1",
"R. c #E1E1E1E1E2E2",
"E. c #E2E2E2E2E2E2",
"W. c #E3E3E3E3E3E3",
"Q. c #E3E3E3E3E4E4",
"!. c #E4E4E4E4E4E4",
"~. c #E5E5E5E5E5E5",
"^. c #E6E6E6E6E6E6",
"/. c #E6E6E7E7E8E8",
"(. c #E0E0E8E8E8E8",
"). c #E0E0EBEBECEC",
"_. c #E0E0ECECECEC",
"`. c #E1E1EDEDEDED",
"'. c #E1E1EDEDEEEE",
"]. c #E2E2EDEDEDED",
"[. c #E2E2EEEEEEEE",
"{. c #E4E4ECECEDED",
"}. c #E5E5EDEDEEEE",
"|. c #E4E4EEEEEFEF",
" X c #E5E5EFEFEFEF",
".X c #E8E8E8E8E8E8",
"XX c #EAEAEAEAEAEA",
"oX c #EBEBEBEBEBEB",
"OX c #ECECECECECEC",
"+X c #EFEFEFEFEFEF",
"@X c #E5E5EFEFF0F0",
"#X c #E6E6EFEFF0F0",
"$X c #E5E5F0F0F0F0",
"%X c #E6E6F0F0F0F0",
"&X c #E7E7F0F0F0F0",
"*X c #E8E8F1F1F1F1",
"=X c #E9E9F0F0F1F1",
"-X c #E9E9F1F1F1F1",
";X c #E9E9F1F1F2F2",
":X c #EAEAF2F2F3F3",
">X c #EAEAF3F3F3F3",
",X c #EBEBF3F3F3F3",
"<X c #ECECF3F3F3F3",
"1X c #EEEEF2F2F3F3",
"2X c #EDEDF3F3F4F4",
"3X c #ECECF4F4F4F4",
"4X c #EDEDF5F5F5F5",
"5X c #EEEEF4F4F5F5",
"6X c #EEEEF5F5F5F5",
"7X c #EFEFF5F5F5F5",
"8X c #EFEFF5F5F6F6",
"9X c #F0F0F0F0F0F0",
"0X c #F1F1F5F5F5F5",
"qX c #F0F0F6F6F6F6",
"wX c #F0F0F7F7F7F7",
"eX c #F1F1F6F6F6F6",
"rX c #F1F1F6F6F7F7",
"tX c #F1F1F7F7F7F7",
"yX c #F3F3F5F5F5F5",
"uX c #F5F5F6F6F6F6",
"iX c #F5F5F7F7F7F7",
"pX c #F2F2F7F7F8F8",
"aX c #F3F3F8F8F8F8",
"sX c #F4F4F8F8F8F8",
"dX c #F4F4F8F8F9F9",
"fX c #F5F5F8F8F9F9",
"gX c #F5F5F9F9F9F9",
"hX c #F7F7F9F9F9F9",
"jX c #F6F6F9F9FAFA",
"kX c #F6F6FAFAFAFA",
"lX c #F7F7FAFAFAFA",
"zX c #F8F8F9F9F9F9",
"xX c #F8F8FBFBFBFB",
"cX c #F9F9FBFBFBFB",
"vX c #FAFAFBFBFBFB",
"bX c #FBFBFCFCFCFC",
"nX c #FDFDFDFDFDFD",
/* pixels */
"9X9X9X9X9X9X9X9X9X9X9X9X9X9X9X9X9X9X9X9X9X9X9X9X9X9X9X9X9X9X9X9X9X9X9X9X9X9X9X",
"9X9X9X9X9X9X9X9X9X9X9X9X9X9X9X1X9X9X9X9X9X9X9X9X9X9X9X9X9X9X9X9X9X9X9X9X9X9X9X",
"9X9X9X9X9X9X9X9X9X9X9Xg./ s : X   4 s / g.9X9X9X9X9X9X9X9X9X9X9X9X9X9X9X9X9X9X",
"9X9X9X9X9X9X9X9X9Xg.I # A %.a.A.V.u.$.N O J g.1X9X9X9X9X9X9X9X9X9X9X9X9X9X9X9X",
"9X9X9X9X9X9X9X+X<.e z p.A.A.A.A.A.A.A.A.u.n q <.+X9X9X9X9X9X9X9X9X9X9X9X9X9X9X",
"9X9X9X9X9X9X+X<.# ( V.D.D.L.L.L.H.G.G.H.H.A.) @ >.+X9X+X9X9X9X9X9X9X9X9X9X9X9X",
"9X9X9X9X9X9Xt.t ..H.H.L.`.;X8X;XI.J.J.J.H.H.A.| e t.1X+X9X9X9X9X9X9X9X9X9X9X9X",
"9X9X9X9X9XoXI m A.L.P.[.qXkXkXqXU.P.J.J.J.P.J.H.l J oX9X9X9X9X9X9X9X9X9X9X9X9X",
"9X9X9X9X+Xw.+ s.I.`.%X8XlXlXkX;X`.`.P.P.I.I.`.`.i.# w.+X9X9X9X9X9X9X9X9X9X9X9X",
"9X9X9X9X+X! C P.`.%X8XkXlXlXqX X`.`.`.`.`.`.`.`.`.C Q oX9X9X9X9X9X9X9X9X9X9X9X",
"9X9X9X9X^.d :.[. X<XkXlXlXkX>X X[. X X X[.[.[.[.[.&.d ^.9X9X9X9X9X9X9X9X9X9X9X",
"9X9X9X9XR., N. X;XqXcXlXkX8X;X%X#X X#X#X#X#X%X X#Xd.4 R.9X9X9X9X9X9X9X9X9X9X9X",
"9X9X9X9XM.  %X;X<XaXxXxX8X>X%X>X;X;X;X;X;X;X%X;X;X{.  M.9X9X9X9X9X9X9X9X9X9X9X",
"9X9X9X9XM.  ;X;X8XaXkX8X<X;X;X>X:X:X;X;X;X;X>X>X;X[.  M.9X9X9X9X9X9X9X9X9X9X9X",
"9X9X9X9XM.4 K.8X8X8X7X8X8X>X<X8X>X8X8X;X8X>X>X1X8Xx.4 M.9X9X9X9X9X9X9X9X9X9X9X",
"9X9X9X9XM.d 5.8X8X8X8X8X8X8X7X7X8X8X8XqX8X8X8X8X8X*.d M.9X9X9X9X9X9X9X9X9X9X9X",
"9X9X9X9XR.Y I 8XrXqXrXqXaXqXaXrXqX8XkX8XqXrXrXqXaXV H R.9X9X9X9X9X9X9X9X9X9X9X",
"9X9X9X9X^.;.# v.kXrXkXkXaXaXaXkXkX8XsXkXfXfXkXrXv.# ;.^.9X9X9X9X9X9X9X9X9X9X9X",
"9X9X9X9X+Xl.V B 1XkXkXkXkXkXjXjXkXkXkXkXfXjXfXyXx D l.OX9X9X9X9X9X9X9X9X9X9X9X",
"9X9X9X9X9XR.;.y @.lXjXcXcXlXbXbXlXcXlXlXcXcXuXO.e 8 ;.9X9X9X9X9X9X9X9X9X9X9X9X",
"9X9X9X9X9XoXc.] # X.qXbXbXbXbXbXbXbXnXvXnXlX .O p ` - > oX9X9X9X9X9X9X9X9X9X9X",
"9X9X9X9X9X9XoXj.' y v !.bXbXbXbXbXbXbXvXN.b r i o 1 ` b > oX9X9X9X9X9X9X9X9X9X",
"9X9X9X9X9X9X+XoXl.#.G - Y 4.^.lXzXR.<.G - S O.} - o 1 ` b - oX+X9X9X9X9X9X9X9X",
"9X9X9X9X+X+X+X+X^.c.9.O.Y d 8 X X 8 l H +.0.k.e.- o o 1 ` v - oX9X9X9X9X9X9X9X",
"9X9X9X9X9X9X9X9X9XoXR.l.w.3.<.<.<.<.3.w.l.^.oXR.7.- o o 1 ] v - oX9X9X9X9X9X9X",
"9X9X9X9X9X9X9X9X9X9X9X+X^.R.M.M.M.M.R.^.oX9X9XoXc.5.- o o 1 ' b - oX9X9X9X9X9X",
"9X9X9X9X9X9X9X9X9X9X9X9X+X9X9X9X+X9X9X9X9X9X9X9X+Xc.5.- o o 1 ] b > oX+X9X9X9X",
"9X9X9X9X9X9X9X9X9X9X9X9X9X9X9X9X9X9X9X9X9X9X9X9X+XoXc.5.> o o 1 ] p W oX9X9X9X",
"9X9X9X9X9X9X9X9X9X9X9X9X9X9X9X9X9X9X9X9X9X9X9X9X9X9XoXc.5.- o o > ~ - R.9X9X9X",
"9X9X9X9X9X9X9X9X9X9X9X9X9X9X9X9X9X9X9X9X9X9X9X9X9X9X9XoXc.5.; o o - W M.9X9X9X",
"9X9X9X9X9X9X9X9X9X9X9X9X9X9X9X9X9X9X9X9X9X9X9X9X9X9X9X9XoXc.5.W - W 7.R.9X9X9X",
"9X9X9X9X9X9X9X9X9X9X9X9X9X9X9X9X9X9X9X9X9X9X9X9X9X9X9X+X+X+Xc.8.<.7.c.oX9X9X9X"
};
