/* XPM */
static char *realistic_xpm[] = {
/* columns rows colors chars-per-pixel */
"62 61 243 2",
"   c #003700370037",
".  c #0E0E0E0E0E0E",
"X  c #000000001818",
"o  c #144713131313",
"O  c #191914141414",
"+  c #1BD31A631A63",
"@  c #060606062525",
"#  c #0D0D0D0D2626",
"$  c #0A0A0A0A2E2E",
"%  c #0000000030B0",
"&  c #0D0D0D0D39E4",
"*  c #151515153E3E",
"=  c #334800260026",
"-  c #389F09D709D7",
";  c #261726172626",
":  c #2AD52AD52AD5",
">  c #232323233D3D",
",  c #2C2C2C2C3F3F",
"<  c #3474347434F5",
"1  c #3B5B3B5B3B5B",
"2  c #000000004C61",
"3  c #0E8E0E8E4ECF",
"4  c #008000805285",
"5  c #0BAC0BAC5353",
"6  c #121212124040",
"7  c #135313534C8C",
"8  c #1F1F1F1F44C4",
"9  c #1AF61AF64B94",
"0  c #131313135050",
"q  c #1F1F1F1F51D2",
"w  c #1C1C1C1C5858",
"e  c #02C302C3643D",
"r  c #01F701F76AFB",
"t  c #0B0B0B0B6565",
"y  c #01340134749D",
"u  c #009600967979",
"i  c #0B300B307709",
"p  c #0DB80DB8794E",
"a  c #139413946DED",
"s  c #1C1C1C1C6E18",
"d  c #12F912F97629",
"f  c #13D413D478F9",
"g  c #1B541B54753C",
"h  c #1D8F1D8F7878",
"j  c #246424644444",
"k  c #23BD23BD4B7E",
"l  c #282828284848",
"z  c #2BAC2BAC53D4",
"x  c #2D2D2D2D5858",
"c  c #31DC31DC4DF8",
"v  c #31B231B252D3",
"b  c #323232325D5D",
"n  c #3C923C925656",
"m  c #222222226262",
"M  c #2BAC2BAC64E4",
"N  c #29D429D46C16",
"B  c #23E423E47575",
"V  c #23DB23DB7878",
"C  c #2A2A2A2A7474",
"Z  c #2BBE2BBE7878",
"A  c #329D329D6479",
"S  c #358535856D6D",
"D  c #37373A3A6D6D",
"F  c #3B603B6065F8",
"G  c #3D3D3D3D6A6A",
"H  c #351335137426",
"J  c #333333337878",
"K  c #3C3C3C3C74DB",
"L  c #3B7B3B7B7878",
"P  c #3E3E49497070",
"I  c #3D3D48487D7D",
"U  c #44440C0C0C0C",
"Y  c #48480F0F0F0F",
"T  c #40401E1E1E1E",
"R  c #4ACA1C1C1C1C",
"E  c #414122A322A3",
"W  c #4B4B2A2A2A2A",
"Q  c #41413BBC3BBC",
"!  c #55553E3E3E3E",
"~  c #58583C3C3C3C",
"^  c #6A6A18181818",
"/  c #7B7B1E1E1E1E",
"(  c #6C6C24242424",
")  c #5D5D36364343",
"_  c #444444444444",
"`  c #49C949C949C9",
"'  c #444444445353",
"]  c #494949495757",
"[  c #4D4D4D4D5CDD",
"{  c #46465C5C5C5C",
"}  c #4F4F52125212",
"|  c #4E4E50505F5F",
" . c #575746464646",
".. c #585849494949",
"X. c #542F542F542F",
"o. c #5C425C425C42",
"O. c #444444446060",
"+. c #4E4E4E4E6060",
"@. c #439943EE7474",
"#. c #454545457878",
"$. c #46464E4E7676",
"%. c #4E4E4F4F7676",
"&. c #4C4C4C4C7979",
"*. c #444450506464",
"=. c #4A4A54546A6A",
"-. c #484855557777",
";. c #4A4A59597D7D",
":. c #555555556060",
">. c #50D050D06D6D",
",. c #5B5B5B5B6464",
"<. c #515151517575",
"1. c #54545B5B7B7B",
"2. c #595959597575",
"3. c #4F4F66667F7F",
"4. c #505061616B6B",
"5. c #56566F6F6F6F",
"6. c #585860606E6E",
"7. c #5A5A68686F6F",
"8. c #5F5F67677B7B",
"9. c #545470707878",
"0. c #5C5C72727272",
"q. c #5F5F7A7A7F7F",
"w. c #616146464646",
"e. c #64645C5C5C5C",
"r. c #6F6F54545454",
"t. c #797948484848",
"y. c #64AB64AB64AB",
"u. c #616163636C6C",
"i. c #6D6D67676767",
"p. c #6B856B046B04",
"a. c #656565657575",
"s. c #6BEC6DEE7676",
"d. c #69696C6C7B7B",
"f. c #74417441745A",
"g. c #727272727878",
"h. c #77777E7E7E7E",
"j. c #7A5A7A5A7A5A",
"k. c #3B3B46468181",
"l. c #3D3D5F5F9595",
"z. c #4A4A53538080",
"x. c #4C4C5C5C8080",
"c. c #525267678888",
"v. c #53536C6C8686",
"b. c #5C5C77778B8B",
"n. c #5D5D7E7E8E8E",
"m. c #61617E7E8E8E",
"M. c #727272728181",
"N. c #5F5F83838383",
"B. c #5C5C86868F8F",
"V. c #5C5C86869A9A",
"C. c #5DDD8A099696",
"Z. c #5F5F8B8B9B9B",
"A. c #5E5E9797A1A1",
"S. c #5EDF9C1BA5A5",
"D. c #5F5F9D9DAAAA",
"F. c #5D5DA4A4B3B3",
"G. c #5F5FA8A8B0B0",
"H. c #5E5EB0B0B8B8",
"J. c #62628B8B8B8B",
"K. c #62628A8A9494",
"L. c #626291919191",
"P. c #666693939B9B",
"I. c #696996969C9C",
"U. c #6BEC9A199A19",
"Y. c #727280808383",
"T. c #74748B8B8B8B",
"R. c #71F196969696",
"E. c #72A59B019B01",
"W. c #60609696A0A0",
"Q. c #6262A4A4A4A4",
"!. c #6262A3A3ADAD",
"~. c #6464AF2EAF2E",
"^. c #6E6EA4A4A4E4",
"/. c #6DEEA928A928",
"(. c #6464AD02B1B1",
"). c #6262B6B6BCBC",
"_. c #650FBC66BEBE",
"`. c #6B9EB44DB44D",
"'. c #6969BE68BE68",
"]. c #76F7A423A423",
"[. c #7474B5B5B5B5",
"{. c #6464BDBDC1C1",
"}. c #65B1C4F1C67A",
"|. c #6565C6C6C8C8",
" X c #6668CCBBCCBB",
".X c #68BEC36DC36D",
"XX c #6868C8C8C8C8",
"oX c #7070C0C0C0C0",
"OX c #97971E1E1E1E",
"+X c #8F8F34343434",
"@X c #961622222222",
"#X c #949429292929",
"$X c #BFBF1E1E1E1E",
"%X c #AFAF29292929",
"&X c #969648484B4B",
"*X c #8D8D64646464",
"=X c #949479797979",
"-X c #BC11459B459B",
";X c #BABA4D4D4D4D",
":X c #B7B752525252",
">X c #B2B258585858",
",X c #A0A06B6B6B6B",
"<X c #CE4E15151515",
"1X c #D5D51A1A1A1A",
"2X c #DCDC14141414",
"3X c #DEDE1C1C1C1C",
"4X c #C2C23D3D3D3D",
"5X c #CECE33333333",
"6X c #D4D426262626",
"7X c #D57F2C822C82",
"8X c #DADA27272727",
"9X c #ED420B610B61",
"0X c #E3E313131313",
"qX c #E1E11C9C1C9C",
"wX c #EC4113BE13BE",
"eX c #F4F405850585",
"rX c #F4CF0AC20AC2",
"tX c #FF98005B005B",
"yX c #C8C846464646",
"uX c #C1C16B6B6B6B",
"iX c #863086308630",
"pX c #85858B8B8B8B",
"aX c #8A8A85858585",
"sX c #8C618B8B8B8B",
"dX c #820196169616",
"fX c #88889D9D9D9D",
"gX c #92928D0D8D0D",
"hX c #92E892E892E8",
"jX c #929295149C1C",
"kX c #9AF69B089B08",
"lX c #A4A49F9F9F9F",
"zX c #A33CA33CA33C",
"xX c #A8A8A3A3A3A3",
"cX c #AAAAAAAAAAAA",
"vX c #B1CFB1C5B1C5",
"bX c #BDBDBDBDBDBD",
"nX c #CCD9CCD9CCD9",
"mX c #D632D632D632",
"MX c #DBBBDBBBDBBB",
"NX c #E435E435E435",
"BX c #ECC1ECC1ECC1",
"VX c #F484F484F484",
"CX c #FFFAFFFAFFFA",
/* pixels */
"CXCXCXCXCXCXCXCXCXCXCXCXCXCXCXCXCXCXCXCXCXCXCXCXCXCXCXCXCXCXCXCXCXCXCXCXCXCXCXCXCXCXCXCXCXCXCXCXCXCXCXCXCXCXCXCXCXCXCXCXCXCX",
"CXCXVXMXnXnXnXnXnXnXnXnXnXnXnXnXnXnXnXnXnXnXnXnXnXnXnXnXnXnXnXnXnXnXnXnXnXnXnXnXnXnXnXnXnXnXnXnXnXnXnXnXnXnXnXnXnXnXMXBXCXCX",
"CXVXmXVXCXCXCXCXCXCXCXCXCXCXCXCXCXCXCXCXCXCXCXCXCXCXCXCXCXCXCXCXCXCXCXCXCXCXCXCXCXCXCXCXCXCXCXCXCXCXCXCXCXCXCXCXCXCXVXmXBXCX",
"CXMXVXCXCXCXCXCXCXCXCXCXCXCXCXCXCXCXCXCXCXCXCXCXCXCXCXCXCXCXCXCXCXCXCXCXCXCXCXCXCXCXCXCXCXCXCXCXCXCXCXCXCXCXCXCXCXCXCXCXmXCX",
"CXnXCXCXCXCXCXCXCXCXCX X X X X X X X X X X X X X X X X X X X X X X X X X X X X X X X X X X X X X X X X XCXCXCXCXCXCXCXCXnXCX",
"CXnXCXCXCXCXCXCXCXCXCX X X X X X X X X X X X X}. X X X X X X X X X X X X X X X X X X X X X X X X X X X XCXCXCXCXCXCXCXCXnXCX",
"CXnXCXCXCXCXCXCXCXCXCX X X X X X X X X X X X XE.}. X X X X X X X X X X X X X X X X X X X X X X X X X X XCXCXCXCXCXCXCXCXnXCX",
"CXnXCXCXCXCXCXCXCXCXCX X X X X X X X X X X X.Xj.E. X X X X X X X X X X X X X X X X X X X X X X X X X X XCXCXCXCXCXCXCXCXnXCX",
"CXnXCXCXCXCXCXCXCXCXCX X X X X X X X X X X XR.j.h..X X X X X X X X X X X X X X X X X X X X X X X X X X XCXCXCXCXCXCXCXCXnXCX",
"CXnXCXCXCXCXCXCXCXCXCX X X X X X X X X X X.Xh.j.s.^. X X X X X X X X X X X X X X X X X X X X X X X X X XCXCXCXCXCXCXCXCXnXCX",
"CXnXCXCXCXCXCXCXCXCXCX X X X X X X X X X X/.d.2.s.T.XX X X X X X X X X|..XaX'. X X X X X X X X X X X X XCXCXCXCXCXCXCXCXnXCX",
"CXnXCXCXCXCXCXCXCXCXCX X X X X X X X X X.XT.%.K f.,./. X X X X X X X X.X>XqXyXiX'. X X X X X X X X X X XCXCXCXCXCXCXCXCXnXCX",
"CXnXCXCXCXCXCXCXCXCXCX X X X X X X X X X^.1.L K >.u.9.}. X X X X X X.X:XrXtXeXqXyX=X].|.|. X X X X X X XCXCXCXCXCXCXCXCXnXCX",
"CXnXCXCXCXCXCXCXCXCXCX X X X X X X X X Xn.#.L K F [ 7.`. X X X X|.'.;XrXtXtXtXtXeXwX5X,X].XX X X X X X XCXCXCXCXCXCXCXCXnXCX",
"CXnXCXCXCXCXCXCXCXCXCX X X X X X X X X`.M.$.p K F n +.E. X X X X`.;XrXtXtXtXtXtXtXtXtXrXwX;XE.|. X X X XCXCXCXCXCXCXCXCXnXCX",
"CXnXCXCXCXCXCXCXCXCXCX X X X X X X X XR.%.K i K F F n 4.`. X XdX4XrXtXtXtXtXtXtXtXtXtXtXtXtXrX-X^. X X XCXCXCXCXCXCXCXCXnXCX",
"CXnXCXCXCXCXCXCXCXCXCX X X X X X X X`.;.L L L r G b * [ E.|.E.8XtXtXtXtXtXtXtXtXtXtXtXtXtXtXtX3Xe. X X XCXCXCXCXCXCXCXCXnXCX",
"CXnXCXCXCXCXCXCXCXCXCX X X X X X X X^.8.f J L r F w l ] q.pX7XtXtXtXtXtXtXtXtXtXtXtXtXtXtXeX1XR !  X X XCXCXCXCXCXCXCXCXnXCX",
"CXnXCXCXCXCXCXCXCXCXCX X X X X X X_.b.@.f Z L r F 5 n c ) 8XtXtXtXtXtXtXtXtXtXtXtXtXtXtXrX#XR = !  X X XCXCXCXCXCXCXCXCXnXCX",
"CXnXCXCXCXCXCXCXCXCXCX X X X X X|.A.$.H J i J r S 5 v l &X0XeXtXtXtXtXtXtXtXtXtXtXtXtX9X@X- = = !  X X XCXCXCXCXCXCXCXCXnXCX",
"CXnXCXCXCXCXCXCXCXCXCX X X X X X.Xn.@.d J i H r H 5 z v sX*X%X2XtXtXtXtXtXtXtXtXtXtX9X@XU = = = !  X X XCXCXCXCXCXCXCXCXnXCX",
"CXnXCXCXCXCXCXCXCXCXCX X X X X X~.;.H f Z i H r D 5 x l iXp.< t.yX7X9XtXtXtXtXtXtX0XOXU = = = = !  X X XCXCXCXCXCXCXCXCXnXCX",
"CXnXCXCXCXCXCXCXCXCXCX X X X X}.C.S B p Z i H r S 4 q j < ` _ y.zXw.+X1XrXtXtXtX<X/ U = = = = = !  X X XCXCXCXCXCXCXCXCXnXCX",
"CXnXCXCXCXCXCXCXCXCXCX X X X XG.-.S g p B i H r K 4 3 +.o.o.hXf.p.: ; r.,X5XwX<X^ - = = = = = = !  X X XCXCXCXCXCXCXCXCXnXCX",
"CXnXCXCXCXCXCXCXCXCXCX X X X|.A.S N f V d y S r S 4 0 O.M.j.o.` + o.o.p.vX~ ( ( - = = = = = = = !  X X XCXCXCXCXCXCXCXCXnXCX",
"CXnXCXCXCXCXCXCXCXCXCX X X X).v.N h f V p y H r S 4 5 z v ` + } p.p.cX1 X.; O W = = = = = = = = !  X X XCXCXCXCXCXCXCXCXnXCX",
"CXnXCXCXCXCXCXCXCXCXCX X X|.S.S C B y Z p y S r D 4 3 z @ _ f.j.cX} ` ` o sXp.W = = = = = = = = !  X X XCXCXCXCXCXCXCXCXnXCX",
"CXnXCXCXCXCXCXCXCXCXCX X X).c.M s h y Z i y H r t M 5 9 j | zXy.1 X.. gXiXj.lXW = = = = = = = = !  X X XCXCXCXCXCXCXCXCXnXCX",
"CXnXCXCXCXCXCXCXCXCXCX X XH.D S h p f h i y H r e A 4 7 j # ; } + f.kXX.vXo o W = = = = = = = = !  X X XCXCXCXCXCXCXCXCXnXCX",
"CXnXCXCXCXCXCXCXCXCXCX X}.K.M s B u V d y y H r e A 2 7 k > ; e.cXp.cX: . i.O W = = = = = = = = !  X X XCXCXCXCXCXCXCXCXnXCX",
"CXnXCXCXCXCXCXCXCXCXCX X).F N a h u V d y H r r t A 2 0 k z jXhXkX_   1 + Y.xXW = = = = = = = = !  X X XCXCXCXCXCXCXCXCXnXCX",
"CXnXCXCXCXCXCXCXCXCXCX XP.m s h p u V f y J r r 4 A 2 5 k * a.o.o 1 : sXvXf.iXW = = = = = = = = .. X X XCXCXCXCXCXCXCXCXnXCX",
"CXnXCXCXCXCXCXCXCXCXCX|.I.S a B u i V p y J r e 4 A 2 0 k & X < _ j.cXj.y.Q + W = = = = = = = T J. X X XCXCXCXCXCXCXCXCXnXCX",
"CXnXCXCXCXCXCXCXCXCXCX XI.s d V u f f i y J r r r A 2 2 0 8 $ ,.zXs.o.< O o.o.W = = = = = - E J. X X X XCXCXCXCXCXCXCXCXnXCX",
"CXnXCXCXCXCXCXCXCXCXCX|.!.s g d u h f y y J r e 4 A 4 2 9 8 & ] X.1 O o.f.iXgXW = = = = - } L. X X X X XCXCXCXCXCXCXCXCXnXCX",
"CXnXCXCXCXCXCXCXCXCXCX X}.c.Z u u V f y r J r r t A 2 2 9 8 % , ; o.j.f.hX_ Q W = = = - } ~. X X X X X XCXCXCXCXCXCXCXCXnXCX",
"CXnXCXCXCXCXCXCXCXCXCX X|.(.k.i u h f y y H r r r A 4 2 9 8 % l g.f.pXQ < ` 1 W = = - } ~. X X X X X X XCXCXCXCXCXCXCXCXnXCX",
"CXnXCXCXCXCXCXCXCXCXCX X X|.F.l.f h f y r H e e e A 4 2 7 9 * *.jXy.; X.` h.gXW = - } ~.|. X X X X X X XCXCXCXCXCXCXCXCXnXCX",
"CXnXCXCXCXCXCXCXCXCXCX X X X X).V.;.d y y H r r 4 A 4 2 7 =.B.~.oXU.{ kXzXo.i.W E 0.~. X X X X X X X X XCXCXCXCXCXCXCXCXnXCX",
"CXnXCXCXCXCXCXCXCXCXCX X X X X X}.{.D.C.I %.S S K <.P C.S.{.XX|. XXX{.[.fX; O  .N..X X X X X X X X X X XCXCXCXCXCXCXCXCXnXCX",
"CXnXCXCXCXCXCXCXCXCXCX X X X X X X X|. X}.}.|.}.}.}.}. X|. X X X X X X X|.Q.5.U.XX X X X X X X X X X X XCXCXCXCXCXCXCXCXnXCX",
"CXnXCXCXCXCXCXCXCXCXCX X X X X X X X X X X X X X X X X X X X X X X X X X X X X X X X X X X X X X X X X XCXCXCXCXCXCXCXCXnXCX",
"CXnXCXCXCXCXCXCXCXCXCX X X X X X X X X X X X X X X X X X X X X X X X X X X X X X X X X X X X X X X X X XCXCXCXCXCXCXCXCXnXCX",
"CXnXCXCXCXCXCXCXCXCXCX X X X X X X X X X X X X X X X X X X X X X X X X X X X X X X X X X X X X X X X X XCXCXCXCXCXCXCXCXnXCX",
"CXnXCXCXCXCXCXCXCXCXCX X X X X X X X X X X X X X X X X X X X X X X X X X X X X X X X X X X X X X X X X XCXCXCXCXCXCXCXCXnXCX",
"CXnXCXCXCXCXCXCXCXCXCXCXCXCXCXCXCXCXCXCXCXCXCXCXCXCXCXCXCXCXCXCXCXCXCXCXCXCXCXCXCXCXCXCXCXCXCXCXCXCXCXCXCXCXCXCXCXCXCXCXnXCX",
"CXnXCXCXCXCXCXCXCXCXCXCXCXCXCXCXCXCXCXCXCXCXCXCXCXCXCXCXCXCXCXCXCXCXCXCXCXCXCXCXCXCXCXCXCXCXCXCXCXCXCXCXCXCXCXCXCXCXCXCXnXCX",
"CXnXCXCXCXCXCXCXCXCXCXCXCXCXCXCXCXCXCXCXCXCXCXCXCXCXCXCXCXCXy.vXCXCXCXCXCXCXCXCXCXCXCXCXCXCXCXCXCXCXCXCXCXCXCXCXCXCXCXCXnXCX",
"CXnXCXCXCXCXCXCXCXCXCXVX1       nXCXCXCXCXCXCXCXCXCXCXCXCXCXi.vXmX; VXCXCXCXCXCXkXcXCXBX  NXCXCXCXCXCXCXCXCXCXCXCXCXCXCXnXCX",
"CXnXCXCXCXCXCXCXCXCXCXVX1 NXCXMX; VXCXCXCXCXCXCXCXCXCXCXCXCXy.cXCXCXCXCXCXCXCXCXkXvXCXCXCXCXCXCXCXCXCXCXCXCXCXCXCXCXCXCXnXCX",
"CXnXCXCXCXCXCXCXCXCXCXVX1 NXCXVX1 NXCXbX    ` CXmX      vXCXy.vXmX; VXbX      vX      vX  NXVX1     iXCXCXCXCXCXCXCXCXCXnXCX",
"CXnXCXCXCXCXCXCXCXCXCXVX1 NXCXmX` CXmXiXCXCXkXcXCXCXCXBX  NXy.vXmX; MX; VXCXbXNXkXvXCXBX  NXkXiXCXCXCXCXCXCXCXCXCXCXCXCXnXCX",
"CXnXCXCXCXCXCXCXCXCXCXVX1     ` CXCXkX        iXCXy.      NXy.vXmX; NX1   NXCXCXkXvXCXBX  MX1 NXCXCXCXCXCXCXCXCXCXCXCXCXnXCX",
"CXnXCXCXCXCXCXCXCXCXCXVX1 NXBX  NXCXkXvXCXCXCXCXy.iXCXVX1 NXy.vXMX; VXCXVX1   nXkXvXCXBX  MX1 NXCXCXCXCXCXCXCXCXCXCXCXCXnXCX",
"CXnXCXCXCXCXCXCXCXCXCXVX1 NXCXmX; VXmX; VXCXmXvXy.nXCXMX  NXy.vXmX; NXiXCXCXy.nXkXvXCXBX  NXkXiXCXCXCXCXCXCXCXCXCXCXCXCXnXCX",
"CXnXCXCXCXCXCXCXCXCXCXVX1 NXCXCXbX  NXbX      vXmX    ; 1 NXy.cXmX; NX1     ` CXmX    vX  NXVX1     iXCXCXCXCXCXCXCXCXCXnXCX",
"CXnXCXCXCXCXCXCXCXCXCXCXCXCXCXCXCXCXCXCXCXCXCXCXCXCXCXCXCXCXCXCXCXCXCXCXCXCXCXCXCXCXCXCXCXCXCXCXCXCXCXCXCXCXCXCXCXCXCXCXnXCX",
"CXnXCXCXCXCXCXCXCXCXCXCXCXCXCXCXCXCXCXCXCXCXCXCXCXCXCXCXCXCXCXCXCXCXCXCXCXCXCXCXCXCXCXCXCXCXCXCXCXCXCXCXCXCXCXCXCXCXCXCXnXCX",
"CXmXVXCXCXCXCXCXCXCXCXCXCXCXCXCXCXCXCXCXCXCXCXCXCXCXCXCXCXCXCXCXCXCXCXCXCXCXCXCXCXCXCXCXCXCXCXCXCXCXCXCXCXCXCXCXCXCXCXCXmXVX",
"CXBXMXCXCXCXCXCXCXCXCXCXCXCXCXCXCXCXCXCXCXCXCXCXCXCXCXCXCXCXCXCXCXCXCXCXCXCXCXCXCXCXCXCXCXCXCXCXCXCXCXCXCXCXCXCXCXCXCXMXBXCX",
"CXCXBXmXnXnXnXnXnXnXnXnXnXnXnXnXnXnXnXnXnXnXnXnXnXnXnXnXnXnXnXnXnXnXnXnXnXnXnXnXnXnXnXnXnXnXnXnXnXnXnXnXnXnXnXnXnXnXmXNXCXCX"
};
