/* XPM */
static char const * redo_xpm[] = {
"16 16 4 1",
" 	c None",
".	c #FFFFFF",
"+	c #008000",
"@	c #00FF00",
"................",
".....++.........",
".....+@++.......",
".....+@@@++.....",
".....+@@@@@+....",
"++++++@@@@@@+...",
"+@@@@@@@@@@@@+..",
"+@@@@@@@@@@@@@+.",
"+@@@@@@@@@@@@@+.",
"+@@@@@@@@@@@@+..",
"++++++@@@@@@+...",
".....+@@@@@+....",
".....+@@@++.....",
".....+@++.......",
".....++.........",
"................"};
