/* XPM */
static const char * rotate_xpm[] = {
"16 16 7 1",
" 	c None",
".	c #C0C0C0",
"+	c #FF0000",
"@	c #000000",
"#	c #00FF00",
"$	c #FFFF00",
"%	c #808000",
"................",
"................",
"................",
"......+@@@@@@@@.",
"....++@######@@.",
"...+$@######@%@.",
"..+$@@@@@@@@%%@.",
"..+$@.$.$.$@%%@.",
"..++@$.$.$.+%%@.",
"..+$++$.$.$++%@.",
"..+$$$++++++$+@.",
"...+$$$$$$$$$$+.",
"....++$$$$$$$$+.",
"......++++++$+..",
"...........++...",
"...........+...."};
