/* XPM */
static char *saveas_xpm[] = {
/* columns rows colors chars-per-pixel */
"38 36 72 1",
"  c #92925CDD5E5E",
". c #92925F5F6161",
"X c #939365656666",
"o c #959571717272",
"O c #DADA26262C2C",
"+ c #DCDC29292D2D",
"@ c #DCDC2E2E3232",
"# c #DBDB31313636",
"$ c #DCDC37373B3B",
"% c #DEDE39393C3C",
"& c #E4E41A1A2121",
"* c #E6E625252C2C",
"= c #E7E72B2B3232",
"- c #EAEA3E3E4444",
"; c #DF5F42424545",
": c #DFDF43C44848",
"> c #E0E044444545",
", c #E2E247474848",
"< c #E2E24BA14BF6",
"1 c #E2E24F4F5353",
"2 c #E36253135515",
"3 c #E4E45D5D5D5D",
"4 c #E3E35B5B6060",
"5 c #E3E360606565",
"6 c #E0E065656969",
"7 c #E6E66B6B7070",
"8 c #E8E874747777",
"9 c #F2F269696D6D",
"0 c #878787878787",
"q c #8A788A788A78",
"w c #9696969696C9",
"e c #979797979898",
"r c #999997979797",
"t c #9BE19AF79AF7",
"y c #A4DEA4E4A4F0",
"u c #A7A7A7A7A8A8",
"i c #AE72AE72AE72",
"p c #B1C8B1C4B1C4",
"a c #BC58BB3DBBAB",
"s c #EB6A91109393",
"d c #E7E7A0A0A2A2",
"f c #EEEEB6B6B7B7",
"g c #EEEEBABABCBC",
"h c #F3F3B7B7B9B9",
"j c #C419C3C3C419",
"k c #CD46CD3ACD77",
"l c #CF79CFCFD0D0",
"z c #CFCFD0D0D17B",
"x c #D388D3EAD480",
"c c #D7D7D7D7D8D8",
"v c #D7D7D8D8D92E",
"b c #DB74DC02DC42",
"n c #DFC8E0E0E1CA",
"m c #E9E9D5D5D7D7",
"M c #F3F3C4C4C6C6",
"N c #F1F1D8D8D9D9",
"B c #F9F9D6D6D8D8",
"V c #F9F9D8D8D9D9",
"C c #F2F2DFDFE0E0",
"Z c #E563E5BAE64D",
"A c #E73CE7E7E8E8",
"S c #E7E7E8E8E9E9",
"D c #ECC0ED07ED4B",
"F c #EFEFEFEFF0F0",
"G c #EFEFF0F0F130",
"H c #ECECFBFBFBFB",
"J c #FCFCE9E9EAEA",
"K c #F188F19EF1AF",
"L c #F6F6F7F7F8F8",
"P c #F5D5FAFAFB1A",
"I c #FEFEF7F7F7F7",
"U c #FDF9FE32FE55",
/* pixels */
"KKKDKKKDDKKKDKKKKLDKLDKKKKDKKKKKFKFKKK",
"DKKKKKKKKKKKKKKDKDKKDDKDKKKKKKKKKKKDKK",
"KKKKDKKKKKKKKDKKKKKDDLKKKKKKFKKFKFKKDK",
"KKDKKKKDkkkkkkkkkkkkkkSKKDKKKKFKFKFKKK",
"KKKKKKDZpppppppppppppppDKKKDFDKKKKKKKK",
"KDKKKKGmpUUUUUUUUUUUUSpADKKKKKKKKDKKKD",
"KKKKKGGnpUUUUUUUUUUUUDpwJGKKKKKDKKKKKK",
"DKDGKGGnpUq0jqqq00qyUDpxpnKKDKKKKKKDKK",
"KKKKGGDnpULLLDKKKKDKIDpnapGGGGGKGGGDLD",
"KKKDGSAbpUttkttttttiUDpbpqpDZZZZZZSDLD",
"KKKKptkppUUIUUPPUULULDpvpxppaaaaajekDK",
"KDKKyuUIpUiibipiiiiaUSpvpxpUUUUIUUraKK",
"KKKKyyUDpULLLIILILIPLSpvpxpKIUVVUUtjKK",
"DKKKyyUDpUiiZiiiiiiaISpvpxpGUJ2fUUtaKK",
"KKKKyuUKpUILPLLLLLLLLApxpxpGI8+hIItaKD",
"KKKDyyUDpUaaGapaaapaLSpxpxpPs>1:>,XaKK",
"KDKKyuUKpUUUUUUUUUUULApxpxpd:32>#* aKK",
"KKKDyuUDpUaaDaaaaaaaKApxpxp6<31;%=.aKD",
"KKDLyyUDpULLIILLIKLLKZpxpxpm222%O& aKD",
"KKKDyuUDpIZZLZZZZZZZKnpxpzpHg;:379oaKK",
"KKKKyuUDpILKLKLKDKGDDnpxpkpSPs+MUUtaKK",
"DKKKyyUDpppppppppppppppxpxpAPP5fPUtjKK",
"FKKKyuULKpvnnbbbbbbbbbzkpzpAKPCNLUtaKD",
"KKKKyuUKLppppppppppppppppkpAGKPLLUtaDL",
"FKKKyyUKLKzpvzxxxxzxxzzzxkpZDKKKKUtjGG",
"FKDKyyUKGGDppppppppppppipxpnDGKKKUtaDG",
"KDKKyyUKGGDnpxxzkxzzzzzlkxpnDGGGGUtaKD",
"FKKKyyUDDDSApppppppppppppppZSDGDGPejKK",
"DLGGytIDDSSSnbvcxxvcvvxvxbnZADDDDPraKK",
"KDDGyyLDDSSSAZnnnnnnnnnnnZZAADDADLraKK",
"DKGGyyKSSSSSAZZZZZZZZZZZSAZSAAAAAItaKK",
"KKGDyyLAAZAZAZAZAZZAAZZZAZZAZZAAZLraKK",
"KDKKyyUKLKLDLLKLKLKLDLKLKLDLKLKLKUraDK",
"KKKKawqqqqq00q00q0qqq0qqqqq0q0qq0qyxKK",
"KKKKDKDFDKDDDKDDDDDKDKDKDKDDDDDFDDGDDK",
"KKDKKKKKDKKKDKKDKKKKDKDKDKKDKKKKKKKDLD"
};
