/* XPM */
static const char * translate_xpm[] = {
"16 16 10 1",
" 	c None",
".	c #C0C0C0",
"+	c #FF0000",
"@	c #0000FF",
"#	c #000000",
"$	c #00FF00",
"%	c #808000",
"&	c #FFFFFF",
"*	c #FFFF00",
"=	c #008000",
".+...........@@@",
"+++...........@@",
".+...........@.@",
".+.....########.",
".+....#$$$$$$##.",
".+...#$$$$$$#%#.",
".+..########%%#.",
".+..#&*&*&*#%%#.",
".+..#*&*&*&#%%#.",
".+..#&*&*&*#%%#.",
".+..#*&*&*&#%#..",
".+..#&*&*&*##...",
".+.@########....",
".+@...........=.",
".+==============",
"..............=."};
