/* XPM */
static char const * undo_xpm[] = {
"16 16 4 1",
" 	c None",
".	c #FFFFFF",
"+	c #008000",
"@	c #00FF00",
"................",
".........++.....",
".......++@+.....",
".....++@@@+.....",
"....+@@@@@+.....",
"...+@@@@@@++++++",
"..+@@@@@@@@@@@@+",
".+@@@@@@@@@@@@@+",
".+@@@@@@@@@@@@@+",
"..+@@@@@@@@@@@@+",
"...+@@@@@@++++++",
"....+@@@@@+.....",
".....++@@@+.....",
".......++@+.....",
".........++.....",
"................"};
