/* XPM */
static char *wireFrame3D_xpm[] = {
/* columns rows colors chars-per-pixel */
"61 61 182 2",
"   c black",
".  c #194C1F1F2121",
"X  c #1A1A20202121",
"o  c #272730303333",
"O  c #2999338136A6",
"+  c #2DCE39593CBD",
"@  c #3ABB49494DCE",
"#  c #7C7C0D0D5B5B",
"$  c #6A6A3D3D7E7E",
"%  c #45F057355C7E",
"&  c #474758585D5D",
"*  c #484858585D5D",
"=  c #57246DA07474",
"-  c #5A1A6F2F7636",
";  c #6C6C42427F7F",
":  c #787844447A7A",
">  c #7E7E4B4B7A7A",
",  c #01610303A423",
"<  c #05850B8CA626",
"1  c #08081010A6E6",
"2  c #0F0F1E1EA9A9",
"3  c #11AB23F1AADD",
"4  c #15482AF8AC12",
"5  c #18D03257AD64",
"6  c #1DF33C3CAF59",
"7  c #1F1F4040B0B0",
"8  c #20204141AFAF",
"9  c #21A943DAB10B",
"0  c #25A54BE1B287",
"q  c #28284F4FB2B2",
"w  c #29DD5393B427",
"e  c #2E425D0EB5DD",
"r  c #32325D5DB3B3",
"t  c #3296651EB793",
"y  c #33336767B8B8",
"u  c #34346868B7B7",
"i  c #36506CB9B952",
"p  c #3B3B6D6DB6B6",
"a  c #3A867552BABA",
"s  c #3E277D08BCA5",
"d  c #424245459D9D",
"f  c #4C4C43439595",
"g  c #4F4F4D4D9898",
"h  c #525252529999",
"j  c #5C5C66669D9D",
"k  c #4E4E6262A4A4",
"l  c #44447474B4B4",
"z  c #40407F7FBCBC",
"x  c #4D4D7F7FB3B3",
"c  c #52527878ACAC",
"v  c #63634C4C8B8B",
"b  c #75B5539383C3",
"n  c #79FA5C5C8505",
"m  c #666660609393",
"M  c #6B6B6F6F9898",
"N  c #666675759F9F",
"B  c #7E7E70708D8D",
"V  c #73F472729514",
"C  c #7C7C7E7E9494",
"Z  c #63637A7AA3A3",
"A  c #418A8383BDCF",
"S  c #46318D0CBF94",
"D  c #49CA8E0EBEBE",
"F  c #58588282AFAF",
"G  c #56D78A0AB3B3",
"H  c #54549898BDBD",
"J  c #676782028A8A",
"K  c #691382828A8A",
"L  c #74748F8F9898",
"P  c #787889899D9D",
"I  c #75E3925B9AE3",
"U  c #67678484A5A5",
"Y  c #6BEC8585A423",
"T  c #6DAD8A4AA525",
"R  c #62629C9CB6B6",
"E  c #73F49515A6A6",
"W  c #7D7D9E9EA7A7",
"Q  c #7F7F9F9FA8A8",
"!  c #6565A3A3B8B8",
"~  c #6363ABABBDBD",
"^  c #6F6FBFBFBFBF",
"/  c #7D5DAE1DAE1D",
"(  c #7272A9A9B3B3",
")  c #76AFB68BB68B",
"_  c #723FBCD6BCD6",
"`  c #7979B353B353",
"'  c #47478F8FC0C0",
"]  c #48488F8FC0C0",
"[  c #4A4094A9C164",
"{  c #4D7D9B4BC2D2",
"}  c #5386A5A5C491",
"|  c #55AFAB6BC5DF",
" . c #5858AFAFC6C6",
".. c #591EB277C778",
"X. c #5ADBB737C8C8",
"o. c #5DC9BBBBC9A0",
"O. c #6161A9A9C0C0",
"+. c #6AAAAE6EC484",
"@. c #6464B5B5C2C2",
"#. c #6060BFBFCACA",
"$. c #7272B3B3C7C7",
"%. c #7575B4B4C91E",
"&. c #7A7AB7B7CACA",
"*. c #7D7DB8B8CCCC",
"=. c #626DC47ACB0F",
"-. c #665ECCBDCCC8",
";. c #6BD7C593C593",
":. c #6868C6C6C8C8",
">. c #68F7C973C973",
",. c #8D8D3D3D6868",
"<. c #84845E5E7F7F",
"1. c #92124D4D6E6E",
"2. c #9C9C61617171",
"3. c #9E9E7D7D7E7E",
"4. c #BEBE56565656",
"5. c #BA0F5D075D07",
"6. c #ADAD63636868",
"7. c #AE036CC26CC2",
"8. c #A6A676767676",
"9. c #A1F77D277D27",
"0. c #A8BA73617361",
"q. c #B55F63386338",
"w. c #B1A068796879",
"e. c #D7D735353535",
"r. c #C4C44F4F4F4F",
"t. c #8D0D83038D0D",
"y. c #87879F9F9F9F",
"u. c #8F5C95C895C8",
"i. c #8AED9BC39BC3",
"p. c #95958D8D8D8D",
"a. c #9CA884478447",
"s. c #991988888888",
"d. c #91E792679267",
"f. c #81819F9FA9A9",
"g. c #84DAA40AA40A",
"h. c #8282A0A0A9A9",
"j. c #80E7A976A976",
"k. c #8727A969B3D3",
"l. c #8933AA54B50A",
"z. c #8EB9B333BE13",
"x. c #9224B4B4BF51",
"c. c #84DABD67CF79",
"v. c #8989BFBFD0D0",
"b. c #9191B5B5C0C0",
"n. c #9616BCBCC7C7",
"m. c #9797BDBDC8C8",
"M. c #9AF7BEA7CA0F",
"N. c #8B8BC71CD7D7",
"B. c #8E0EC7C7D8D8",
"V. c #8F8FC8C8D8D8",
"C. c #9D47C318CD77",
"Z. c #9454CB0ADAFA",
"A. c #9E84C6C6D305",
"S. c #9C63CECEDDC0",
"D. c #A1A1C7C7D3D3",
"F. c #A343C989D514",
"G. c #A4C6CD88DAA7",
"H. c #A969CFCFDBDB",
"J. c #A2A2D19EDF78",
"K. c #A672D3B2E0F7",
"L. c #AB60D5D1E2CE",
"P. c #ABABD8D8E3E3",
"I. c #B0B0D7D7E4E4",
"U. c #B2DCD9E1E56A",
"Y. c #BC3CDC1BE666",
"T. c #BCBCDE5EE8E8",
"R. c #BCBCE0E0E9E9",
"E. c #C3C3DEDEE7E7",
"W. c #C2C2E3E3EBEB",
"Q. c #C919E594ED9C",
"!. c #CECEE8E8EFEF",
"~. c #D0D0E5E5ECEC",
"^. c #D7D7E9E9EFEF",
"/. c #D4D4EBEBF1F1",
"(. c #DADAEEEEF3F3",
"). c #E0E0EFEFF4F4",
"_. c #E3D4F2E3F6EE",
"`. c #E7E7F4F4F8F8",
"'. c #E8E8F3F3F6F6",
"]. c #ECDAF6E8F9F4",
"[. c #F2F2F9F9FBFB",
"{. c #FFFFFFFFFFFF",
/* pixels */
"{.{.^.v.+.O.O.O. .~  .~ O.O.O.O.O.O.O.O.O.O.O.O.O.O.~ O.O.O.O.O.~ O.O.O.O.O.~  .~ ~ ~ ~ O.O.O.O.O.O.O.O.O.O.O.O. .+.c.~.{.",
"{.^.$._.[.[.[.[.[.[.[.[.[.[.[.[.[.[.[.[.[.[.[.[.[.[.[.[.[.[.[.[.[.[.[.[.[.[.[.[.[.[.[.[.[.[.[.[.[.[.[.[.[.[.[.[.[.[.'.c.E.",
"{.v.).].].].].].`.].].`.].].].].].].].].].].].].].].].].].].].].].].[.[.].].].].].].`.].].].].].].].].].].].].].`.[.[.`.&.",
"{.+.`.`._.`.`.'.`.`.`.-.-.-.-.-.-.-.-.-.-.-.-.-.-.-.-.-.-.-.-.-.-.-.-.-.-.-.-.-.-.-.-.-.-.-.-.-.-.-.-.-.`.`.`.`.`._._._.! ",
"{.~ _._.).).).)._._._.-.-.-.-.-.-.-.-.-.-.-.-.#.-.-.-.-.-.-.-.-.-.-.-.-.-.-.-.-.-.-.-.-.-.-.-.-.-.-.-.-.).).).).).)._._.O.",
"{. .(.(.(.(.(.(.(.(./.-.-.-.-.-.-.-.-.-.-.-.-.q o.-.-.-.-.-.-.-.-.-.-.-.-.-.-.-.-.-.-.-.-.-.-.-.-.-.-.-.(.(.(.(.(.(.(.(.O.",
"{.~ /./././././././.(.-.-.-.-.-.-.-.-.-.-.-..., w -.-.-.-.-.-.-.-.-.-.-.-.-.-.-.-.-.-.-.-.-.-.-.-.-.-.-././././././././.O.",
"{.~ !.!.!.!.!.!.!.!.!.-.-.-.-.-.-.-.-.-.-.-.0 , 1  .-.-.-.-.-.-.-.-.-.-.-.-.-.-.-.-.-.-.-.-.-.-.-.-.-.-.!.!.!.!.!.!.!.!.O.",
"{.! Q.Q.!.!.R.!.R.!.R.-.-.-.-.-.-.-.-.-.-.o.< , , t -.-.-.-.-.-.-.-.-.-.-.-.-.-.-.-.-.-.-.-.-.-.-.-.-.-.Q.Q.Q.Q.Q.!.Q.Q.O.",
"{.| W.W.R.R.R.!.R.!.R.-.-.-.-.-.-.-.-.-.-.a < 5 , 5 o.-.-.-.-.-.-.-.-.-.` a.g.-.-.-.-.-.-.-.-.-.-.-.-.-.Q.R.R.Q.R.Q.R.R.O.",
"{.~ T.T.R.R.R.R.R.R.R.-.-.-.-.-.-.-.-.-...4 2 t , 9 a -.-.-.-.-.-.-.-.j.u.5.y.d.g.-.-.-.-.-.-.-.-.-.-.-.R.R.R.R.R.R.R.R.O.",
"{. .T.T.R.U.R.R.R.R.R.-.-.-.-.-.-.-.-.-.a 4 w t , 3 w ..-.-.-.-.-.-.j.i.) 0.;.j.i.s.i.^ -.-.-.-.-.-.-.-.P.R.R.R.R.R.R.R.O.",
"{.~ U.U.U.U.P.U.P.P.P.-.-.-.-.-.-.-.-.-.w w 9 t , 0 9 ] -.-.-.-.-.j.i.^ ;.0.-.-.;.` g.s.9._ -.-.-.-.-.-.U.U.P.P.P.P.P.P.o.",
"{.| P.P.P.P.P.P.P.P.P.-.-.-.-.-.-.-.-.] 3 1 e t < e 4 q -.-.-.-.p.d.;.-.>.0.-.-.-.-.-.^ _ s.8.;.-.-.-.-.P.P.P.P.P.P.P.P. .",
"{.O.J.J.K.K.K.K.P.P.J.-.-.-.-.-.-.-.-.9 4 w t t < t w 9 [ -.-.p.s.^ -.-.;.0.-.-.-.-.-.-.-.;.;.0.0.-.-.-.K.K.K.K.P.P.J.P.~ ",
"{.~ B.B.V.V.V.V.N.V.N.-.-.-.-.-.-.-.] t 6 e t -.e 3 ..9 w -.d.j.-.-.-.-.>.0.-.-.-.-.-.-.-.-.-.i.e.-.-.-.V.V.V.V.N.N.N.N.~ ",
"{.O.N.N.N.N.N.N.N.N.N.-.-.-.-.-.-.-.i 5 t t t -.e 9 s 6 r C g.-.-.-.-.-.:.0.-.-.-.-.-.-.-.;.y.i.6.-.-.-.N.N.N.N.N.v.N.N.O.",
"{. .N.N.N.N.N.N.N.N.N.-.-.-.-.-.-.| e 5 { A 5 -.t t i l v m =.-.-.-.-.-.>.0.-.-.-.-.-.-.^ s.i.>.w.-.-.-.N.N.N.N.N.N.N.N.O.",
"{.O.N.N.N.N.B.B.N.N.N.-.-.-.-.-.=.i 0 5 w o.1 -.i t a V # d ~ -.-.-.-.-.;.0.-.-.-.-.-._ d._ -.-.w.-.-.-.N.N.B.B.B.N.B.B.O.",
"{.O.B.B.B.N.B.B.B.N.N.-.-.-.-.-. .w 7 i y o.1 -.t t A E ,.: V / ;.-.-.-.>.0.-.-.-.-._ u.) -.-.-.w.-.-.-.N.B.B.B.N.Z.B.B.O.",
"{.O.B.B.V.V.V.V.B.B.B.-.-.-.-.-.' e 9 z a o.1 -.i t z T ; r f t.i.d.` -.>.0.-.-.;./ u.) -.-.-.-.w.-.-.-.B.B.B.B.N.N.B.B.O.",
"{.O.V.B.V.V.V.V.V.V.V.-.-.-.-.X.t e 0 ] z o.4 -.t i [ Z $ w 0 { j.a.u.i./ 0.-.;.j.u.` -.-.-.-.-.w.-.-.-.B.B.Z.B.Z.N.B.Z.O.",
"{.O.V.V.V.V.V.V.V.V.V.-.-.-.-.[ 6 t e ' ' ] w -.t S { j b a 0 e o.-.) y.u.4./ j.g.^ -.-.-.-.-.-.w.-.-.-.B.Z.B.B.B.B.Z.B.O.",
"{.O.V.Z.V.Z.Z.Z.Z.V.Z.-.-.-.=.i 0 t a ' | a t -.i  .a j n s a 9 | -.-.-.) 5.u.s.;.-.-.-.-.-.-.-.w.-.-.-.B.Z.Z.Z.Z.Z.B.Z.O.",
"{.O.Z.V.Z.Z.Z.Z.V.Z.Z.-.-.-.| q a t S A { q 8 A 9 s 8 g t.] [ 0 s =.-.-.>.0./ a.-.-.-.-.-.-.-.-.w.-.-.-.Z.Z.Z.Z.Z.Z.Z.Z.| ",
"{.O.Z.Z.Z.Z.Z.Z.Z.Z.Z.-.-.=.A w A q e q A | t o.t X.{ h b 0 s t 8 ..-.-.;.r.) s.-.-.-.-.-.-.-.-.w.-.-.-.Z.Z.Z.Z.Z.Z.Z.Z.O.",
"{.O.Z.Z.Z.Z.Z.Z.Z.Z.Z.-.-.o.q 4 w s o.A | -.i -.o.z #.F T ] t 0 5 S -.-.8.` q.q.-.-.-.-.-.-.-.-.w.-.-.-.Z.Z.Z.Z.Z.Z.Z.Z.O.",
"{.O.Z.Z.Z.Z.Z.Z.S.Z.Z.-.-.} 1 w { .. .{ o.-.i -.=.a -.| D ..[ [ 4 w o.7.>.-.` q.w.a.) -.-.-.-.-.w.-.-.-.Z.Z.Z.Z.Z.S.Z.Z.O.",
"{. .Z.Z.S.Z.Z.Z.Z.Z.S.-.o.w 7 } ] -.S | -.-.p -.=.a -.| D -.D | A 8 2.-.-.-.) a.-.) a.s._ ;.-.-.w.-.-.-.S.Z.Z.Z.Z.S.Z.Z.O.",
"{.~ S.Z.Z.S.Z.S.S.Z.Z.-...9 A } { -.] | -.a =.-.=.a -.T b -.D } R p e -.-.-.) a.-.-.-./ 3.0.` %.w.-.-.-.Z.S.Z.S.Z.S.Z.S.O.",
"{.~ Z.S.S.Z.S.S.S.Z.Z.=.u a { { X.-.S  .-.a =.-.=.a -.T b -.H Y 6.k 8 -.-.-.) a.-.-.-.-.-.-.s.9.5.-.-.-.Z.Z.S.Z.Z.Z.Z.S.O.",
"{.~ S.S.Z.S.S.Z.S.Z.S.-.u a ..S -.=.S  .-.a =.-.=.s -.E n @.j.c ..D q -.-.-.) a.-.-.-.-.-.-.-.` q.-.-.-.S.S.S.S.S.S.S.S.O.",
"{.! S.S.S.S.S.Z.S.S.S.-.y { ..' -.| { o.-.a =.-.=.a -.j.<.N g.F  .-.5 -.-.-.) a.-.-.-.-.-._ / p.-.-.-.-.S.S.S.S.S.Z.S.S.O.",
"{.| S.S.S.S.S.S.S.S.S.=.[ { { } -.[ } -.-.a =.-.=.s -.g.1.c ^  .{ =.i -.-.-.) a.-.-.-.-._ y.u.>.-.-.-.-.S.S.S.S.S.S.S.S.O.",
"{.~ S.S.S.S.S.S.S.S.S.-.=.t A -.-.{ } -.-.a =.-.-.a -.g.1.G -.-.A S { -.-.-.) a.-.-.-._ y./ >.-.-.-.-.-.S.S.S.S.S.S.S.S.O.",
"{.~ S.S.J.S.S.S.S.S.S.-.=.{ s ..-.[ } -.-.a =.-.=.s -.$.U M p.) A z =.-.-.-.) a.-.-._ y./ >.-.-.-.-.-.-.S.S.S.S.S.S.S.S.O.",
"{.~ S.S.J.S.J.S.S.S.S.-.-.=.| { | {  .-.-.a =.-.=.a -.-. .G T B > P :.-.-.-.) a.-._ y./ >.-.-.-.-.-.-.-.S.J.J.S.S.J.S.S.O.",
"{.| J.S.J.S.S.S.J.J.S.-.-.-.-...a r | -.-.a =.-.=.a -.-.} e a ! ( 3.3.g.-.-.) a./ s./ >.-.-.-.-.-.-.-.-.S.S.S.S.S.S.J.S.O.",
"{.O.S.J.S.S.J.J.J.S.J.-.-.-.-.-.#.X.[ a a 9 a a i 9 a a D o.o.-.-.^ ^ i.8.j.) w.u.^ >.-.-.-.-.-.-.-.-.-.J.J.S.J.J.J.S.S.O.",
"{.O.S.G.J.J.J.S.J.J.S.-.-.-.-.-.-.-.-.=.=.=.=.=.-.#.=.-.-.-.-.-.-.-.-.>.;.p.q.q.>.-.-.-.-.-.-.-.-.-.-.-.J.S.J.S.J.S.J.J.O.",
"{.O.J.J.J.J.J.G.J.S.J.-.-.-.-.-.-.-.-.-.-.-.-.-.-.-.-.-.-.-.-.-.-.-.-.-.-.-.-.-.-.-.-.-.-.-.-.-.-.-.-.-.J.J.J.J.J.J.J.S.O.",
"{.O.J.J.J.J.J.J.J.J.J.-.-.-.-.-.-.-.-.-.-.-.-.-.-.-.-.-.-.-.-.-.-.-.-.-.-.-.-.-.-.-.-.-.-.-.-.-.-.-.-.-.J.J.J.J.J.J.J.J.O.",
"{.O.J.J.J.J.J.J.J.J.J.-.-.-.-.-.-.-.-.-.-.-.-.-.-.-.-.-.-.-.-.-.-.-.-.-.-.-.-.-.-.-.-.-.-.-.-.-.-.-.-.-.J.J.J.J.J.J.H.H.O.",
"{.O.J.K.J.J.J.L.J.J.L.-.-.-.-.-.-.-.-.-.-.-.-.-.-.-.-.-.-.-.-.-.-.-.-.-.-.-.-.-.-.-.-.-.-.-.-.-.-.-.-.-.K.J.K.K.J.K.K.K.O.",
"{.O.J.J.J.L.J.J.J.L.J.J.J.J.L.J.J.L.J.J.J.L.J.J.L.J.J.L.J.L.J.J.J.J.J.L.J.J.L.G.L.J.J.J.J.K.K.K.G.K.G.K.K.K.K.K.K.K.K.K.O.",
"{.O.K.L.J.L.L.J.J.J.L.L.L.J.J.L.J.L.L.J.J.J.L.L.J.L.L.J.L.J.J.L.L.K.K.K.L.J.J.L.J.K.L.J.H.P.K.K.K.K.L.K.K.K.K.K.K.K.K.K.O.",
"{.| L.J.L.J.L.J.L.L.L.J.J.L.L.J.L.J.L.J.L.L.L.J.L.J.J.L.L.J.L.J.J.L.K.L.J.L.L.J.L.J.K.L.J.z.    k.K.K.K.K.K.K.K.L.K.K.K.O.",
"{.~ L.L.J.L.%     . A.G.O       L J.L.L.L.J.J L J.L.J + L.J.z.+ x.. A.J.L.L.J.L.L.L.L.J.L.% k.L.L.K.L.L.K.L.K.K.K.K.K.L.O.",
"{.~ L.L.J.A.= J.L.J L S.o n.L.G.O = K.L.K.K.W = L.L.% . A.J.W = L.J.L.L.L.K.L.K.L.K.L.K.G.O n.L.K.L.K.L.K.K.K.L.L.J.L.L.~ ",
"{.~ L.L.L.L.L.L.L.% k.G.O n.H.L.G.O n.L.L.L.A.. A.A.+ % k.L.% k.x.. A.% @   = G.O     k.J     + L.K.L.K.L.L.K.L.L.L.L.J.~ ",
"{.! L.L.L.L.L.J   k.L.H.O m.L.L.K.% k.P.L.L.G.O M.z.= Q I H.O n.x.. A.% + L.L.% M.L.D.X C.O n.L.L.L.L.L.L.L.L.L.L.L.L.L.~ ",
"{.} L.L.L.L.L.L.L.% I H.O m.L.L.L.% k.L.L.L.L.J L J l.z.+ z.+ L.z.. A.* I L.A.          z.O n.P.L.L.L.L.L.L.L.L.L.L.L.L.} ",
"{.~ L.I.L.P.P.I.P.f.- H.O M.P.P.H.O M.L.L.L.L.f.- * M.H.@ L - I.b.. F.* I U.A.. G.I.L.H.G.O M.I.L.I.I.I.P.P.P.P.L.I.L.L.O.",
"{.~ I.L.P.b.P P.P.* P H.O M.U.H.O = I.I.P.U.P.F.  + I.I.*   l.I.b.. F.* I P.P.* P P.I.= C.O M.I.I.L.I.I.P.L.P.U.L.I.I.I.O.",
"{.~ I.I.I.F.      - I.H.O       L P.I.I.I.U.P.H.O - I.I.f.  M.I.b.X F.* P U.P.H.O     . C.O M.I.M.o H.M.o H.M.O H.I.I.L.O.",
"{.| I.I.I.U.U.U.I.I.I.U.P.U.I.I.U.U.I.I.I.P.U.U.I.I.I.U.U.P.I.I.P.Y.U.P.U.P.U.U.I.U.U.I.I.I.I.I.I.I.I.I.I.I.I.I.I.I.I.I.O.",
"{.+.I.I.P.U.U.U.I.U.I.I.I.U.I.U.U.I.U.I.U.I.U.I.U.I.I.I.U.I.U.I.U.U.I.U.U.I.U.I.U.I.I.I.I.U.I.U.I.I.I.I.U.U.U.I.U.I.U.I.O.",
"{.c.Y.I.U.U.U.U.U.I.U.I.U.I.U.I.I.U.I.U.U.U.I.U.I.Y.I.U.I.I.I.U.U.I.U.I.U.U.I.U.I.Y.U.I.U.I.U.I.I.I.I.Y.U.U.I.U.I.U.U.Y.$.",
"{.E.&.E.U.U.U.U.U.I.Y.U.I.U.U.I.U.U.Y.U.U.U.U.P.Y.U.U.U.Y.I.U.P.U.U.Y.I.U.U.U.P.Y.U.U.U.I.U.U.I.U.U.I.U.U.U.U.P.U.I.Y.c.Y.",
"{.{.E.%.O.O.O.O.~ O.O.~ O.O.~ O.O.O.O.! O.O.O.~ O.O.O.O.O.O.O.O.O.O.~ ! O.O.O.~ O.O.O.O.O.O.~ O.O.O.O.~ O.O.O.~ O.~ %.Y.{.",
"{.{.{.{.{.{.{.{.{.{.{.{.{.{.{.{.{.{.{.{.{.{.{.{.{.{.{.{.{.{.{.{.{.{.{.{.{.{.{.{.{.{.{.{.{.{.{.{.{.{.{.{.{.{.{.{.{.{.{.{.{."
};
