/* XPM */
static char *wireFrame2D_xpm[] = {
/* columns rows colors chars-per-pixel */
"57 56 105 2",
"   c black",
".  c #010101010101",
"X  c #020202020202",
"o  c #040404040404",
"O  c #060606060606",
"+  c #070707070707",
"@  c #080808080808",
"#  c #090909090909",
"$  c #0A0A0A0A0A0A",
"%  c #0B0B0B0B0B0B",
"&  c #0C0C0C0C0C0C",
"*  c #0D0D0D0D0D0D",
"=  c #0E0E0E0E0E0E",
"-  c #0F0F0F0F0F0F",
";  c #101010101010",
":  c #111111111111",
">  c #131313131313",
",  c #151515151515",
"<  c #161616161616",
"1  c #181818181818",
"2  c #191919191919",
"3  c #1A1A1A1A1A1A",
"4  c #1B1B1B1B1B1B",
"5  c #1F1F1F1F1F1F",
"6  c #202020202020",
"7  c #212121212121",
"8  c #222222222222",
"9  c #232323232323",
"0  c #242424242424",
"q  c #252525252525",
"w  c #272727272727",
"e  c #282828282828",
"r  c #2A2A2A2A2A2A",
"t  c #2B2B2B2B2B2B",
"y  c #2C2C2C2C2C2C",
"u  c #2E2E2E2E2E2E",
"i  c #2F2F2F2F2F2F",
"p  c #303030303030",
"a  c #313131313131",
"s  c #323232323232",
"d  c #333333333333",
"f  c #353535353535",
"g  c #383838383838",
"h  c #393939393939",
"j  c #3A3A3A3A3A3A",
"k  c #3B3B3B3B3B3B",
"l  c #3D3D3D3D3D3D",
"z  c #3E3E3E3E3E3E",
"x  c #3F3F3F3F3F3F",
"c  c #414141414141",
"v  c #424242424242",
"b  c #434343434343",
"n  c #444444444444",
"m  c #454545454545",
"M  c #474747474747",
"N  c #484848484848",
"B  c #494949494949",
"V  c #4C4C4C4C4C4C",
"C  c #4F4F4F4F4F4F",
"Z  c #515151515151",
"A  c #525252525252",
"S  c #535353535353",
"D  c #555555555555",
"F  c #565656565656",
"G  c #575757575757",
"H  c #5A5A5A5A5A5A",
"J  c #5B5B5B5B5B5B",
"K  c #5C5C5C5C5C5C",
"L  c #5E5E5E5E5E5E",
"P  c #5F5F5F5F5F5F",
"I  c #626262626262",
"U  c #636363636363",
"Y  c #646464646464",
"T  c #686868686868",
"R  c #6A6A6A6A6A6A",
"E  c #6D6D6D6D6D6D",
"W  c #6E6E6E6E6E6E",
"Q  c #6F6F6F6F6F6F",
"!  c #747474747474",
"~  c #777777777777",
"^  c #797979797979",
"/  c #7E7E7E7E7E7E",
"(  c #7F7F7F7F7F7F",
")  c #818181818181",
"_  c #828282828282",
"`  c #848484848484",
"'  c #9B9B9B9B9B9B",
"]  c #9C9C9C9C9C9C",
"[  c #ABABABABABAB",
"{  c #AEAEAEAEAEAE",
"}  c #BEBEBEBEBEBE",
"|  c #CBCBCBCBCBCB",
" . c #D2D2D2D2D2D2",
".. c #D7D7D7D7D7D7",
"X. c #D9D9D9D9D9D9",
"o. c #E2E2E2E2E2E2",
"O. c #E3E3E3E3E3E3",
"+. c #E7E7E7E7E7E7",
"@. c #EDEDEDEDEDED",
"#. c #F0F0F0F0F0F0",
"$. c #F6F6F6F6F6F6",
"%. c #F9F9F9F9F9F9",
"&. c #FAFAFAFAFAFA",
"*. c #FEFEFEFEFEFE",
"=. c #FFFFFFFFFFFF",
/* pixels */
" .%.=.=.=.=.=.=.=.=.=.=.=.=.=.=.=.=.=.=.=.=.=.=.=.=.=.=.=.=.=.=.=.=.=.=.=.=.=.=.=.=.=.=.=.=.=.=.=.=.=.=.=.=.=.=.%.",
"%.=.=.=.=.=.=.=.=.=.=.=.=.=.=.=.=.=.=.=.=.=.=.=.=.=.=.=.=.=.=.=.=.=.=.=.=.=.=.=.=.=.=.=.=.=.=.=.=.=.=.=.=.=.=.=.=.",
"=.=.=.=.=.=.=.=.=.                                                                                  =.=.=.=.=.=.=.",
"=.=.=.=.=.=.=.=.=.                                                                                  =.=.=.=.=.=.=.",
"=.=.=.=.=.=.=.=.=.                                                                                  =.=.=.=.=.=.=.",
"=.=.=.=.=.=.=.=.=.                                          3 0 9 9 0 0 0 0 9 9 0 0 9 9 f           =.=.=.=.=.=.=.",
"=.=.=.=.=.=.=.=.=.                                          K H S S S S S S S S S S S S ] %         =.=.=.=.=.=.=.",
"=.=.=.=.=.=.=.=.=.                                          H 3                         E %         =.=.=.=.=.=.=.",
"=.=.=.=.=.=.=.=.=.                                          K 3                         E +         =.=.=.=.=.=.=.",
"=.=.=.=.=.=.=.=.=.                                          K <                         E %         =.=.=.=.=.=.=.",
"=.=.=.=.=.=.=.=.=.                                          K 3                         E +         =.=.=.=.=.=.=.",
"=.=.=.=.=.=.=.=.=.                                          K <                         E +         =.=.=.=.=.=.=.",
"=.=.=.=.=.=.=.=.=.                                          K 3                         E +         =.=.=.=.=.=.=.",
"=.=.=.=.=.=.=.=.=.                                          K <                         E +         =.=.=.=.=.=.=.",
"=.=.=.=.=.=.=.=.=.                                          K 3                         E %         =.=.=.=.=.=.=.",
"=.=.=.=.=.=.=.=.=.                      % % m ! ! ! ! H 9 * K <                         R %         =.=.=.=.=.=.=.",
"=.=.=.=.=.=.=.=.=.                  + > I R a         3 S R ) 9                         E +         =.=.=.=.=.=.=.",
"=.=.=.=.=.=.=.=.=.                < h H %                   ( D 9                       E +         =.=.=.=.=.=.=.",
"=.=.=.=.=.=.=.=.=.              3 m f +                     K h S t                     E %         =.=.=.=.=.=.=.",
"=.=.=.=.=.=.=.=.=.            * m 9                         K 3   I 3                   R %         =.=.=.=.=.=.=.",
"=.=.=.=.=.=.=.=.=.            a h %                         K 3   9 l 3                 E %         =.=.=.=.=.=.=.",
"=.=.=.=.=.=.=.=.=.          9 l <                           K <     9 D                 E +         =.=.=.=.=.=.=.",
"=.=.=.=.=.=.=.=.=.          h l                             K 3     + E                 E +         =.=.=.=.=.=.=.",
"=.=.=.=.=.=.=.=.=.        9 v >                             K <       t M               E +         =.=.=.=.=.=.=.",
"=.=.=.=.=.=.=.=.=.        i M                               K 3       * Y               E +         =.=.=.=.=.=.=.",
"=.=.=.=.=.=.=.=.=.        i M                               K <       > Y               E %         =.=.=.=.=.=.=.",
"=.=.=.=.=.=.=.=.=.        i m                               K 3       > Y               E +         =.=.=.=.=.=.=.",
"=.=.=.=.=.=.=.=.=.        i m                               t E ^ ^ ^ ) { ^ ^ ^ ^ ^ ^ ^ ^ +         =.=.=.=.=.=.=.",
"=.=.=.=.=.=.=.=.=.        i m                                         * Y                           =.=.=.=.=.=.=.",
"=.=.=.=.=.=.=.=.=.        i m                                         > Y                           =.=.=.=.=.=.=.",
"=.=.=.=.=.=.=.=.=.        0 m %                                       4 D                           =.=.=.=.=.=.=.",
"=.=.=.=.=.=.=.=.=.        > l t                                     + S 9                           =.=.=.=.=.=.=.",
"=.=.=.=.=.=.=.=.=.          t l *                                   9 D                             =.=.=.=.=.=.=.",
"=.=.=.=.=.=.=.=.=.          * v 0                                   K 3                             =.=.=.=.=.=.=.",
"=.=.=.=.=.=.=.=.=.            3 v 3                               M i                               =.=.=.=.=.=.=.",
"=.=.=.=.=.=.=.=.=.              a h %                           t S                                 =.=.=.=.=.=.=.",
"=.=.=.=.=.=.=.=.=.              % i H *                       S m >                                 =.=.=.=.=.=.=.",
"=.=.=.=.=.=.=.=.=.                + * I E                 m E 9 %                                   =.=.=.=.=.=.=.",
"=.=.=.=.=.=.=.=.=.                    + % ! ! ^ ^ ! ^ ^ ^ i %                                       =.=.=.=.=.=.=.",
"=.=.=.=.=.=.=.=.=.                                                                                  =.=.=.=.=.=.=.",
"=.=.=.=.=.=.=.=.=.                                                                                  =.=.=.=.=.=.=.",
"=.=.=.=.=.=.=.=.=.                                                                                  =.=.=.=.=.=.=.",
"=.=.=.=.=.=.=.=.=.                                                                                  =.=.=.=.=.=.=.",
"=.=.=.=.=.=.=.=.=.=.=.=.=.=.=.=.=.=.=.=.=.=.=.=.=.=.=.=.=.=.=.=.=.=.=.=.=.=.=.=.=.=.=.=.=.=.=.=.=.=.=.=.=.=.=.=.=.",
"=.=.=.=.=.=.=.=.=.=.=.=.=.=.=.=.=.=.=.=.=.=.=.=.=.=.=.=.=.=.=.=.=.=.=.=.=.=.=.=.=.=.=.=.=.=.=.=.=.=.=.=.=.=.=.=.=.",
"=.=.=.=.=.=.=.=.=.=.=.=.=.=.=.=.=.=.=.=.=.=.=.=.=.=.=.=.=.=.=.=.=.=.=.=.=.=.=.=.=.=.=...    | =.=.=.=.=.=.=.=.=.=.",
"=.=.=.$.l     v =.$.l       { =.=.=.=.=.' { =.=.] m =.=...m ..0 #.=.=.=.=.=.=.=.=.=.=.R | =.=.=.=.=.=.=.=.=.=.=.=.",
"=.=.=.@.` =.=.R { $.l o.=.$.l ` =.=.=.=.} ) =.=.R 0 #.=.} ` =.=.=.=.=.=.=.=.=.=.=.=.$.l o.=.=.=.=.=.=.=.=.=.=.=.=.",
"=.=.=.=.=.=.=.] { $.l o.=.=.$.l o.=.=.=.@.0 #.@.m R | =.Y | ..0 #.R D   ` $.l     | ]     m =.=.=.=.=.=.=.=.=.=.=.",
"=.=.=.=.=.=.$.l o.$.l o.=.=.=.Y | =.=.=.$.l o...` } { $.l o...0 #.Y v =.=.R o.=.@.0 +.l o.=.=.=.=.=.=.=.=.=.=.=.=.",
"=.=.=.=.=.=.R { =.$.l o.=.=.=.R | =.=.=.=.] { ] | ..m ..m =...0 #.R { =.@.          ..l o.=.=.=.=.=.=.=.=.=.=.=.=.",
"=.=.=.=.=.Y { =.=.$.l o.=.=.$.l o.=.=.=.=.} ) R o.$.D [ ` =...0 #.R { =.@.0 #.=.=.=.$.l o.=.=.=.=.=.=.=.=.=.=.=.=.",
"=.=.=.$.l { =.=.=.$.l o.=.%.l ) =.=.=.=.=.@.  m =.=.R   | =...0 #.R { =.=.R { =.=.( +.l o.=.=.=.=.=.=.=.=.=.=.=.=.",
"=.=.=...        m $.l       { =.=.=.=.=.=.$.l ` =.=.}   o.=...0 #.Y { =.=.$.l     0 +.l o.=.o.h $.o.h $.o.h $.=.=.",
"=.=.=.=.=.=.=.=.=.=.=.=.=.=.=.=.=.=.=.=.=.=.=.=.=.=.=.=.=.=.=.=.=.=.=.=.=.=.=.=.=.=.=.=.=.=.=.=.=.=.=.=.=.=.=.=.=.",
"=.=.=.=.=.=.=.=.=.=.=.=.=.=.=.=.=.=.=.=.=.=.=.=.=.=.=.=.=.=.=.=.=.=.=.=.=.=.=.=.=.=.=.=.=.=.=.=.=.=.=.=.=.=.=.=.=."
};
