/* XPM */
static char *zoomin_xpm[] = {
/* columns rows colors chars-per-pixel */
"20 20 99 2",
"   c #1F1F20202323",
".  c #202021212424",
"X  c #212122222525",
"o  c #2A2A2D2D3030",
"O  c #2B2B2E2E3131",
"+  c #2D2D2E2E3131",
"@  c #2D2D2F2F3232",
"#  c #2E2E2F2F3232",
"$  c #333333333333",
"%  c #3B3B3F3F4242",
"&  c #3C3C3D3D4040",
"*  c #3D3D3E3E4141",
"=  c #3E3E3F3F4040",
"-  c #3F3F43434545",
";  c #434343434343",
":  c #414142424545",
">  c #434344444646",
",  c #444445454747",
"<  c #474747474747",
"1  c #414144444949",
"2  c #424245454A4A",
"3  c #424247474A4A",
"4  c #45454A4A4D4D",
"5  c #494949494949",
"6  c #4D4D4D4D4D4D",
"7  c #575757575A5A",
"8  c #59595E5E6161",
"9  c #5A5A5F5F6262",
"0  c #5D5D5E5E6060",
"q  c #5C5C61616262",
"w  c #5C5C62626363",
"e  c #5D5D62626363",
"r  c #5F5F62626464",
"t  c #5F5F62626565",
"y  c #606060606060",
"u  c #636366666767",
"i  c #646464646464",
"p  c #666666666666",
"a  c #666667676969",
"s  c #676767676969",
"d  c #62626A6A6D6D",
"f  c #686868686A6A",
"g  c #6F6F70707272",
"h  c #737374747676",
"j  c #7C7C7C7C7E7E",
"k  c #8F8F96969797",
"l  c #9B9B9D9D9E9E",
"z  c #9C9C9E9E9F9F",
"x  c #9F9F9F9F9F9F",
"c  c #9F9FA0A0A0A0",
"v  c #A0A0B2B2B5B5",
"b  c #A0A0B3B3B5B5",
"n  c #AAAAB6B6B7B7",
"m  c #AFAFBBBBBDBD",
"M  c #B7B7BBBBBDBD",
"N  c #C0C0C4C4C5C5",
"B  c #C5C5C5C5C6C6",
"V  c #C6C6C6C6C7C7",
"C  c #C3C3D9D9DBDB",
"Z  c #CBCBDFDFE0E0",
"A  c #CCCCE1E1E3E3",
"S  c #CFCFE1E1E2E2",
"D  c #CFCFE2E2E3E3",
"F  c #CFCFE2E2E4E4",
"G  c #D0D0E3E3E4E4",
"H  c #D5D5E6E6E7E7",
"J  c #D6D6E6E6E7E7",
"K  c #D9D9E7E7E8E8",
"L  c #D9D9E8E8E9E9",
"P  c #DADAE8E8E9E9",
"I  c #DCDCEAEAEBEB",
"U  c #E4E4E4E4E4E4",
"Y  c #E1E1EDEDEEEE",
"T  c #E2E2EDEDEEEE",
"R  c #E3E3EEEEEFEF",
"E  c #E4E4EDEDEEEE",
"W  c #EBEBEBEBEBEB",
"Q  c #EDEDEDEDEDED",
"!  c #EFEFEFEFEFEF",
"~  c #E5E5EFEFF0F0",
"^  c #E6E6F0F0F1F1",
"/  c #E8E8F1F1F2F2",
"(  c #E9E9F2F2F3F3",
")  c #EBEBF3F3F4F4",
"_  c #EDEDF4F4F5F5",
"`  c #EEEEF4F4F5F5",
"'  c #EFEFF5F5F6F6",
"]  c #F1F1F6F6F6F6",
"[  c #F2F2F6F6F6F6",
"{  c #F4F4F8F8F8F8",
"}  c #F5F5F9F9F9F9",
"|  c #F6F6F8F8F8F8",
" . c #F7F7F9F9F9F9",
".. c #F8F8FAFAFAFA",
"X. c #F8F8FBFBFBFB",
"o. c #FBFBFBFBFBFB",
"O. c #FBFBFDFDFDFD",
"+. c #FEFEFEFEFEFE",
"@. c #FFFFFFFFFFFF",
/* pixels */
"W U U U U U U U U U U U U U U U U U U U ",
"U U U U U U U U U U U U U U U U U U U U ",
"U U U U U l 8 O   O 8 l U U U U U U U U ",
"U U U U e 3 v C U C v % 8 ! U U U U U U ",
"U U U e k Z U F S U U L d e ! U U U U U ",
"U U z 4 S H ( U 3 G U U F - l U U U U U ",
"U U t m L U U ] 3 H U U U n e ! U U U U ",
"U U @ K Y X.+.~ 2 I U U U U @ ! U U U U ",
"U U   ~ ~ 2 2 2 2 2 2 2 Y Y X ! U U U U ",
"U U @ U ( ` ( ( 2 ~ ( ( ( E @ ! U U U U ",
"U U f V ] ' ] ` 2 ` ] ' ] M u ! U U U U ",
"U U c $ { U { { 2 { { X.] & x U U U U U ",
"U U U d h X.+.+.O.O.+.+.g 0 > ! U U U U ",
"U U U U s > B X.+.+.V $ 7 6 p > ! U U U ",
"U U U U U c s @   @ s x , $ 5 p > ! U U ",
"U U U U U U U U U U U U U , $ , y > U U ",
"U U U U U U U U U U U U U U , $ , > U U ",
"U U U U U U U U U U U U U U U , > j U U ",
"U U U U U U U U U U U U U U U U U U U U ",
"Q U U U U U U U U U U U U U U U U U U U "
};
