/* XPM */
static char *zoomtoprev_xpm[] = {
/* columns rows colors chars-per-pixel */
"20 20 13 1",
"  c black",
". c #202020204040",
"X c #404040404040",
"o c #606060604040",
"O c #606060608080",
"+ c #606080808080",
"@ c #808080808080",
"# c #A0A0A0A0A4A4",
"$ c #A0A0C0C0C0C0",
"% c #C0C0C0C0C0C0",
"& c #C0C0DCDCC0C0",
"* c #FFFFFBFBF0F0",
"= c #FFFFFFFFFFFF",
/* pixels */
"********************",
"********************",
"*****#O...O#********",
"****OX$*************",
"***OO&****=* *******",
"**#X&**=*=*  *******",
"**O$**=**=      #***",
"**.**==**=*  =*# #**",
"**.**=****== =**# **",
"**.*******====#** **",
"**O%********=&O** **",
"**#X*=*===***X#**%**",
"***O@=***=*=+OX*****",
"****OX%=***XoXOX****",
"*****#O...O#XXXOX***",
"*************XXXOX**",
"**************XXXX**",
"***************XX@**",
"********************",
"********************"
};
