/* XPM */
static char *zoom3d_xpm[] = {
/* columns rows colors chars-per-pixel */
"19 20 13 1",
"  c black",
". c #202020204040",
"X c #202040404040",
"o c #404040404040",
"O c #606060604040",
"+ c #606060608080",
"@ c #606080808080",
"# c #808080808080",
"$ c #A0A0A0A0A4A4",
"% c #C0C0C0C0C0C0",
"& c #C0C0DCDCC0C0",
"* c #FFFFFBFBF0F0",
"= c #FFFFFFFFFFFF",
/* pixels */
"*******************",
"*******************",
"**********.********",
"*********O=+*******",
"********o===o******",
"*********o=o*******",
"*********o=o*******",
"*********o=o*******",
"***&$#+OOo*oXo+%***",
"**$+#$%**o*o%#ooo**",
"**.&*****o=o***&o#*",
"******.**o=o**&@X$*",
"*****. **o%o+oXo$**",
"****.  XX.oXo#%****",
"*****. **o=o*******",
"******.**o=o*******",
"*********o=o*******",
"*********ooo*******",
"*******************",
"*******************"
};
