/* XPM */
static char *zoomout_xpm[] = {
/* columns rows colors chars-per-pixel */
"21 20 104 2",
"   c #1F1F20202323",
".  c #202021212424",
"X  c #212122222525",
"o  c #2A2A2D2D3030",
"O  c #2B2B2E2E3131",
"+  c #2D2D2E2E3131",
"@  c #2D2D2F2F3232",
"#  c #2E2E2F2F3232",
"$  c #333333333333",
"%  c #3B3B3F3F4242",
"&  c #3C3C3D3D4040",
"*  c #3D3D3E3E4141",
"=  c #3E3E3F3F4040",
"-  c #3F3F43434545",
";  c #434343434343",
":  c #414142424545",
">  c #434344444646",
",  c #444445454747",
"<  c #474747474747",
"1  c #424247474A4A",
"2  c #45454A4A4D4D",
"3  c #494949494949",
"4  c #4D4D4D4D4D4D",
"5  c #515155555959",
"6  c #525255555A5A",
"7  c #575757575A5A",
"8  c #555557575C5C",
"9  c #59595E5E6161",
"0  c #5A5A5F5F6262",
"q  c #5D5D5E5E6060",
"w  c #5C5C61616262",
"e  c #5C5C62626363",
"r  c #5D5D62626363",
"t  c #5F5F62626464",
"y  c #5F5F62626565",
"u  c #606060606060",
"i  c #636366666767",
"p  c #646464646464",
"a  c #666666666666",
"s  c #666667676969",
"d  c #676767676969",
"f  c #62626A6A6D6D",
"g  c #686868686A6A",
"h  c #6F6F70707272",
"j  c #737374747676",
"k  c #7C7C7C7C7E7E",
"l  c #8F8F96969797",
"z  c #9B9B9D9D9E9E",
"x  c #9C9C9E9E9F9F",
"c  c #9F9F9F9F9F9F",
"v  c #9F9FA0A0A0A0",
"b  c #A0A0B2B2B5B5",
"n  c #A0A0B3B3B5B5",
"m  c #AAAAB6B6B7B7",
"M  c #AFAFBBBBBDBD",
"N  c #B7B7BBBBBDBD",
"B  c #C0C0C4C4C5C5",
"V  c #C5C5C5C5C6C6",
"C  c #C6C6C6C6C7C7",
"Z  c #C3C3D9D9DBDB",
"A  c #C5C5DCDCDEDE",
"S  c #CBCBDFDFE0E0",
"D  c #CBCBE0E0E2E2",
"F  c #CCCCE1E1E3E3",
"G  c #CFCFE1E1E2E2",
"H  c #CFCFE2E2E3E3",
"J  c #CECEE2E2E4E4",
"K  c #CFCFE2E2E4E4",
"L  c #D1D1E4E4E5E5",
"P  c #D5D5E6E6E7E7",
"I  c #D7D7E7E7E8E8",
"U  c #D9D9E7E7E8E8",
"Y  c #D9D9E8E8E9E9",
"T  c #DADAE8E8E9E9",
"R  c #DADAE9E9EAEA",
"E  c #DDDDEBEBECEC",
"W  c #DEDEEBEBECEC",
"Q  c #E4E4E4E4E4E4",
"!  c #E1E1EDEDEEEE",
"~  c #E2E2EDEDEEEE",
"^  c #E3E3EEEEEFEF",
"/  c #E4E4EDEDEEEE",
"(  c #E4E4EFEFEFEF",
")  c #E5E5EEEEEFEF",
"_  c #EFEFEFEFEFEF",
"`  c #E5E5EFEFF0F0",
"'  c #E6E6F0F0F1F1",
"]  c #E9E9F2F2F3F3",
"[  c #EBEBF3F3F4F4",
"{  c #EDEDF4F4F5F5",
"}  c #EFEFF5F5F6F6",
"|  c #F1F1F6F6F6F6",
" . c #F2F2F6F6F6F6",
".. c #F4F4F9F9F9F9",
"X. c #F5F5F9F9F9F9",
"o. c #F6F6F8F8F8F8",
"O. c #F7F7F9F9F9F9",
"+. c #F8F8FAFAFAFA",
"@. c #F8F8FBFBFBFB",
"#. c #FBFBFBFBFBFB",
"$. c #FBFBFDFDFDFD",
"%. c #FDFDFEFEFEFE",
"&. c #FEFEFEFEFEFE",
"*. c #FFFFFFFFFFFF",
/* pixels */
"Q Q Q Q Q Q Q Q Q Q Q Q Q Q Q Q Q Q Q Q Q ",
"Q Q Q Q Q Q Q Q Q Q Q Q Q Q Q Q Q Q Q Q Q ",
"Q Q Q Q Q Q z 9 O   O 9 z Q Q Q Q Q Q Q Q ",
"Q Q Q Q Q e 1 b Z A Z b - 9 _ Q Q Q Q Q Q ",
"Q Q Q Q r l S J J G D G U f e _ Q Q Q Q Q ",
"Q Q Q x 2 G P ] ..P K K K G - z Q Q Q Q Q ",
"Q Q Q y M Y ( &.} R P Y Y P m y _ Q Q Q Q ",
"Q Q Q @ U ! @.&.' E E E E E Y @ _ Q Q Q Q ",
"Q Q Q   ( ` 8 6 5 5 5 5 5 ( ( X _ Q Q Q Q ",
"Q Q Q @ ) [ [ [ ] ] ] ] ] ] ( @ _ Q Q Q Q ",
"Q Q Q a B } } } } } } } } ..N i _ Q Q Q Q ",
"Q Q Q c * o.............@.O.$ c Q Q Q Q Q ",
"Q Q Q Q d j ..&.@.&.@.&.O.h q > _ Q Q Q Q ",
"Q Q Q Q Q d > V &.&.#.V - 7 4 a > _ Q Q Q ",
"Q Q Q Q Q Q v d @   @ d v , $ 3 p > _ Q Q ",
"Q Q Q Q Q Q Q Q Q Q Q Q Q Q , $ , u > Q Q ",
"Q Q Q Q Q Q Q Q Q Q Q Q Q Q Q > $ > > Q Q ",
"Q Q Q Q Q Q Q Q Q Q Q Q Q Q Q Q > > k Q Q ",
"Q Q Q Q Q Q Q Q Q Q Q Q Q Q Q Q Q Q Q Q Q ",
"Q Q Q Q Q Q Q Q Q Q Q Q Q Q Q Q Q Q Q Q Q "
};
