/* XPM */
static char *zoomtoextent_xpm[] = {
/* columns rows colors chars-per-pixel */
"20 20 13 1",
"  c #202020204040",
". c #404040404040",
"X c #606060604040",
"o c #606060608080",
"O c #606080808080",
"+ c #808080808080",
"@ c #8080A0A08080",
"# c #A0A0A0A0A4A4",
"$ c #A0A0C0C0C0C0",
"% c #C0C0C0C0C0C0",
"& c #C0C0DCDCC0C0",
"* c #FFFFFBFBF0F0",
"= c #FFFFFFFFFFFF",
/* pixels */
"********************",
"********************",
"*****#o   o#********",
"****o.#&&&#.o*******",
"***o@&&*&&&*oo******",
"**#.&...*...&.#*****",
"**o$*..=**..&#o*****",
"** &*.=.*.*.*& *****",
"** *===*.***** *****",
"** **.*.*.*.** *****",
"**o%*..***..*$o*****",
"**#.*...=...*.#*****",
"***oO*=====*oo.*****",
"****o.%*=*%.X.o.****",
"*****#o   o#...o.***",
"*************...o.**",
"**************....**",
"***************..+**",
"********************",
"********************"
};
